<?xml version="1.0" standalone="no"?>
<!DOCTYPE svg PUBLIC "-//W3C//DTD SVG 1.1//EN" "http://www.w3.org/Graphics/SVG/1.1/DTD/svg11.dtd" >
<svg xmlns="http://www.w3.org/2000/svg" xmlns:xlink="http://www.w3.org/1999/xlink" version="1.1">
<metadata>
Created by FontForge 20161116 at Wed Aug 24 15:51:00 2016
 By Jimmy Wärting
Copyright (c) The Font Bureau, Inc., 2008. All rights reserved.
</metadata>
<defs>
<font id="BentonSans-Regular" horiz-adv-x="1194" >
  <font-face 
    font-family="BentonSans Regular"
    font-weight="400"
    font-stretch="normal"
    units-per-em="2048"
    panose-1="2 0 5 3 0 0 0 2 0 4"
    ascent="1612"
    descent="-436"
    x-height="1081"
    cap-height="1516"
    bbox="-193 -508 2769 2498"
    underline-thickness="50"
    underline-position="-150"
    unicode-range="U+0020-2212"
  />
<missing-glyph horiz-adv-x="1024" 
d="M0 0v1434h1024v-1434h-1024zM102 102h820v1229h-820v-1229z" />
    <glyph glyph-name="uniFB00" unicode="ff" horiz-adv-x="1321" 
d="M51 936v145h189v146q0 137 75.5 215t235.5 78q27 0 55.5 -3.5t42.5 -3.5v-141q-14 2 -34.5 3t-36.5 1q-74 0 -118 -36.5t-44 -114.5v-144h436v142q0 137 76 217t248 80q24 0 56 -3.5t46 -3.5v-143q-14 4 -36.5 5t-39.5 1q-76 0 -125 -31.5t-49 -119.5v-144h238v-145h-238
v-936h-176v936h-436v-936h-176v936h-189z" />
    <glyph glyph-name="uniFB01" unicode="fi" horiz-adv-x="1210" 
d="M51 936v145h189v146q0 137 75.5 215t235.5 78q24 0 54 -3.5t44 -3.5v-143q-14 4 -35 4h-36q-74 0 -118 -35.5t-44 -115.5v-142h225v-145h-225v-936h-176v936h-189zM850 1307v178h180v-178h-180zM852 0v1081h176v-1081h-176z" />
    <glyph glyph-name="uniFB02" unicode="fl" horiz-adv-x="1206" 
d="M51 936v145h189v146q0 137 75.5 215t235.5 78q24 0 54 -3.5t44 -3.5v-143q-14 4 -35 4h-36q-74 0 -118 -35.5t-44 -115.5v-142h225v-145h-225v-936h-176v936h-189zM852 0v1516h176v-1516h-176z" />
    <glyph glyph-name="uniFB03" unicode="ffi" horiz-adv-x="1804" 
d="M51 936v145h189v146q0 137 75.5 215t235.5 78q27 0 55.5 -3.5t42.5 -3.5v-143q-14 4 -35 4h-36q-74 0 -118 -35.5t-44 -115.5v-142h436v140q0 137 76 218t235 81q23 0 52.5 -3.5t44.5 -3.5v-143q-13 4 -35 4h-37q-74 0 -117 -35.5t-43 -115.5v-142h223v-145h-223v-936
h-176v936h-436v-936h-176v936h-189zM1460 1307v178h180v-178h-180zM1462 0v1081h176v-1081h-176z" />
    <glyph glyph-name="uniFB04" unicode="ffl" horiz-adv-x="1804" 
d="M51 936v145h189v146q0 137 75.5 215t235.5 78q27 0 55.5 -3.5t42.5 -3.5v-143q-14 4 -35 4h-36q-74 0 -118 -35.5t-44 -115.5v-142h436v140q0 137 76 218t235 81q23 0 52.5 -3.5t44.5 -3.5v-143q-13 4 -35 4h-37q-74 0 -117 -35.5t-43 -115.5v-142h223v-145h-223v-936
h-176v936h-436v-936h-176v936h-189zM1462 0v1516h176v-1516h-176z" />
    <glyph glyph-name="f_j" unicode="fj" horiz-adv-x="1206" 
d="M51 936v145h189v146q0 137 75.5 215t235.5 78q24 0 54 -3.5t44 -3.5v-143q-14 4 -35 4h-36q-74 0 -118 -35.5t-44 -115.5v-142h225v-145h-225v-936h-176v936h-189zM672 -270q12 -4 31.5 -6.5t39.5 -2.5q52 0 80.5 30t28.5 95v1235h176v-1247q0 -55 -12 -100t-41 -78
t-77 -50.5t-120 -17.5q-10 0 -26.5 1t-31.5 2t-28.5 3.5t-19.5 2.5v133zM850 1307v178h180v-178h-180z" />
    <glyph glyph-name=".notdef" horiz-adv-x="1024" 
d="M0 0v1434h1024v-1434h-1024zM102 102h820v1229h-820v-1229z" />
    <glyph glyph-name=".null" horiz-adv-x="0" 
 />
    <glyph glyph-name="nonmarkingreturn" horiz-adv-x="682" 
 />
    <glyph glyph-name="space" unicode=" " horiz-adv-x="479" 
 />
    <glyph glyph-name="exclam" unicode="!" horiz-adv-x="657" 
d="M221 1516h219l-51 -1090h-115zM225 0v211h211v-211h-211z" />
    <glyph glyph-name="quotedbl" unicode="&#x22;" horiz-adv-x="850" 
d="M160 1395v121h168v-121l-35 -402h-98zM522 1395v121h166v-121l-35 -402h-96z" />
    <glyph glyph-name="numbersign" unicode="#" horiz-adv-x="1470" 
d="M82 432v141h266l76 369h-254v141h285l90 433h162l-91 -433h363l90 433h162l-90 -433h245v-141h-274l-78 -369h264v-141h-292l-93 -432h-161l90 432h-361l-92 -432h-162l90 432h-235zM510 573h362l76 369h-360z" />
    <glyph glyph-name="dollar" unicode="$" horiz-adv-x="1339" 
d="M115 285l131 86q33 -49 69.5 -90t79.5 -72t96.5 -50.5t118.5 -25.5v586q-90 24 -171 56t-144.5 79t-100 114.5t-36.5 166.5q0 79 30.5 149t88 122t140.5 85t187 39v147h127v-151q86 -8 151.5 -33t116 -59.5t87 -77.5t65.5 -88l-129 -97q-53 86 -117.5 139.5t-177.5 67.5
v-528q94 -27 182 -58.5t156 -82t108.5 -124t40.5 -182.5q0 -174 -124.5 -286.5t-358.5 -128.5v-178h-127v180q-100 8 -179 36.5t-138.5 70.5t-102.5 91.5t-69 96.5zM330 1149q0 -57 21.5 -98t58 -72t88 -53.5t112.5 -40.5v497q-147 -8 -213.5 -74.5t-66.5 -158.5zM727 133
q68 4 125 19.5t99 46t66.5 77t24.5 113.5q0 66 -24.5 113t-66.5 80.5t-99 58.5t-125 45v-553z" />
    <glyph glyph-name="percent" unicode="%" horiz-adv-x="2038" 
d="M119 1071q0 107 25.5 193t71.5 147.5t111.5 94t147.5 32.5q164 0 257 -125t93 -336q0 -102 -23.5 -187t-68.5 -146.5t-110.5 -96.5t-149.5 -35q-86 0 -151.5 34t-110.5 94.5t-68.5 144.5t-23.5 186zM276 1077q0 -151 50.5 -240t148.5 -89q96 0 145.5 92t49.5 233
q0 152 -50.5 241t-146.5 89q-98 0 -147.5 -92t-49.5 -234zM487 0l906 1516h159l-905 -1516h-160zM1212 438q0 107 26 193t72 147.5t111.5 94t147.5 32.5q80 0 145.5 -32.5t110.5 -92t69.5 -145.5t24.5 -191q0 -102 -23.5 -187t-69.5 -146.5t-111.5 -96t-149.5 -34.5
t-149.5 33.5t-110.5 94t-69 144.5t-24 186zM1368 444q0 -151 50 -241t149 -90q49 0 86 24.5t61.5 69.5t36.5 104.5t12 130.5q0 152 -50 240t-148 88q-99 0 -148 -92t-49 -234z" />
    <glyph glyph-name="ampersand" unicode="&#x26;" horiz-adv-x="1485" 
d="M72 375q0 84 28.5 152.5t76.5 125t112.5 101.5t136.5 82q-51 92 -76.5 175t-25.5 171q0 69 22.5 134.5t68.5 117t115.5 81t161.5 29.5q82 0 144.5 -23.5t104.5 -64.5t62.5 -95t20.5 -116q0 -80 -29.5 -144.5t-81 -117.5t-121 -97t-147.5 -83q27 -41 59.5 -84t71.5 -92
q70 -90 130.5 -160t113.5 -123q59 82 96 187.5t53 230.5h164q-20 -146 -67 -276t-125 -234q82 -64 154.5 -90.5t146.5 -26.5v-155q-119 4 -215.5 37.5t-198.5 113.5q-88 -76 -196.5 -118t-249.5 -42q-125 0 -220.5 30t-160 83t-97 127t-32.5 164zM252 393q0 -133 87 -202.5
t255 -69.5q186 0 317 106q-59 58 -126.5 133.5t-147.5 176.5q-41 51 -76 97t-63 89q-111 -66 -178.5 -147.5t-67.5 -182.5zM494 1192q0 -72 20.5 -138.5t65.5 -144.5q57 31 109 64t90 71.5t60.5 85t22.5 103.5q0 65 -41 116.5t-129 51.5q-96 0 -147 -56.5t-51 -152.5z" />
    <glyph glyph-name="quotesingle" unicode="'" horiz-adv-x="489" 
d="M160 1395v121h168v-121l-35 -402h-98z" />
    <glyph glyph-name="parenleft" unicode="(" horiz-adv-x="817" 
d="M121 563q0 295 132 533.5t382 449.5l80 -88q-185 -174 -294.5 -399t-109.5 -496q0 -270 110.5 -497.5t297.5 -401.5l-84 -84q-252 211 -383 449.5t-131 533.5z" />
    <glyph glyph-name="parenright" unicode=")" horiz-adv-x="817" 
d="M98 -336q187 174 296.5 401.5t109.5 497.5q0 271 -108.5 496t-295.5 399l82 88q250 -211 381 -449.5t131 -533.5t-130 -533.5t-382 -449.5z" />
    <glyph glyph-name="asterisk" unicode="*" horiz-adv-x="1040" 
d="M86 1049v127l371 -27l-211 303l116 70l158 -334l158 334l117 -70l-209 -303l368 27v-127l-368 24l209 -303l-115 -68l-160 334l-158 -334l-116 68l209 303z" />
    <glyph glyph-name="plus" unicode="+" horiz-adv-x="1307" 
d="M135 608v148h443v450h151v-450h445v-148h-445v-450h-151v450h-443z" />
    <glyph glyph-name="comma" unicode="," horiz-adv-x="555" 
d="M172 0v215h211v-190l-104 -240h-82l55 215h-80z" />
    <glyph glyph-name="hyphen" unicode="-" horiz-adv-x="731" 
d="M127 573v140h477v-140h-477z" />
    <glyph glyph-name="period" unicode="." horiz-adv-x="555" 
d="M172 0v215h211v-215h-211z" />
    <glyph glyph-name="slash" unicode="/" horiz-adv-x="1159" 
d="M47 0l881 1516h184l-881 -1516h-184z" />
    <glyph glyph-name="zero" unicode="0" horiz-adv-x="1354" 
d="M106 758q0 178 38 322.5t112 248t180.5 159.5t241.5 56q137 0 242.5 -56t177 -159.5t109.5 -248t38 -322.5t-38 -322.5t-109.5 -248t-177 -160t-242.5 -56.5q-135 0 -241.5 56.5t-180.5 160t-112 248t-38 322.5zM287 758q0 -312 105.5 -470.5t285.5 -158.5
q184 0 286.5 158.5t102.5 470.5q0 311 -104.5 468.5t-284.5 157.5q-186 0 -288.5 -157.5t-102.5 -468.5z" />
    <glyph glyph-name="one" unicode="1" horiz-adv-x="895" 
d="M111 0v160h284v1167q-55 -29 -135 -49.5t-145 -20.5v160q88 4 162.5 27.5t125.5 71.5h168v-1356h254v-160h-714z" />
    <glyph glyph-name="two" unicode="2" horiz-adv-x="1212" 
d="M90 0v33q0 82 21.5 162.5t78 163.5t152.5 170t246 184q86 55 146.5 101t98 92t56 95.5t18.5 110.5q0 125 -74.5 198.5t-209.5 73.5q-234 0 -371 -249l-139 86q84 151 212 237t306 86q104 0 188 -30.5t142.5 -86t90 -133t31.5 -170.5q0 -73 -18 -137.5t-62.5 -126
t-118 -123t-182.5 -131.5q-198 -127 -297.5 -237.5t-111.5 -208.5h799v-160h-1002z" />
    <glyph glyph-name="three" unicode="3" horiz-adv-x="1223" 
d="M53 248l131 98q82 -117 182.5 -167t221.5 -50q160 0 252 76t92 211q0 157 -108.5 234t-358.5 77h-62v150h72q117 0 198 17t130 51t70.5 83t21.5 113q0 108 -69.5 174.5t-231.5 66.5q-111 0 -201 -47t-155 -125l-117 109q86 98 209 160.5t278 62.5q121 0 209 -29.5
t144.5 -82t84 -121t27.5 -146.5q0 -143 -79 -235t-216 -123q170 -35 251 -133.5t81 -259.5q0 -97 -37 -177.5t-104.5 -139t-164.5 -91.5t-216 -33q-172 0 -309.5 71t-225.5 206z" />
    <glyph glyph-name="four" unicode="4" horiz-adv-x="1268" 
d="M61 350v137l691 1029h215v-1008h256v-158h-256v-350h-174v350h-732zM260 508h533v797h-5z" />
    <glyph glyph-name="five" unicode="5" horiz-adv-x="1202" 
d="M70 229l120 111q72 -92 165.5 -151.5t224.5 -59.5q92 0 160.5 30.5t112.5 81t65.5 117t21.5 140.5q0 174 -91 263t-239 89q-110 0 -191 -45t-143 -131l-129 45l60 797h823l-14 -162h-664l-37 -484q54 60 131.5 95.5t198.5 35.5q107 0 194 -34.5t149.5 -99t96 -157
t33.5 -204.5q0 -117 -37 -214t-106.5 -169t-167.5 -112t-223 -40q-170 0 -301 71t-213 187z" />
    <glyph glyph-name="six" unicode="6" horiz-adv-x="1268" 
d="M106 731q0 182 46.5 332.5t129.5 257t194.5 165t244.5 58.5q127 0 218 -34.5t153 -84.5l-91 -133q-57 43 -122.5 68.5t-163.5 25.5q-99 0 -177.5 -47t-135 -130t-87 -197.5t-32.5 -249.5q73 78 177.5 135t244.5 57q116 0 205 -33.5t149.5 -96t91.5 -150.5t31 -195
q0 -110 -39 -203.5t-107.5 -161t-165 -105.5t-211.5 -38q-116 0 -217.5 46t-176.5 140.5t-117 237t-42 336.5zM287 600q10 -125 44 -214t84 -147.5t115.5 -86t139.5 -27.5q153 0 245.5 92t92.5 258q0 70 -18.5 130.5t-58.5 103.5t-102.5 67.5t-150.5 24.5
q-121 0 -224.5 -57.5t-166.5 -143.5z" />
    <glyph glyph-name="seven" unicode="7" horiz-adv-x="1120" 
d="M88 1354v162h956v-152l-630 -1364h-185l627 1354h-768z" />
    <glyph glyph-name="eight" unicode="8" horiz-adv-x="1255" 
d="M74 371q0 78 27.5 141t77.5 114.5t122 94.5t162 80q-74 35 -133.5 71.5t-101.5 80.5t-63.5 98.5t-21.5 124.5q0 69 33 136.5t94.5 120t151.5 84t207 31.5q119 0 209 -31.5t150.5 -84t91 -120t30.5 -136.5q0 -134 -84 -216.5t-238 -152.5q93 -41 165.5 -82t122.5 -92
t77 -114.5t27 -147.5t-37 -158t-107.5 -128t-173 -86t-233.5 -32t-234.5 31t-174 85t-108.5 128t-38 160zM254 381q0 -59 27.5 -107.5t77 -83t118 -54t152.5 -19.5q82 0 150.5 18.5t117.5 53t76.5 82.5t27.5 110q0 59 -24.5 107.5t-73.5 89t-120.5 78.5t-166.5 77
q-92 -41 -160.5 -80t-112.5 -81t-66.5 -88t-22.5 -103zM319 1171q0 -53 19.5 -93t58.5 -73.5t98.5 -65.5t141.5 -67q80 35 136 67t92 65.5t53.5 72.5t17.5 88q0 43 -18.5 85t-55.5 74t-95 52.5t-138 20.5q-78 0 -136.5 -19.5t-96.5 -50.5t-57.5 -72t-19.5 -84z" />
    <glyph glyph-name="nine" unicode="9" horiz-adv-x="1268" 
d="M86 1036q0 111 39 204t107.5 160.5t165 105.5t210.5 38q117 0 218.5 -46t175 -140t115.5 -237.5t42 -336.5q0 -182 -46 -332.5t-128 -257t-194.5 -165t-243.5 -58.5t-227.5 39t-159.5 92l88 134q61 -48 131 -78.5t174 -30.5q98 0 177 47t134.5 131t86 198.5t32.5 250.5
q-74 -78 -178.5 -135.5t-243.5 -57.5q-115 0 -204 34t-149.5 96.5t-91 150.5t-30.5 194zM260 1040q0 -71 18.5 -130.5t57.5 -102.5t101.5 -67.5t152.5 -24.5q119 0 222 57t167 143q-10 125 -43 214.5t-83 146.5t-115.5 85t-139.5 28q-154 0 -246 -91.5t-92 -257.5z" />
    <glyph glyph-name="colon" unicode=":" horiz-adv-x="563" 
d="M176 0v215h211v-215h-211zM176 864v217h211v-217h-211z" />
    <glyph glyph-name="semicolon" unicode=";" horiz-adv-x="563" 
d="M176 0v215h211v-188l-106 -242h-82l57 215h-80zM176 864v217h211v-217h-211z" />
    <glyph glyph-name="less" unicode="&#x3c;" horiz-adv-x="1307" 
d="M109 604v119l1083 465v-158l-885 -366l885 -367v-158z" />
    <glyph glyph-name="equal" unicode="=" horiz-adv-x="1307" 
d="M135 362v142h1034v-142h-1034zM135 829v142h1034v-142h-1034z" />
    <glyph glyph-name="greater" unicode="&#x3e;" horiz-adv-x="1307" 
d="M119 139v158l885 367l-885 366v158l1083 -465v-119z" />
    <glyph glyph-name="question" unicode="?" horiz-adv-x="1124" 
d="M76 1288q43 55 93 101.5t110.5 81t133 54t160.5 19.5q105 0 188 -27.5t141.5 -76.5t89 -117t30.5 -149q0 -74 -20.5 -129.5t-55.5 -99.5t-82 -79t-100 -65q-66 -37 -102.5 -70t-55 -74t-22.5 -96t-4 -137h-144q-6 63 -6 137q0 111 45 182.5t146 130.5q57 35 99 65
t69.5 61.5t41 70.5t13.5 92q0 105 -75 163t-208 58q-127 0 -214 -56t-150 -140zM403 0v211h209v-211h-209z" />
    <glyph glyph-name="at" unicode="@" horiz-adv-x="1778" 
d="M96 756q0 174 59.5 319.5t166 250t252 161.5t317.5 57t316.5 -56t250 -157.5t164.5 -243t59 -309.5q0 -106 -26.5 -191t-73.5 -145.5t-112.5 -92.5t-143.5 -32q-104 0 -164.5 43t-83.5 113q-71 -65 -152 -105t-184 -40q-133 0 -217 79.5t-84 245.5q0 119 32 220.5t87 175
t133 115.5t170 42t152.5 -30.5t107.5 -77.5l15 92h143l-90 -606q-12 -74 26.5 -122t124.5 -48q101 0 171.5 89t70.5 271q0 150 -52 275t-144.5 214t-219.5 138t-276 49q-152 0 -279 -51t-219 -142.5t-143 -219.5t-51 -281q0 -154 51 -281t141 -219t216 -143.5t278 -51.5
q123 0 221 27t190 80l43 -74q-94 -57 -210.5 -90t-245.5 -33q-174 0 -318.5 57.5t-249 161t-162 248t-57.5 318.5zM586 668q0 -117 50 -170.5t140 -53.5q72 0 136.5 29t131.5 94l62 408q-49 57 -105.5 82.5t-130.5 25.5q-65 0 -117.5 -33.5t-89 -91t-57 -133t-20.5 -157.5z
" />
    <glyph glyph-name="A" unicode="A" horiz-adv-x="1393" 
d="M66 0l536 1522h189l536 -1522h-186l-150 434h-602l-149 -434h-174zM444 592h492l-242 711h-4z" />
    <glyph glyph-name="B" unicode="B" horiz-adv-x="1415" 
d="M186 0v1516h543q248 0 383 -94.5t135 -284.5q0 -78 -21.5 -137.5t-60.5 -102.5t-90 -70.5t-108 -40.5v-4q69 -12 129.5 -40.5t104.5 -73.5t69.5 -108.5t25.5 -145.5q0 -193 -135 -303.5t-389 -110.5h-586zM365 158h395q186 0 272 68.5t86 199.5q0 143 -105.5 207.5
t-289.5 64.5h-358v-540zM365 854h348q172 0 265 61.5t93 192.5t-84 189.5t-270 58.5h-352v-502z" />
    <glyph glyph-name="C" unicode="C" horiz-adv-x="1444" 
d="M113 764q0 178 47 321.5t132 246t203.5 157.5t260.5 55q121 0 214 -33.5t161.5 -94t113.5 -146.5t72 -191l-172 -47q-49 174 -137 260t-254 86q-107 0 -192 -43t-144.5 -122.5t-91 -192.5t-31.5 -254q0 -303 125 -467t338 -164q317 0 411 367l170 -39
q-28 -113 -77.5 -203t-122 -154.5t-169 -99.5t-214.5 -35q-146 0 -263.5 54.5t-202.5 157t-131 249t-46 332.5z" />
    <glyph glyph-name="D" unicode="D" horiz-adv-x="1464" 
d="M186 0v1516h400q364 0 564 -186.5t200 -567.5q0 -193 -51.5 -336t-149.5 -237.5t-240.5 -141.5t-322.5 -47h-400zM367 162h241q275 0 418 141t143 459q0 305 -144 446.5t-421 141.5h-237v-1188z" />
    <glyph glyph-name="E" unicode="E" horiz-adv-x="1247" 
d="M186 0v1516h930v-166h-749v-473h557v-162h-557v-551h792v-164h-973z" />
    <glyph glyph-name="F" unicode="F" horiz-adv-x="1165" 
d="M186 0v1516h910v-166h-729v-488h536v-162h-536v-700h-181z" />
    <glyph glyph-name="G" unicode="G" horiz-adv-x="1495" 
d="M113 764q0 180 47 324.5t133 246t204.5 155.5t260.5 54q217 0 359.5 -114.5t201.5 -354.5l-168 -43q-53 182 -145.5 264t-249.5 82q-90 0 -173 -34.5t-146.5 -109.5t-102.5 -189.5t-39 -274.5t35 -278.5t97 -198.5t148.5 -120t186.5 -40q178 0 286.5 114.5t112.5 325.5
h-348v152h522v-725h-157v227h-4q-23 -47 -60 -93t-89 -82t-121.5 -58.5t-158.5 -22.5q-153 0 -271 59.5t-198.5 165t-121.5 251t-41 317.5z" />
    <glyph glyph-name="H" unicode="H" horiz-adv-x="1513" 
d="M186 0v1516h181v-635h780v635h180v-1516h-180v715h-780v-715h-181z" />
    <glyph glyph-name="I" unicode="I" horiz-adv-x="594" 
d="M207 0v1516h180v-1516h-180z" />
    <glyph glyph-name="J" unicode="J" horiz-adv-x="1034" 
d="M49 170l121 102q47 -63 107.5 -103t150.5 -40q57 0 104.5 15.5t81 49t52 90t18.5 138.5v1094h180v-1106q0 -215 -113.5 -327t-316.5 -112q-139 0 -229 54.5t-156 144.5z" />
    <glyph glyph-name="K" unicode="K" horiz-adv-x="1389" 
d="M186 0v1516h181v-783l686 783h217l-520 -578l591 -938h-206l-504 801l-264 -289v-512h-181z" />
    <glyph glyph-name="L" unicode="L" horiz-adv-x="1165" 
d="M186 0v1516h181v-1352h729v-164h-910z" />
    <glyph glyph-name="M" unicode="M" horiz-adv-x="1798" 
d="M186 0v1516h236l477 -1289h4l469 1289h240v-1516h-178v1227h-4q-17 -60 -41.5 -131.5t-51.5 -147.5l-362 -948h-162l-362 948q-15 37 -26 70t-22.5 65.5t-22.5 68.5t-24 81h-4v-1233h-166z" />
    <glyph glyph-name="N" unicode="N" horiz-adv-x="1534" 
d="M186 0v1516h191l797 -1199h4v1199h170v-1516h-162l-826 1231h-4v-1231h-170z" />
    <glyph glyph-name="O" unicode="O" horiz-adv-x="1534" 
d="M113 758q0 182 50 328.5t137 248t207 155.5t261 54t260 -54t206 -155.5t136 -248t49 -328.5q0 -183 -49 -329t-136 -247.5t-206 -156t-260 -54.5t-261 54.5t-207 156t-137 247.5t-50 329zM295 758q0 -148 35 -264.5t97 -196.5t149.5 -122t191.5 -42q102 0 189 42
t149.5 122t97.5 196.5t35 264.5q0 147 -35 263t-97.5 195.5t-149.5 121.5t-189 42q-104 0 -191.5 -42t-149.5 -121.5t-97 -195.5t-35 -263z" />
    <glyph glyph-name="P" unicode="P" horiz-adv-x="1329" 
d="M186 0v1516h514q123 0 223.5 -25t173 -77t111.5 -134t39 -195q0 -120 -43 -205t-117.5 -138.5t-177 -77t-221.5 -23.5h-321v-641h-181zM367 801h331q183 0 277 62.5t94 215.5q0 148 -93 210.5t-280 62.5h-329v-551z" />
    <glyph glyph-name="Q" unicode="Q" horiz-adv-x="1534" 
d="M113 758q0 182 51 328.5t139 248t208 155.5t257 54t256 -54t207 -155.5t138 -248t50 -328.5q0 -168 -43 -305.5t-118.5 -237.5t-181 -160.5t-228.5 -74.5q8 -66 33.5 -106t68.5 -63.5t100.5 -31.5t129.5 -8h104v-156h-158q-116 0 -202 27.5t-142.5 76t-85 116
t-30.5 147.5q-121 16 -222.5 77.5t-175 162t-114.5 236.5t-41 300zM293 758q0 -148 34.5 -264.5t98 -197.5t151 -123t191.5 -42q102 0 188 42t148.5 123t97.5 197.5t35 264.5q0 147 -35 263t-97.5 195.5t-148.5 121.5t-188 42q-104 0 -191.5 -42t-151 -121.5t-98 -195.5
t-34.5 -263z" />
    <glyph glyph-name="R" unicode="R" horiz-adv-x="1386" 
d="M186 0v1516h521q260 0 399 -106.5t139 -317.5q0 -185 -95 -283t-257 -133l373 -676h-197l-362 653h-342v-653h-179zM365 813h331q178 0 274.5 58.5t96.5 213.5q0 150 -95 208.5t-278 58.5h-329v-539z" />
    <glyph glyph-name="S" unicode="S" horiz-adv-x="1346" 
d="M111 367l151 67q57 -153 167 -228t263 -75q160 0 257.5 64.5t97.5 185.5q0 55 -17.5 99t-60.5 81t-117 70t-186 67q-119 37 -212.5 74t-158 86t-99 117.5t-34.5 167.5q0 86 35.5 159.5t100 128t154 84t197.5 29.5q109 0 195 -25.5t151.5 -71.5t112.5 -108.5t76 -134.5
l-144 -80q-61 138 -159.5 197t-233.5 59q-145 0 -226 -62.5t-81 -160.5q0 -61 20.5 -103t67.5 -76t124 -64.5t187 -65.5q115 -35 205 -75t152.5 -92t95.5 -122t33 -166q0 -94 -39 -172t-110.5 -133t-171 -86t-220.5 -31q-217 0 -365.5 107.5t-207.5 288.5z" />
    <glyph glyph-name="T" unicode="T" horiz-adv-x="1276" 
d="M66 1350v166h1144v-166h-483v-1350h-180v1350h-481z" />
    <glyph glyph-name="U" unicode="U" horiz-adv-x="1468" 
d="M172 524v992h180v-967q0 -92 22.5 -168t70 -130t120 -85t172.5 -31q199 0 290 112.5t91 297.5v971h178v-988q0 -118 -34.5 -219.5t-105.5 -176.5t-175 -117t-246 -42q-145 0 -251.5 42t-176 116t-102.5 175.5t-33 217.5z" />
    <glyph glyph-name="V" unicode="V" horiz-adv-x="1364" 
d="M66 1516h184l434 -1280h4l436 1280h174l-532 -1522h-168z" />
    <glyph glyph-name="W" unicode="W" horiz-adv-x="1907" 
d="M74 1516h182l223 -879q27 -100 49.5 -194.5t38.5 -176.5h4q17 80 38.5 175.5t47.5 193.5l211 881h183l217 -887q24 -103 45.5 -189t38.5 -174h4q18 92 38.5 174t45.5 183l221 893h172l-401 -1516h-166l-305 1268h-5l-313 -1268h-166z" />
    <glyph glyph-name="X" unicode="X" horiz-adv-x="1372" 
d="M66 0l520 809l-457 707h207l358 -564l353 564h190l-453 -705l523 -811h-197l-428 668l-430 -668h-186z" />
    <glyph glyph-name="Y" unicode="Y" horiz-adv-x="1292" 
d="M45 1516h193l411 -699l410 699h188l-512 -852v-664h-180v664z" />
    <glyph glyph-name="Z" unicode="Z" horiz-adv-x="1290" 
d="M82 0v127l887 1237h-830v152h1051v-132l-881 -1234h881v-150h-1108z" />
    <glyph glyph-name="bracketleft" unicode="[" horiz-adv-x="817" 
d="M172 -410v1926h555v-132h-377v-1663h377v-131h-555z" />
    <glyph glyph-name="backslash" unicode="\" horiz-adv-x="1139" 
d="M37 1516h184l881 -1516h-184z" />
    <glyph glyph-name="bracketright" unicode="]" horiz-adv-x="817" 
d="M88 -279h377v1661h-377v134h555v-1926h-555v131z" />
    <glyph glyph-name="asciicircum" unicode="^" horiz-adv-x="1307" 
d="M131 688l467 828h117l465 -828h-156l-369 649l-366 -649h-158z" />
    <glyph glyph-name="underscore" unicode="_" horiz-adv-x="1024" 
d="M0 -133h1024v-137h-1024v137z" />
    <glyph glyph-name="grave" unicode="`" horiz-adv-x="1024" 
d="M279 1522h215l192 -324h-117z" />
    <glyph glyph-name="a" unicode="a" horiz-adv-x="1133" 
d="M90 256q0 82 38 151.5t123 127t223 100.5t339 72v49q0 200 -205 200q-123 0 -217 -47t-174 -116l-92 110q94 86 217 143.5t285 57.5q96 0 164.5 -24.5t111.5 -70.5t63.5 -114t20.5 -152v-477q0 -98 7 -161.5t24 -104.5h-180q-11 35 -18 68.5t-7 81.5q-178 -166 -418 -166
q-141 0 -223 70.5t-82 201.5zM264 283q0 -78 48 -119t134 -41q109 0 200 42t167 116v303q-154 -25 -259 -55.5t-170 -68.5t-92.5 -82t-27.5 -95z" />
    <glyph glyph-name="b" unicode="b" horiz-adv-x="1227" 
d="M156 0v1516h176v-586q61 69 148 121.5t208 52.5q92 0 173 -35t140.5 -104.5t93 -175t33.5 -246.5q0 -142 -34.5 -247.5t-96 -174t-145.5 -103t-182 -34.5q-101 0 -185 42t-153 113v-139h-176zM332 291q145 -164 313 -164q141 0 224 99.5t83 314.5q0 207 -87 309t-218 102
q-94 0 -171 -46t-144 -120v-495z" />
    <glyph glyph-name="c" unicode="c" horiz-adv-x="1098" 
d="M94 541q0 147 43 253.5t114 175t160 101.5t179 33q92 0 159.5 -24.5t119 -66.5t86 -97.5t59.5 -114.5l-150 -62q-41 105 -106.5 160t-171.5 55q-60 0 -115 -21.5t-100 -70.5t-72 -128t-27 -193q0 -201 86 -308.5t224 -107.5q104 0 170.5 49t119.5 168l146 -57
q-31 -68 -72 -124.5t-94 -97t-120.5 -63.5t-156.5 -23q-94 0 -181 36t-153.5 106.5t-106.5 176t-40 245.5z" />
    <glyph glyph-name="d" unicode="d" horiz-adv-x="1227" 
d="M96 539q0 141 35 246.5t96.5 176t146.5 106.5t183 36t186 -44t150 -116v572h176v-1250q0 -98 7 -161.5t26 -104.5h-184q-11 27 -18 70t-7 84q-66 -72 -150 -121t-206 -49q-93 0 -173.5 33.5t-140 102t-93.5 173t-34 246.5zM272 537q0 -105 23.5 -180.5t64.5 -127
t97.5 -76t122.5 -24.5q94 0 169.5 46t143.5 120v496q-72 79 -148.5 121t-162.5 42q-142 0 -226 -101t-84 -316z" />
    <glyph glyph-name="e" unicode="e" horiz-adv-x="1130" 
d="M94 541q0 147 44 253.5t115 175t158 101.5t173 33q96 0 178 -34t142.5 -104.5t95 -178t34.5 -255.5v-36h-764q2 -93 29 -162.5t70 -116.5t101 -71.5t126 -24.5q117 0 190.5 45t135.5 131l102 -90q-76 -109 -181.5 -169.5t-258.5 -60.5q-97 0 -185 35t-155.5 105.5
t-108.5 176t-41 247.5zM274 633h592q-10 145 -79.5 234t-204.5 89q-56 0 -107 -19t-92 -59t-70.5 -100.5t-38.5 -144.5z" />
    <glyph glyph-name="f" unicode="f" horiz-adv-x="705" 
d="M51 936v145h189v146q0 137 76.5 215t248.5 78q23 0 55.5 -3.5t45.5 -3.5v-143q-13 4 -35.5 5t-40.5 1q-74 0 -124 -31.5t-50 -119.5v-144h237v-145h-237v-936h-176v936h-189z" />
    <glyph glyph-name="g" unicode="g" horiz-adv-x="1178" 
d="M35 -147q0 84 52 144t144 95q-92 43 -92 137q0 54 38 97t97 77q-77 52 -121 130.5t-44 181.5q0 86 32.5 156.5t91 123t139.5 81t177 28.5q100 0 181 -31t138 -82q50 37 120.5 64.5t135.5 36.5v-156q-45 0 -96 -8t-98 -27q55 -78 55 -186q0 -88 -32.5 -159t-91 -121
t-138.5 -77.5t-174 -27.5q-47 0 -89 7t-83 19q-35 -16 -55.5 -35.5t-20.5 -48.5q0 -34 32 -50.5t118 -24.5l221 -19q207 -14 310 -81.5t103 -198.5q0 -78 -38.5 -136.5t-108.5 -97.5t-167 -59.5t-214 -20.5q-274 0 -398 73t-124 196zM199 -121q0 -82 89 -122t292 -40
q161 0 252.5 45t91.5 119q0 72 -64.5 108t-234.5 48l-205 14l-62 6q-77 -28 -118 -75.5t-41 -102.5zM276 711q0 -117 75 -184.5t200 -67.5t197.5 67.5t72.5 184.5q0 118 -70.5 187t-201.5 69q-127 0 -200 -70t-73 -186z" />
    <glyph glyph-name="h" unicode="h" horiz-adv-x="1204" 
d="M156 0v1516h178v-596q35 34 78 67t94 59.5t109.5 42t123.5 15.5q156 0 238 -85t82 -239v-780h-176v741q0 109 -47.5 160t-151.5 51q-98 0 -181 -47t-169 -127v-778h-178z" />
    <glyph glyph-name="i" unicode="i" horiz-adv-x="512" 
d="M164 1313v172h184v-172h-184zM168 0v1081h176v-1081h-176z" />
    <glyph glyph-name="j" unicode="j" horiz-adv-x="512" 
d="M-12 -270q14 -4 32.5 -6.5t36.5 -2.5q54 0 82.5 30t28.5 95v1235h176v-1247q0 -55 -12.5 -100t-41 -78t-76.5 -50.5t-120 -17.5q-22 0 -59 3t-47 6v133zM164 1313v172h184v-172h-184z" />
    <glyph glyph-name="k" unicode="k" horiz-adv-x="1106" 
d="M156 0v1516h176v-975l483 540h201l-354 -387l393 -694h-189l-319 563l-215 -231v-332h-176z" />
    <glyph glyph-name="l" unicode="l" horiz-adv-x="512" 
d="M168 0v1516h176v-1516h-176z" />
    <glyph glyph-name="m" unicode="m" horiz-adv-x="1878" 
d="M156 0v1081h176v-163q78 77 172 131.5t217 54.5q137 0 202.5 -52.5t94.5 -138.5q78 78 177 134.5t222 56.5q166 0 240 -88t74 -236v-780h-177v741q0 109 -40.5 160t-147.5 51q-92 0 -170 -47t-164 -127v-778h-176v741q0 109 -41 160t-147 51q-90 0 -170 -47t-166 -127
v-778h-176z" />
    <glyph glyph-name="n" unicode="n" horiz-adv-x="1204" 
d="M156 0v1081h178v-161q35 34 78 67t94 59.5t109.5 42t123.5 15.5q156 0 238 -85t82 -239v-780h-176v741q0 109 -47.5 160t-151.5 51q-98 0 -181 -47t-169 -127v-778h-178z" />
    <glyph glyph-name="o" unicode="o" 
d="M94 541q0 139 41 244.5t110.5 176t161 106.5t191.5 36q98 0 189.5 -36t161 -106.5t110.5 -176t41 -244.5q0 -140 -41 -245.5t-110.5 -176t-161 -106.5t-189.5 -36t-189.5 36t-161 106.5t-111.5 176t-42 245.5zM272 541q0 -86 20.5 -162t60.5 -131t101.5 -88t143.5 -33
q76 0 136.5 29.5t102.5 84t63.5 131.5t21.5 169q0 84 -20.5 158.5t-60.5 131t-101.5 89t-141.5 32.5q-78 0 -138.5 -29.5t-102.5 -84t-63.5 -130t-21.5 -167.5z" />
    <glyph glyph-name="p" unicode="p" horiz-adv-x="1227" 
d="M156 -410v1491h176v-149q61 67 147 119.5t209 52.5q92 0 173 -35t140.5 -104.5t93 -175t33.5 -246.5q0 -142 -34.5 -247.5t-96 -174t-145.5 -103t-182 -34.5q-101 0 -185 42t-153 113v-549h-176zM332 291q145 -164 313 -164q141 0 224 99.5t83 314.5q0 207 -87 309
t-218 102q-94 0 -171 -46t-144 -120v-495z" />
    <glyph glyph-name="q" unicode="q" horiz-adv-x="1227" 
d="M96 539q0 141 35 246.5t96.5 176t146.5 106.5t183 36t183 -43t153 -115v135h176v-1491h-176v564q-66 -72 -150 -121t-206 -49q-93 0 -173.5 33.5t-140 102t-93.5 173t-34 246.5zM272 537q0 -105 23.5 -180.5t64.5 -127t97.5 -76t122.5 -24.5q94 0 169.5 46t143.5 120v496
q-72 79 -148.5 121t-162.5 42q-142 0 -226 -101t-84 -316z" />
    <glyph glyph-name="r" unicode="r" horiz-adv-x="819" 
d="M156 0v1081h176v-200h4q59 94 159.5 158.5t258.5 64.5h22l-12 -164q-4 2 -26 2h-25q-129 0 -225.5 -63.5t-155.5 -180.5v-698h-176z" />
    <glyph glyph-name="s" unicode="s" horiz-adv-x="1049" 
d="M78 164l106 106q62 -65 145 -107t193 -42q127 0 193.5 43t66.5 127q0 82 -69.5 121t-208.5 71q-86 21 -158 45.5t-122 60.5t-78.5 89t-28.5 131q0 61 25.5 114.5t74.5 93.5t120 63.5t159 23.5q143 0 240.5 -42t172.5 -114l-92 -117q-61 58 -141 94t-172 36
q-119 0 -169 -44.5t-50 -101.5q0 -76 63.5 -111.5t192.5 -64.5q92 -23 167.5 -47.5t130 -62t84 -93t29.5 -139.5q0 -78 -32.5 -137.5t-91 -99.5t-137.5 -60t-171 -20q-147 0 -262 52t-180 132z" />
    <glyph glyph-name="t" unicode="t" horiz-adv-x="772" 
d="M45 936v145h188v385h177v-385h280v-145h-280v-635q0 -86 34.5 -129t133.5 -43q28 0 58 4t52 10v-145q-22 -4 -67.5 -8t-85.5 -4q-170 0 -236 67.5t-66 208.5v674h-188z" />
    <glyph glyph-name="u" unicode="u" horiz-adv-x="1204" 
d="M145 301v780h177v-743q0 -109 47 -160t151 -51q98 0 181 47t169 127v780h179v-1081h-179v162q-34 -35 -77 -68t-94.5 -58.5t-110 -40.5t-123.5 -15q-156 0 -238 83.5t-82 237.5z" />
    <glyph glyph-name="v" unicode="v" horiz-adv-x="1055" 
d="M41 1081h188l303 -876h5l299 876h176l-396 -1085h-178z" />
    <glyph glyph-name="w" unicode="w" horiz-adv-x="1540" 
d="M45 1081h182l142 -508q14 -49 25.5 -92t22.5 -85t22.5 -87t23.5 -96h4q14 57 25.5 102t21.5 86t21.5 83t25.5 91l137 506h154l141 -516q15 -49 26 -90t21.5 -82t20.5 -84t22 -96h4q15 53 26 96t21.5 83t21.5 81t26 88l147 520h166l-330 -1081h-164l-229 846h-4l-231 -846
h-162z" />
    <glyph glyph-name="x" unicode="x" horiz-adv-x="1061" 
d="M55 0l385 559l-358 522h192l265 -395l262 395h186l-360 -520l383 -561h-191l-291 430l-288 -430h-185z" />
    <glyph glyph-name="y" unicode="y" horiz-adv-x="1092" 
d="M14 -389l41 141q23 -6 63 -12t97 -6q84 0 129 36.5t78 116.5l41 107l-418 1087h186l318 -874h4l317 874h179l-463 -1204q-29 -72 -59.5 -126t-73.5 -91t-99.5 -56.5t-136.5 -19.5q-72 0 -120 8.5t-83 18.5z" />
    <glyph glyph-name="z" unicode="z" horiz-adv-x="1044" 
d="M80 0v106l633 832h-584v143h805v-110l-635 -830h666v-141h-885z" />
    <glyph glyph-name="braceleft" unicode="{" horiz-adv-x="801" 
d="M68 487v131q57 0 100 10.5t70.5 38t42 74.5t14.5 123v369q0 135 64.5 209t205.5 74h158v-132h-90q-84 0 -122 -39.5t-38 -117.5v-377q0 -76 -11 -126t-33.5 -83t-55.5 -52.5t-74 -33.5v-4q41 -14 74 -33.5t55.5 -52.5t33.5 -83t11 -126v-377q0 -78 38 -118t122 -40h90
v-131h-158q-141 0 -205.5 74t-64.5 209v369q0 75 -14.5 122.5t-42 75t-70.5 37.5t-100 10z" />
    <glyph glyph-name="bar" unicode="|" horiz-adv-x="727" 
d="M276 -410v1926h173v-1926h-173z" />
    <glyph glyph-name="braceright" unicode="}" horiz-adv-x="801" 
d="M78 -279h90q84 0 122 40t38 118v387q0 76 11 124t33.5 80t55.5 49.5t74 31.5v4q-41 14 -74 31.5t-55.5 49.5t-33.5 80t-11 124v387q0 78 -35 121t-119 43h-90l-6 125h168q141 0 200.5 -69t59.5 -204v-379q0 -76 14.5 -123t42 -74.5t70.5 -38t100 -10.5v-131
q-57 0 -100 -10t-70.5 -37.5t-42 -75t-14.5 -122.5v-379q0 -135 -59.5 -204t-200.5 -69h-168v131z" />
    <glyph glyph-name="asciitilde" unicode="~" horiz-adv-x="1307" 
d="M141 612q13 125 75.5 178.5t156.5 49.5q53 -2 135 -24.5t166 -49.5t157.5 -49.5t110.5 -24.5q45 -2 75 18.5t36 80.5l112 -13q-12 -127 -74.5 -182t-156.5 -49q-51 2 -133 24.5t-167 48t-159 48t-110 24.5q-46 4 -74.5 -15.5t-34.5 -78.5z" />
    <glyph glyph-name="uni00A0" unicode="&#xa0;" horiz-adv-x="479" 
 />
    <glyph glyph-name="exclamdown" unicode="&#xa1;" horiz-adv-x="657" 
d="M217 0l51 1090h115l53 -1090h-219zM221 1305v211h211v-211h-211z" />
    <glyph glyph-name="cent" unicode="&#xa2;" horiz-adv-x="1102" 
d="M94 541q0 147 43 252.5t114 175t160 102.5t179 33h29q14 0 28 -2l58 205h110l-63 -228q104 -37 165.5 -112.5t98.5 -165.5l-144 -62q-61 152 -167 197l-222 -801q43 -14 99 -14q104 0 173.5 51t125.5 170l139 -57q-31 -68 -72 -124.5t-95 -97t-122.5 -63.5t-155.5 -23
q-63 0 -124 17l-72 -258h-113l84 299q-110 63 -183 190t-73 316zM262 541q0 -129 37 -218.5t98 -140.5l213 774h-24q-60 0 -117 -21.5t-103.5 -70.5t-75 -128t-28.5 -195z" />
    <glyph glyph-name="sterling" unicode="&#xa3;" horiz-adv-x="1278" 
d="M55 182q0 107 67.5 171.5t178.5 64.5q61 0 114.5 -23.5t102.5 -58.5q6 45 6 106q0 82 -22.5 151t-55.5 132h-266v131h193q-39 70 -66.5 140.5t-27.5 156.5t27.5 157.5t79.5 124t127 81t169 28.5q111 0 186.5 -33.5t124.5 -88t75 -123t34 -140.5l-164 -24
q-10 110 -67.5 184t-188.5 74q-111 0 -170 -64.5t-59 -173.5q0 -80 32.5 -151.5t73.5 -147.5h354v-131h-290q26 -59 42.5 -124.5t16.5 -143.5q0 -123 -35 -221q55 -46 112.5 -81.5t123.5 -35.5q98 0 138 61.5t48 200.5h160q-2 -86 -20.5 -161t-56.5 -130t-99.5 -87
t-151.5 -32q-98 0 -176 45t-143 103q-107 -148 -293 -148q-43 0 -84 13.5t-75 39t-54.5 65.5t-20.5 93zM186 186q0 -47 32 -74.5t79 -27.5q127 0 182 123q-45 39 -88 65.5t-90 26.5q-53 0 -84 -30.5t-31 -82.5z" />
    <glyph glyph-name="yen" unicode="&#xa5;" horiz-adv-x="1288" 
d="M49 1516h193l405 -689l404 689h188l-502 -834h387v-131h-391v-180h391v-131h-391v-240h-180v240h-387v131h387v180h-387v131h381z" />
    <glyph glyph-name="brokenbar" unicode="&#xa6;" horiz-adv-x="727" 
d="M276 -410v838h173v-838h-173zM276 678v838h173v-838h-173z" />
    <glyph glyph-name="section" unicode="&#xa7;" horiz-adv-x="1106" 
d="M111 596q0 61 22.5 112.5t59 92.5t80.5 72.5t87 54.5q-53 39 -88.5 73.5t-57 70.5t-31 73t-9.5 80q0 61 25.5 119.5t74 102.5t119 70.5t160.5 26.5q104 0 177 -23.5t122 -64.5t76.5 -95t42.5 -114l-148 -53q-28 98 -88.5 155.5t-175.5 57.5q-117 0 -167 -53.5t-50 -120.5
q0 -35 13.5 -66.5t44 -62.5t80.5 -65.5t122 -75.5q100 -60 174 -108t122 -95t71.5 -100.5t23.5 -120.5q0 -62 -22.5 -113t-57 -93t-80 -74t-88.5 -54q54 -39 88.5 -74t54 -69.5t27 -71.5t7.5 -80q0 -62 -24 -120t-71 -102t-115.5 -71t-158.5 -27q-102 0 -174 24t-119 64.5
t-75.5 95t-43.5 113.5l144 50q14 -50 33.5 -87.5t49 -64.5t73.5 -41t106 -14q115 0 161 52t46 120q0 35 -12.5 66.5t-42 62t-78 65.5t-119.5 76q-101 57 -174.5 106.5t-121.5 96.5t-71.5 100t-23.5 121zM268 621q0 -41 13.5 -75t50.5 -69t100.5 -77t163.5 -101
q10 -4 20.5 -10t18.5 -10q98 45 150.5 104t52.5 131q0 41 -13.5 75t-50.5 68.5t-100.5 76.5t-163.5 102q-10 4 -20.5 10t-20.5 10q-92 -43 -146.5 -103.5t-54.5 -131.5z" />
    <glyph glyph-name="dieresis" unicode="&#xa8;" horiz-adv-x="1044" 
d="M244 1194v192h180v-192h-180zM616 1194v192h183v-192h-183z" />
    <glyph glyph-name="copyright" unicode="&#xa9;" horiz-adv-x="1769" 
d="M102 756q0 164 60.5 308t167 250.5t249 168t308.5 61.5q164 0 306 -61.5t247.5 -167t166 -248.5t60.5 -307t-60.5 -308.5t-167 -251t-248.5 -168t-306 -61.5q-166 0 -308.5 61.5t-248 167t-166 249t-60.5 307.5zM205 760q0 -146 52 -272t144.5 -220t217 -148t268.5 -54
q143 0 267 54t215 147t143.5 219t52.5 270q0 143 -52.5 270t-144.5 221t-216 148.5t-267 54.5q-144 0 -267.5 -54.5t-216 -147.5t-144.5 -219t-52 -269zM520 770q0 98 25.5 180t73 140.5t114 91t150.5 32.5q135 0 211.5 -71.5t109.5 -200.5l-110 -29q-29 97 -76 147t-135 50
q-111 0 -175.5 -93t-64.5 -247q0 -160 64.5 -252t177.5 -92q164 0 217 209q31 -8 53 -14q21 -7 39 -11t23 -4q-35 -135 -118 -212t-218 -77q-82 0 -148.5 32t-114 91.5t-73 143.5t-25.5 186z" />
    <glyph glyph-name="ordfeminine" unicode="&#xaa;" horiz-adv-x="862" 
d="M100 946q0 58 27 108t86 90t155.5 69.5t237.5 48.5v32q0 138 -137 138q-86 0 -148.5 -30t-121.5 -83l-76 76q70 65 153.5 105t206.5 40q135 0 196.5 -66.5t61.5 -187.5v-330q0 -65 5.5 -109t21.5 -79h-143q-17 49 -19 102q-61 -55 -132 -86.5t-152 -31.5
q-103 0 -162.5 51t-59.5 143zM236 965q0 -52 32.5 -77.5t87.5 -25.5q76 0 137.5 31t112.5 78v205q-110 -17 -183 -39.5t-114 -49t-57 -58.5t-16 -64z" />
    <glyph glyph-name="guillemotleft" unicode="&#xab;" horiz-adv-x="1110" 
d="M84 543l309 538h178l-301 -538l301 -543h-178zM512 543l313 538h176l-305 -538l305 -543h-176z" />
    <glyph glyph-name="logicalnot" unicode="&#xac;" horiz-adv-x="1296" 
d="M135 618v142h1026v-592h-145v450h-881z" />
    <glyph glyph-name="uni00AD" unicode="&#xad;" horiz-adv-x="731" 
d="M127 573v140h477v-140h-477z" />
    <glyph glyph-name="registered" unicode="&#xae;" horiz-adv-x="915" 
d="M130 1221q0 69 25.5 129t69.5 104t104.5 69.5t129.5 25.5t128.5 -25t104 -69t69.5 -104t25 -129t-25.5 -129.5t-70 -105t-104.5 -70t-129 -25.5t-129 25.5t-104 69.5t-69 104.5t-25 129.5zM187 1222q0 -57 21 -107t57.5 -87t86 -58.5t107.5 -21.5q57 0 106 21t85 58
t56.5 87t20.5 107t-21 107t-57 87t-85.5 58t-106.5 21t-106.5 -21t-85.5 -57.5t-57 -86.5t-21 -107zM334 1036v370h136q66 0 102 -28t36 -84q0 -44 -22.5 -70t-60.5 -38q9 -12 20.5 -32.5t24.5 -42t24.5 -42t20.5 -33.5h-75l-85 143h-53v-143h-68zM402 1236h64q35 0 55 13
t20 43q0 52 -73 52h-66v-108z" />
    <glyph glyph-name="macron" unicode="&#xaf;" horiz-adv-x="1024" 
d="M236 1194v141h552v-141h-552z" />
    <glyph glyph-name="degree" unicode="&#xb0;" horiz-adv-x="829" 
d="M117 1249q0 64 22.5 118t62.5 93t94 60.5t120 21.5q63 0 117.5 -21.5t94.5 -60.5t62.5 -93t22.5 -118q0 -63 -22.5 -117.5t-62.5 -93.5t-94.5 -61.5t-117.5 -22.5q-66 0 -120 22.5t-94 61.5t-62.5 93.5t-22.5 117.5zM236 1249q0 -86 51 -138t129 -52t128 52t50 138
t-50 137.5t-128 51.5t-129 -51.5t-51 -137.5z" />
    <glyph glyph-name="plusminus" unicode="&#xb1;" horiz-adv-x="1307" 
d="M135 90v139h445v426h-445v146h445v450h149v-450h445v-146h-445v-426h445v-139h-1039z" />
    <glyph glyph-name="uni00B2" unicode="&#xb2;" horiz-adv-x="926" 
d="M135 565v43q0 51 12.5 101.5t46 102.5t94 106.5t154.5 113.5q52 33 86.5 59.5t57 52t33 53.5t10.5 63q0 65 -39 106t-117 41q-65 0 -118.5 -39t-98.5 -125l-113 70q117 223 334 223q144 0 220.5 -76t76.5 -198q0 -48 -12 -88.5t-41 -79.5t-77 -78t-118 -82
q-110 -68 -162.5 -127t-62.5 -111h477v-131h-643z" />
    <glyph glyph-name="uni00B3" unicode="&#xb3;" horiz-adv-x="926" 
d="M111 745l102 80q53 -84 113.5 -115.5t126.5 -31.5q94 0 142 44t48 116q0 88 -58.5 132t-199.5 44h-57v112h63q127 0 180.5 37t53.5 111q0 57 -38 95t-124 38q-121 0 -219 -115l-94 86q65 76 144 117t177 41q78 0 135.5 -20.5t94 -54.5t55 -79t18.5 -96q0 -74 -39 -130
t-119 -83q97 -29 139 -88t42 -147q0 -129 -91.5 -209t-246.5 -80q-111 0 -200 49t-148 147z" />
    <glyph glyph-name="acute" unicode="&#xb4;" horiz-adv-x="1024" 
d="M338 1198l192 324h215l-290 -324h-117z" />
    <glyph glyph-name="uni00B5" unicode="&#xb5;" horiz-adv-x="1214" 
d="M156 -410v1491h176v-743q0 -107 48 -160t152 -53q99 0 182 47t169 127v782h176v-1081h-176v174q-74 -72 -163 -127t-200 -61q-59 -2 -106 10t-82 49v-455h-176z" />
    <glyph glyph-name="paragraph" unicode="&#xb6;" horiz-adv-x="1276" 
d="M119 1096q0 88 30.5 164.5t90 134t146.5 89.5t202 32h514v-1926h-139v1782h-205v-1782h-142v1092q-241 4 -369 107.5t-128 306.5z" />
    <glyph glyph-name="periodcentered" unicode="&#xb7;" horiz-adv-x="559" 
d="M172 551v215h215v-215h-215z" />
    <glyph glyph-name="cedilla" unicode="&#xb8;" horiz-adv-x="1024" 
d="M256 -328l41 68q47 -31 99.5 -46.5t105.5 -15.5q73 0 107 25t34 68q0 69 -82 69q-33 0 -56.5 -12t-45.5 -29l-64 31l54 170h96l-31 -106q23 14 50.5 22t64.5 8q57 0 101 -35.5t44 -103.5q0 -96 -74.5 -141t-181.5 -45q-74 0 -141.5 19.5t-120.5 53.5z" />
    <glyph glyph-name="uni00B9" unicode="&#xb9;" horiz-adv-x="729" 
d="M156 565v125h174v682q-35 -16 -80 -25.5t-90 -9.5v119q59 2 105 15.5t75 44.5h139v-826h158v-125h-481z" />
    <glyph glyph-name="ordmasculine" unicode="&#xba;" horiz-adv-x="893" 
d="M88 1145q0 100 29.5 174t79 123t114 73.5t135.5 24.5q70 0 135.5 -24.5t114.5 -73.5t79 -123t30 -174q0 -98 -30 -172t-79 -123t-114.5 -73.5t-135.5 -24.5q-71 0 -135.5 24.5t-114 73.5t-79 123t-29.5 172zM225 1147q0 -57 13.5 -109.5t41 -91.5t68.5 -62.5t98 -23.5
q107 0 164.5 82t57.5 205q0 57 -13.5 108.5t-41 91t-69.5 63.5t-98 24q-106 0 -163.5 -82t-57.5 -205z" />
    <glyph glyph-name="guillemotright" unicode="&#xbb;" horiz-adv-x="1110" 
d="M109 0l303 543l-303 538h178l311 -538l-311 -543h-178zM539 0l303 543l-303 538h176l311 -538l-311 -543h-176z" />
    <glyph glyph-name="onequarter" unicode="&#xbc;" horiz-adv-x="1962" 
d="M190 565v127h170v664q-34 -15 -77 -22t-88 -7v129q65 2 109 15.5t73 44.5h133v-824h154v-127h-474zM471 0l907 1516h160l-907 -1516h-160zM1102 223v99l424 632h162v-604h153v-127h-153v-223h-150v223h-436zM1262 344h282v426z" />
    <glyph glyph-name="onehalf" unicode="&#xbd;" horiz-adv-x="2038" 
d="M190 565v127h170v664q-34 -15 -77 -22t-88 -7v129q65 2 109 15.5t73 44.5h133v-824h154v-127h-474zM471 0l907 1516h160l-907 -1516h-160zM1245 0v43q0 51 13.5 101.5t47 102.5t94 106.5t154.5 113.5q95 61 139 109.5t44 117.5q0 66 -39 107t-115 41q-65 0 -118.5 -39
t-98.5 -125l-113 70q117 223 334 223q142 0 219.5 -76t77.5 -199q0 -47 -12 -88t-41 -80t-76 -77.5t-117 -81.5q-106 -66 -160.5 -126.5t-62.5 -111.5h475v-131h-645z" />
    <glyph glyph-name="threequarters" unicode="&#xbe;" horiz-adv-x="2021" 
d="M111 745l102 80q53 -84 113.5 -115.5t126.5 -31.5q94 0 142 44t48 116q0 88 -58.5 132t-199.5 44h-57v112h63q127 0 180.5 37t53.5 111q0 57 -38 95t-124 38q-121 0 -219 -115l-94 86q65 76 144 117t177 41q78 0 135.5 -20.5t94 -54.5t55 -79t18.5 -96q0 -74 -39 -130
t-119 -83q97 -29 139 -88t42 -147q0 -129 -91.5 -209t-246.5 -80q-111 0 -200 49t-148 147zM532 0l906 1516h159l-905 -1516h-160zM1161 223v99l424 632h162v-604h154v-127h-154v-223h-150v223h-436zM1321 344h283v426z" />
    <glyph glyph-name="questiondown" unicode="&#xbf;" horiz-adv-x="1124" 
d="M102 342q0 74 20.5 129t55.5 99t82 79t100 66q66 37 103 69.5t55.5 73.5t22.5 95.5t4 138.5h143q6 -66 6 -138q0 -110 -45 -182t-143 -131q-60 -35 -102 -64.5t-69.5 -61.5t-40.5 -70.5t-13 -92.5q0 -104 74.5 -162.5t207.5 -58.5q127 0 214 56.5t151 140.5l121 -101
q-43 -55 -93.5 -101t-111 -81t-133 -54.5t-160.5 -19.5q-105 0 -187.5 28t-141 77t-89.5 116.5t-31 149.5zM512 1305v211h209v-211h-209z" />
    <glyph glyph-name="Agrave" unicode="&#xc0;" horiz-adv-x="1393" 
d="M66 0zM66 0l536 1522h189l536 -1522h-186l-150 434h-602l-149 -434h-174zM444 592h492l-242 711h-4zM353 1936h215l192 -324h-117z" />
    <glyph glyph-name="Aacute" unicode="&#xc1;" horiz-adv-x="1393" 
d="M66 0zM66 0l536 1522h189l536 -1522h-186l-150 434h-602l-149 -434h-174zM444 592h492l-242 711h-4zM633 1612l192 324h215l-290 -324h-117z" />
    <glyph glyph-name="Acircumflex" unicode="&#xc2;" horiz-adv-x="1393" 
d="M66 0zM66 0l536 1522h189l536 -1522h-186l-150 434h-602l-149 -434h-174zM444 592h492l-242 711h-4zM365 1606l264 330h129l264 -330h-106l-224 192l-221 -192h-106z" />
    <glyph glyph-name="Atilde" unicode="&#xc3;" horiz-adv-x="1393" 
d="M66 0zM66 0l536 1522h189l536 -1522h-186l-150 434h-602l-149 -434h-174zM444 592h492l-242 711h-4zM356 1606q0 129 48 186.5t141 57.5q45 0 86 -18.5t77.5 -40t70.5 -39t67 -17.5q43 0 63.5 25.5t20.5 85.5h104q0 -127 -48 -185.5t-138 -58.5q-45 0 -86 17.5t-78 39
t-71 40t-64 18.5q-45 0 -64.5 -26t-19.5 -85h-109z" />
    <glyph glyph-name="Adieresis" unicode="&#xc4;" horiz-adv-x="1393" 
d="M66 0zM66 0l536 1522h189l536 -1522h-186l-150 434h-602l-149 -434h-174zM444 592h492l-242 711h-4zM416 1608v192h180v-192h-180zM788 1608v192h183v-192h-183z" />
    <glyph glyph-name="Aring" unicode="&#xc5;" horiz-adv-x="1393" 
d="M66 0l520 1477q-39 24 -61.5 66t-22.5 95q0 82 54 136.5t140 54.5t140.5 -54.5t54.5 -136.5q0 -53 -22.5 -95t-61.5 -66l520 -1477h-186l-150 434h-602l-149 -434h-174zM444 592h492l-242 711h-4zM590 1638q0 -49 29.5 -80.5t76.5 -31.5t77 31.5t30 80.5q0 48 -30 79.5
t-77 31.5t-76.5 -31.5t-29.5 -79.5z" />
    <glyph glyph-name="AE" unicode="&#xc6;" horiz-adv-x="2068" 
d="M51 0l862 1516h1022v-166h-747v-473h555v-162h-555v-551h790v-164h-968v467h-512l-265 -467h-182zM588 627h422v741h-2z" />
    <glyph glyph-name="Ccedilla" unicode="&#xc7;" horiz-adv-x="1444" 
d="M113 764q0 176 47 319.5t132 246t203.5 158.5t260.5 56q121 0 214 -33.5t161.5 -94t113.5 -146.5t72 -191l-172 -47q-49 174 -137 266.5t-254 92.5q-107 0 -192 -45.5t-144.5 -127t-91 -196.5t-31.5 -256q0 -152 32.5 -270.5t93 -201.5t145.5 -127t192 -44q162 0 263 96
t148 283l170 -39q-53 -223 -193 -354.5t-370 -137.5l-24 -77q22 14 49.5 22t64.5 8q60 0 103 -35.5t43 -103.5q0 -96 -75 -141t-179 -45q-74 0 -142.5 19.5t-121.5 53.5l43 68q47 -31 98 -46.5t104 -15.5q74 0 108 25t34 68q0 69 -82 69q-31 0 -55.5 -12t-47.5 -29l-61 31
l43 145q-129 15 -233.5 75.5t-178 161.5t-113.5 240.5t-40 311.5z" />
    <glyph glyph-name="Egrave" unicode="&#xc8;" horiz-adv-x="1247" 
d="M186 0zM186 0v1516h930v-166h-749v-473h557v-162h-557v-551h792v-164h-973zM349 1936h215l192 -324h-117z" />
    <glyph glyph-name="Eacute" unicode="&#xc9;" horiz-adv-x="1247" 
d="M186 0zM186 0v1516h930v-166h-749v-473h557v-162h-557v-551h792v-164h-973zM545 1612l192 324h215l-290 -324h-117z" />
    <glyph glyph-name="Ecircumflex" unicode="&#xca;" horiz-adv-x="1247" 
d="M186 0zM186 0v1516h930v-166h-749v-473h557v-162h-557v-551h792v-164h-973zM320 1606l264 330h129l264 -330h-106l-224 192l-221 -192h-106z" />
    <glyph glyph-name="Edieresis" unicode="&#xcb;" horiz-adv-x="1247" 
d="M186 0zM186 0v1516h930v-166h-749v-473h557v-162h-557v-551h792v-164h-973zM381 1608v192h180v-192h-180zM753 1608v192h183v-192h-183z" />
    <glyph glyph-name="Igrave" unicode="&#xcc;" horiz-adv-x="594" 
d="M0 0zM207 0v1516h180v-1516h-180zM-33 1936h215l192 -324h-117z" />
    <glyph glyph-name="Iacute" unicode="&#xcd;" horiz-adv-x="594" 
d="M207 0zM207 0v1516h180v-1516h-180zM239 1612l192 324h215l-290 -324h-117z" />
    <glyph glyph-name="Icircumflex" unicode="&#xce;" horiz-adv-x="594" 
d="M0 0zM207 0v1516h180v-1516h-180zM-31 1606l264 330h129l264 -330h-106l-224 192l-221 -192h-106z" />
    <glyph glyph-name="Idieresis" unicode="&#xcf;" horiz-adv-x="594" 
d="M20 0zM207 0v1516h180v-1516h-180zM20 1608v192h180v-192h-180zM392 1608v192h183v-192h-183z" />
    <glyph glyph-name="Eth" unicode="&#xd0;" horiz-adv-x="1464" 
d="M23 721v147h163v648h400q182 0 324.5 -46.5t239.5 -140.5t148.5 -236.5t51.5 -334.5q0 -191 -51.5 -333t-149.5 -236.5t-240.5 -141.5t-322.5 -47h-400v721h-163zM367 162h241q275 0 418 141t143 459q0 305 -144 446.5t-421 141.5h-237v-482h323v-147h-323v-559z" />
    <glyph glyph-name="Ntilde" unicode="&#xd1;" horiz-adv-x="1534" 
d="M186 0zM186 0v1516h191l797 -1199h4v1199h170v-1516h-162l-826 1231h-4v-1231h-170zM444 1606q0 129 48 186.5t141 57.5q45 0 86 -18.5t77.5 -40t70.5 -39t67 -17.5q43 0 63.5 25.5t20.5 85.5h104q0 -127 -48 -185.5t-138 -58.5q-45 0 -86 17.5t-78 39t-71 40t-64 18.5
q-45 0 -64.5 -26t-19.5 -85h-109z" />
    <glyph glyph-name="Ograve" unicode="&#xd2;" horiz-adv-x="1534" 
d="M113 0zM113 758q0 182 50 328.5t137 248t207 155.5t261 54t260 -54t206 -155.5t136 -248t49 -328.5q0 -183 -49 -329t-136 -247.5t-206 -156t-260 -54.5t-261 54.5t-207 156t-137 247.5t-50 329zM295 758q0 -148 35 -264.5t97 -196.5t149.5 -122t191.5 -42q102 0 189 42
t149.5 122t97.5 196.5t35 264.5q0 147 -35 263t-97.5 195.5t-149.5 121.5t-189 42q-104 0 -191.5 -42t-149.5 -121.5t-97 -195.5t-35 -263zM443 1936h215l192 -324h-117z" />
    <glyph glyph-name="Oacute" unicode="&#xd3;" horiz-adv-x="1534" 
d="M113 0zM113 758q0 182 50 328.5t137 248t207 155.5t261 54t260 -54t206 -155.5t136 -248t49 -328.5q0 -183 -49 -329t-136 -247.5t-206 -156t-260 -54.5t-261 54.5t-207 156t-137 247.5t-50 329zM295 758q0 -148 35 -264.5t97 -196.5t149.5 -122t191.5 -42q102 0 189 42
t149.5 122t97.5 196.5t35 264.5q0 147 -35 263t-97.5 195.5t-149.5 121.5t-189 42q-104 0 -191.5 -42t-149.5 -121.5t-97 -195.5t-35 -263zM674 1612l192 324h215l-290 -324h-117z" />
    <glyph glyph-name="Ocircumflex" unicode="&#xd4;" horiz-adv-x="1534" 
d="M113 0zM113 758q0 182 50 328.5t137 248t207 155.5t261 54t260 -54t206 -155.5t136 -248t49 -328.5q0 -183 -49 -329t-136 -247.5t-206 -156t-260 -54.5t-261 54.5t-207 156t-137 247.5t-50 329zM295 758q0 -148 35 -264.5t97 -196.5t149.5 -122t191.5 -42q102 0 189 42
t149.5 122t97.5 196.5t35 264.5q0 147 -35 263t-97.5 195.5t-149.5 121.5t-189 42q-104 0 -191.5 -42t-149.5 -121.5t-97 -195.5t-35 -263zM437 1606l264 330h129l264 -330h-106l-224 192l-221 -192h-106z" />
    <glyph glyph-name="Otilde" unicode="&#xd5;" horiz-adv-x="1534" 
d="M113 0zM113 758q0 182 50 328.5t137 248t207 155.5t261 54t260 -54t206 -155.5t136 -248t49 -328.5q0 -183 -49 -329t-136 -247.5t-206 -156t-260 -54.5t-261 54.5t-207 156t-137 247.5t-50 329zM295 758q0 -148 35 -264.5t97 -196.5t149.5 -122t191.5 -42q102 0 189 42
t149.5 122t97.5 196.5t35 264.5q0 147 -35 263t-97.5 195.5t-149.5 121.5t-189 42q-104 0 -191.5 -42t-149.5 -121.5t-97 -195.5t-35 -263zM424 1606q0 129 48 186.5t141 57.5q45 0 86 -18.5t77.5 -40t70.5 -39t67 -17.5q43 0 63.5 25.5t20.5 85.5h104q0 -127 -48 -185.5
t-138 -58.5q-45 0 -86 17.5t-78 39t-71 40t-64 18.5q-45 0 -64.5 -26t-19.5 -85h-109z" />
    <glyph glyph-name="Odieresis" unicode="&#xd6;" horiz-adv-x="1534" 
d="M113 0zM113 758q0 182 50 328.5t137 248t207 155.5t261 54t260 -54t206 -155.5t136 -248t49 -328.5q0 -183 -49 -329t-136 -247.5t-206 -156t-260 -54.5t-261 54.5t-207 156t-137 247.5t-50 329zM295 758q0 -148 35 -264.5t97 -196.5t149.5 -122t191.5 -42q102 0 189 42
t149.5 122t97.5 196.5t35 264.5q0 147 -35 263t-97.5 195.5t-149.5 121.5t-189 42q-104 0 -191.5 -42t-149.5 -121.5t-97 -195.5t-35 -263zM486 1608v192h180v-192h-180zM858 1608v192h183v-192h-183z" />
    <glyph glyph-name="multiply" unicode="&#xd7;" horiz-adv-x="1307" 
d="M201 305l346 346l-346 346l104 105l346 -348l346 348l105 -105l-346 -346l348 -346l-105 -104l-346 348l-348 -350z" />
    <glyph glyph-name="Oslash" unicode="&#xd8;" horiz-adv-x="1534" 
d="M113 758q0 182 50 328.5t137 248t207 155.5t261 54q121 0 225.5 -40t186.5 -115l135 167l98 -73l-147 -189q71 -100 112 -235t41 -301q0 -183 -49 -329t-136 -247.5t-206 -156t-260 -54.5q-121 0 -225.5 40t-190.5 116l-133 -168l-100 74l149 188q-73 101 -114 236
t-41 301zM291 758q0 -123 23.5 -223.5t68.5 -178.5l694 897q-121 131 -309 131q-104 0 -192.5 -42t-151 -122.5t-98 -197.5t-35.5 -264zM453 262q127 -133 315 -133q104 0 190 43t149.5 124t98.5 197.5t35 264.5q0 123 -23.5 222t-68.5 177z" />
    <glyph glyph-name="Ugrave" unicode="&#xd9;" horiz-adv-x="1468" 
d="M172 0zM172 524v992h180v-967q0 -92 22.5 -168t70 -130t120 -85t172.5 -31q199 0 290 112.5t91 297.5v971h178v-988q0 -118 -34.5 -219.5t-105.5 -176.5t-175 -117t-246 -42q-145 0 -251.5 42t-176 116t-102.5 175.5t-33 217.5zM420 1936h215l192 -324h-117z" />
    <glyph glyph-name="Uacute" unicode="&#xda;" horiz-adv-x="1468" 
d="M172 0zM172 524v992h180v-967q0 -92 22.5 -168t70 -130t120 -85t172.5 -31q199 0 290 112.5t91 297.5v971h178v-988q0 -118 -34.5 -219.5t-105.5 -176.5t-175 -117t-246 -42q-145 0 -251.5 42t-176 116t-102.5 175.5t-33 217.5zM625 1612l192 324h215l-290 -324h-117z
" />
    <glyph glyph-name="Ucircumflex" unicode="&#xdb;" horiz-adv-x="1468" 
d="M172 0zM172 524v992h180v-967q0 -92 22.5 -168t70 -130t120 -85t172.5 -31q199 0 290 112.5t91 297.5v971h178v-988q0 -118 -34.5 -219.5t-105.5 -176.5t-175 -117t-246 -42q-145 0 -251.5 42t-176 116t-102.5 175.5t-33 217.5zM404 1606l264 330h129l264 -330h-106
l-224 192l-221 -192h-106z" />
    <glyph glyph-name="Udieresis" unicode="&#xdc;" horiz-adv-x="1468" 
d="M172 0zM172 524v992h180v-967q0 -92 22.5 -168t70 -130t120 -85t172.5 -31q199 0 290 112.5t91 297.5v971h178v-988q0 -118 -34.5 -219.5t-105.5 -176.5t-175 -117t-246 -42q-145 0 -251.5 42t-176 116t-102.5 175.5t-33 217.5zM455 1608v192h180v-192h-180zM827 1608
v192h183v-192h-183z" />
    <glyph glyph-name="Yacute" unicode="&#xdd;" horiz-adv-x="1292" 
d="M45 0zM45 1516h193l411 -699l410 699h188l-512 -852v-664h-180v664zM475 1626l192 324h215l-290 -324h-117z" />
    <glyph glyph-name="Thorn" unicode="&#xde;" horiz-adv-x="1337" 
d="M186 0v1516h181v-277h331q123 0 223.5 -25.5t173 -78t112.5 -134t40 -194.5q0 -123 -43 -208t-118.5 -138t-178 -78t-221.5 -25h-319v-358h-181zM367 522h327q183 0 277 62.5t94 216.5q0 147 -93 208.5t-280 61.5h-325v-549z" />
    <glyph glyph-name="germandbls" unicode="&#xdf;" horiz-adv-x="1282" 
d="M156 0v1044q0 234 125 353t337 119q199 0 317 -92.5t118 -266.5q0 -119 -71 -199.5t-194 -115.5q80 -11 153 -39.5t128 -78.5t88 -125t33 -175q0 -207 -109.5 -327t-298.5 -120q-116 0 -197 35t-128 88l96 107q45 -41 98.5 -64.5t128.5 -23.5q111 0 177.5 80t66.5 217
q0 94 -33 158.5t-94 104.5t-149.5 60.5t-198.5 24.5v133q180 2 258 72.5t78 177.5q0 106 -72 162.5t-199 56.5q-137 0 -209.5 -77t-72.5 -236v-1053h-176z" />
    <glyph glyph-name="agrave" unicode="&#xe0;" horiz-adv-x="1133" 
d="M90 0zM90 256q0 82 38 151.5t123 127t223 100.5t339 72v49q0 200 -205 200q-123 0 -217 -47t-174 -116l-92 110q94 86 217 143.5t285 57.5q96 0 164.5 -24.5t111.5 -70.5t63.5 -114t20.5 -152v-477q0 -98 7 -161.5t24 -104.5h-180q-11 35 -18 68.5t-7 81.5
q-178 -166 -418 -166q-141 0 -223 70.5t-82 201.5zM264 283q0 -78 48 -119t134 -41q109 0 200 42t167 116v303q-154 -25 -259 -55.5t-170 -68.5t-92.5 -82t-27.5 -95zM276 1522h215l192 -324h-117z" />
    <glyph glyph-name="aacute" unicode="&#xe1;" horiz-adv-x="1133" 
d="M90 0zM90 256q0 82 38 151.5t123 127t223 100.5t339 72v49q0 200 -205 200q-123 0 -217 -47t-174 -116l-92 110q94 86 217 143.5t285 57.5q96 0 164.5 -24.5t111.5 -70.5t63.5 -114t20.5 -152v-477q0 -98 7 -161.5t24 -104.5h-180q-11 35 -18 68.5t-7 81.5
q-178 -166 -418 -166q-141 0 -223 70.5t-82 201.5zM264 283q0 -78 48 -119t134 -41q109 0 200 42t167 116v303q-154 -25 -259 -55.5t-170 -68.5t-92.5 -82t-27.5 -95zM485 1198l192 324h215l-290 -324h-117z" />
    <glyph glyph-name="acircumflex" unicode="&#xe2;" horiz-adv-x="1133" 
d="M90 0zM90 256q0 82 38 151.5t123 127t223 100.5t339 72v49q0 200 -205 200q-123 0 -217 -47t-174 -116l-92 110q94 86 217 143.5t285 57.5q96 0 164.5 -24.5t111.5 -70.5t63.5 -114t20.5 -152v-477q0 -98 7 -161.5t24 -104.5h-180q-11 35 -18 68.5t-7 81.5
q-178 -166 -418 -166q-141 0 -223 70.5t-82 201.5zM264 283q0 -78 48 -119t134 -41q109 0 200 42t167 116v303q-154 -25 -259 -55.5t-170 -68.5t-92.5 -82t-27.5 -95zM248 1192l264 330h129l264 -330h-106l-224 192l-221 -192h-106z" />
    <glyph glyph-name="atilde" unicode="&#xe3;" horiz-adv-x="1133" 
d="M90 0zM90 256q0 82 38 151.5t123 127t223 100.5t339 72v49q0 200 -205 200q-123 0 -217 -47t-174 -116l-92 110q94 86 217 143.5t285 57.5q96 0 164.5 -24.5t111.5 -70.5t63.5 -114t20.5 -152v-477q0 -98 7 -161.5t24 -104.5h-180q-11 35 -18 68.5t-7 81.5
q-178 -166 -418 -166q-141 0 -223 70.5t-82 201.5zM264 283q0 -78 48 -119t134 -41q109 0 200 42t167 116v303q-154 -25 -259 -55.5t-170 -68.5t-92.5 -82t-27.5 -95zM233 1192q0 129 48 186.5t141 57.5q45 0 86 -18.5t77.5 -40t70.5 -39t67 -17.5q43 0 63.5 25.5t20.5 85.5
h104q0 -127 -48 -185.5t-138 -58.5q-45 0 -86 17.5t-78 39t-71 40t-64 18.5q-45 0 -64.5 -26t-19.5 -85h-109z" />
    <glyph glyph-name="adieresis" unicode="&#xe4;" horiz-adv-x="1133" 
d="M90 0zM90 256q0 82 38 151.5t123 127t223 100.5t339 72v49q0 200 -205 200q-123 0 -217 -47t-174 -116l-92 110q94 86 217 143.5t285 57.5q96 0 164.5 -24.5t111.5 -70.5t63.5 -114t20.5 -152v-477q0 -98 7 -161.5t24 -104.5h-180q-11 35 -18 68.5t-7 81.5
q-178 -166 -418 -166q-141 0 -223 70.5t-82 201.5zM264 283q0 -78 48 -119t134 -41q109 0 200 42t167 116v303q-154 -25 -259 -55.5t-170 -68.5t-92.5 -82t-27.5 -95zM310 1194v192h180v-192h-180zM682 1194v192h183v-192h-183z" />
    <glyph glyph-name="aring" unicode="&#xe5;" horiz-adv-x="1133" 
d="M90 0zM90 256q0 82 38 151.5t123 127t223 100.5t339 72v49q0 200 -205 200q-123 0 -217 -47t-174 -116l-92 110q94 86 217 143.5t285 57.5q96 0 164.5 -24.5t111.5 -70.5t63.5 -114t20.5 -152v-477q0 -98 7 -161.5t24 -104.5h-180q-11 35 -18 68.5t-7 81.5
q-178 -166 -418 -166q-141 0 -223 70.5t-82 201.5zM264 283q0 -78 48 -119t134 -41q109 0 200 42t167 116v303q-154 -25 -259 -55.5t-170 -68.5t-92.5 -82t-27.5 -95zM395 1376q0 82 54.5 136.5t140.5 54.5t140.5 -54.5t54.5 -136.5q0 -84 -54.5 -139t-140.5 -55t-140.5 55
t-54.5 139zM483 1376q0 -49 30 -80.5t77 -31.5t76.5 31.5t29.5 80.5q0 47 -29.5 79t-76.5 32t-77 -32t-30 -79z" />
    <glyph glyph-name="ae" unicode="&#xe6;" horiz-adv-x="1831" 
d="M88 250q0 82 38 153.5t123 129t223 101.5t339 73v49q0 200 -205 200q-123 0 -217 -47t-174 -116l-90 110q94 86 216 143.5t284 57.5q143 0 212.5 -58.5t94.5 -148.5q51 88 144 147.5t208 59.5q92 0 174 -34t143.5 -104.5t97.5 -178t36 -255.5v-30h-762q2 -94 27.5 -165
t69.5 -119t102.5 -72.5t125.5 -24.5q115 0 189 46t135 130l102 -90q-75 -109 -180.5 -169.5t-259.5 -60.5q-125 0 -230.5 55.5t-170.5 174.5q-107 -111 -221.5 -170.5t-268.5 -59.5q-141 0 -223 72t-82 201zM262 276q0 -77 48 -117t134 -40q213 0 396 190q-31 88 -31 205v43
q0 21 2 31q-154 -25 -259.5 -57.5t-170 -72.5t-92 -85t-27.5 -97zM977 633h590q-11 145 -80.5 234t-204.5 89q-55 0 -105.5 -19t-92.5 -59t-70.5 -100.5t-36.5 -144.5z" />
    <glyph glyph-name="ccedilla" unicode="&#xe7;" horiz-adv-x="1102" 
d="M94 541q0 147 43 253.5t114 175t160 101.5t179 33q92 0 159.5 -24.5t119 -66.5t86 -97.5t59.5 -114.5l-150 -62q-43 113 -107.5 169.5t-170.5 56.5q-60 0 -115 -23.5t-100 -74t-72 -131.5t-27 -195q0 -201 86 -314.5t224 -113.5q104 0 170.5 55t119.5 174l146 -57
q-62 -133 -160 -216t-262 -89l-27 -86q23 14 50.5 22t64.5 8q59 0 102 -35.5t43 -103.5q0 -96 -74.5 -141t-179.5 -45q-73 0 -141.5 19.5t-122.5 53.5l43 68q47 -31 98.5 -46.5t104.5 -15.5q74 0 107.5 25t33.5 68q0 69 -82 69q-30 0 -54.5 -12t-47.5 -29l-61 31l45 156
q-82 12 -156 53t-129 110.5t-87 168t-32 223.5z" />
    <glyph glyph-name="egrave" unicode="&#xe8;" horiz-adv-x="1130" 
d="M94 0zM94 541q0 147 44 253.5t115 175t158 101.5t173 33q96 0 178 -34t142.5 -104.5t95 -178t34.5 -255.5v-36h-764q2 -93 29 -162.5t70 -116.5t101 -71.5t126 -24.5q117 0 190.5 45t135.5 131l102 -90q-76 -109 -181.5 -169.5t-258.5 -60.5q-97 0 -185 35t-155.5 105.5
t-108.5 176t-41 247.5zM274 633h592q-10 145 -79.5 234t-204.5 89q-56 0 -107 -19t-92 -59t-70.5 -100.5t-38.5 -144.5zM249 1522h215l192 -324h-117z" />
    <glyph glyph-name="eacute" unicode="&#xe9;" horiz-adv-x="1130" 
d="M94 0zM94 541q0 147 44 253.5t115 175t158 101.5t173 33q96 0 178 -34t142.5 -104.5t95 -178t34.5 -255.5v-36h-764q2 -93 29 -162.5t70 -116.5t101 -71.5t126 -24.5q117 0 190.5 45t135.5 131l102 -90q-76 -109 -181.5 -169.5t-258.5 -60.5q-97 0 -185 35t-155.5 105.5
t-108.5 176t-41 247.5zM274 633h592q-10 145 -79.5 234t-204.5 89q-56 0 -107 -19t-92 -59t-70.5 -100.5t-38.5 -144.5zM488 1198l192 324h215l-290 -324h-117z" />
    <glyph glyph-name="ecircumflex" unicode="&#xea;" horiz-adv-x="1130" 
d="M94 0zM94 541q0 147 44 253.5t115 175t158 101.5t173 33q96 0 178 -34t142.5 -104.5t95 -178t34.5 -255.5v-36h-764q2 -93 29 -162.5t70 -116.5t101 -71.5t126 -24.5q117 0 190.5 45t135.5 131l102 -90q-76 -109 -181.5 -169.5t-258.5 -60.5q-97 0 -185 35t-155.5 105.5
t-108.5 176t-41 247.5zM274 633h592q-10 145 -79.5 234t-204.5 89q-56 0 -107 -19t-92 -59t-70.5 -100.5t-38.5 -144.5zM248 1192l264 330h129l264 -330h-106l-224 192l-221 -192h-106z" />
    <glyph glyph-name="edieresis" unicode="&#xeb;" horiz-adv-x="1130" 
d="M94 0zM94 541q0 147 44 253.5t115 175t158 101.5t173 33q96 0 178 -34t142.5 -104.5t95 -178t34.5 -255.5v-36h-764q2 -93 29 -162.5t70 -116.5t101 -71.5t126 -24.5q117 0 190.5 45t135.5 131l102 -90q-76 -109 -181.5 -169.5t-258.5 -60.5q-97 0 -185 35t-155.5 105.5
t-108.5 176t-41 247.5zM274 633h592q-10 145 -79.5 234t-204.5 89q-56 0 -107 -19t-92 -59t-70.5 -100.5t-38.5 -144.5zM293 1194v192h180v-192h-180zM665 1194v192h183v-192h-183z" />
    <glyph glyph-name="igrave" unicode="&#xec;" horiz-adv-x="512" 
d="M0 0zM168 0v1081h176v-1081h-176zM-72 1522h215l192 -324h-117z" />
    <glyph glyph-name="iacute" unicode="&#xed;" horiz-adv-x="512" 
d="M168 0zM168 0v1081h176v-1081h-176zM206 1198l192 324h215l-290 -324h-117z" />
    <glyph glyph-name="icircumflex" unicode="&#xee;" horiz-adv-x="512" 
d="M0 0zM168 0v1081h176v-1081h-176zM-72 1192l264 330h129l264 -330h-106l-224 192l-221 -192h-106z" />
    <glyph glyph-name="idieresis" unicode="&#xef;" horiz-adv-x="512" 
d="M0 0zM168 0v1081h176v-1081h-176zM-21 1194v192h180v-192h-180zM351 1194v192h183v-192h-183z" />
    <glyph glyph-name="eth" unicode="&#xf0;" 
d="M96 520q0 129 37 228.5t101.5 166t150.5 101.5t184 35q97 0 188 -48.5t146 -130.5q-22 91 -61 179t-111 168l-211 -82l-53 110l176 68q-35 33 -71.5 59.5t-79.5 55.5l86 108q57 -33 109 -70.5t99 -83.5l199 80l51 -112l-164 -68q105 -131 165.5 -312t60.5 -433
q0 -131 -38 -234.5t-105.5 -176.5t-158.5 -112t-198 -39q-106 0 -198.5 38t-160 108t-105.5 170t-38 227zM272 522q0 -84 21.5 -157.5t62.5 -127t101.5 -84t140.5 -30.5q150 0 237 108.5t87 292.5q0 84 -22.5 156t-63.5 123t-101.5 79.5t-136.5 28.5q-152 0 -239 -103
t-87 -286z" />
    <glyph glyph-name="ntilde" unicode="&#xf1;" horiz-adv-x="1204" 
d="M156 0zM156 0v1081h178v-161q35 34 78 67t94 59.5t109.5 42t123.5 15.5q156 0 238 -85t82 -239v-780h-176v741q0 109 -47.5 160t-151.5 51q-98 0 -181 -47t-169 -127v-778h-178zM274 1192q0 129 48 186.5t141 57.5q45 0 86 -18.5t77.5 -40t70.5 -39t67 -17.5
q43 0 63.5 25.5t20.5 85.5h104q0 -127 -48 -185.5t-138 -58.5q-45 0 -86 17.5t-78 39t-71 40t-64 18.5q-45 0 -64.5 -26t-19.5 -85h-109z" />
    <glyph glyph-name="ograve" unicode="&#xf2;" 
d="M94 0zM94 541q0 139 41 244.5t110.5 176t161 106.5t191.5 36q98 0 189.5 -36t161 -106.5t110.5 -176t41 -244.5q0 -140 -41 -245.5t-110.5 -176t-161 -106.5t-189.5 -36t-189.5 36t-161 106.5t-111.5 176t-42 245.5zM272 541q0 -86 20.5 -162t60.5 -131t101.5 -88
t143.5 -33q76 0 136.5 29.5t102.5 84t63.5 131.5t21.5 169q0 84 -20.5 158.5t-60.5 131t-101.5 89t-141.5 32.5q-78 0 -138.5 -29.5t-102.5 -84t-63.5 -130t-21.5 -167.5zM274 1522h215l192 -324h-117z" />
    <glyph glyph-name="oacute" unicode="&#xf3;" 
d="M94 0zM94 541q0 139 41 244.5t110.5 176t161 106.5t191.5 36q98 0 189.5 -36t161 -106.5t110.5 -176t41 -244.5q0 -140 -41 -245.5t-110.5 -176t-161 -106.5t-189.5 -36t-189.5 36t-161 106.5t-111.5 176t-42 245.5zM272 541q0 -86 20.5 -162t60.5 -131t101.5 -88
t143.5 -33q76 0 136.5 29.5t102.5 84t63.5 131.5t21.5 169q0 84 -20.5 158.5t-60.5 131t-101.5 89t-141.5 32.5q-78 0 -138.5 -29.5t-102.5 -84t-63.5 -130t-21.5 -167.5zM508 1198l192 324h215l-290 -324h-117z" />
    <glyph glyph-name="ocircumflex" unicode="&#xf4;" 
d="M94 0zM94 541q0 139 41 244.5t110.5 176t161 106.5t191.5 36q98 0 189.5 -36t161 -106.5t110.5 -176t41 -244.5q0 -140 -41 -245.5t-110.5 -176t-161 -106.5t-189.5 -36t-189.5 36t-161 106.5t-111.5 176t-42 245.5zM272 541q0 -86 20.5 -162t60.5 -131t101.5 -88
t143.5 -33q76 0 136.5 29.5t102.5 84t63.5 131.5t21.5 169q0 84 -20.5 158.5t-60.5 131t-101.5 89t-141.5 32.5q-78 0 -138.5 -29.5t-102.5 -84t-63.5 -130t-21.5 -167.5zM267 1192l264 330h129l264 -330h-106l-224 192l-221 -192h-106z" />
    <glyph glyph-name="otilde" unicode="&#xf5;" 
d="M94 0zM94 541q0 139 41 244.5t110.5 176t161 106.5t191.5 36q98 0 189.5 -36t161 -106.5t110.5 -176t41 -244.5q0 -140 -41 -245.5t-110.5 -176t-161 -106.5t-189.5 -36t-189.5 36t-161 106.5t-111.5 176t-42 245.5zM272 541q0 -86 20.5 -162t60.5 -131t101.5 -88
t143.5 -33q76 0 136.5 29.5t102.5 84t63.5 131.5t21.5 169q0 84 -20.5 158.5t-60.5 131t-101.5 89t-141.5 32.5q-78 0 -138.5 -29.5t-102.5 -84t-63.5 -130t-21.5 -167.5zM260 1192q0 129 48 186.5t141 57.5q45 0 86 -18.5t77.5 -40t70.5 -39t67 -17.5q43 0 63.5 25.5
t20.5 85.5h104q0 -127 -48 -185.5t-138 -58.5q-45 0 -86 17.5t-78 39t-71 40t-64 18.5q-45 0 -64.5 -26t-19.5 -85h-109z" />
    <glyph glyph-name="odieresis" unicode="&#xf6;" 
d="M94 0zM94 541q0 139 41 244.5t110.5 176t161 106.5t191.5 36q98 0 189.5 -36t161 -106.5t110.5 -176t41 -244.5q0 -140 -41 -245.5t-110.5 -176t-161 -106.5t-189.5 -36t-189.5 36t-161 106.5t-111.5 176t-42 245.5zM272 541q0 -86 20.5 -162t60.5 -131t101.5 -88
t143.5 -33q76 0 136.5 29.5t102.5 84t63.5 131.5t21.5 169q0 84 -20.5 158.5t-60.5 131t-101.5 89t-141.5 32.5q-78 0 -138.5 -29.5t-102.5 -84t-63.5 -130t-21.5 -167.5zM316 1194v192h180v-192h-180zM688 1194v192h183v-192h-183z" />
    <glyph glyph-name="divide" unicode="&#xf7;" horiz-adv-x="1307" 
d="M135 608v148h1039v-148h-1039zM553 217v189h192v-189h-192zM553 956v189h192v-189h-192z" />
    <glyph glyph-name="oslash" unicode="&#xf8;" 
d="M94 541q0 139 41 244.5t110.5 176t161 106.5t191.5 36q164 0 291 -90l106 135l88 -74l-110 -139q59 -72 93 -169t34 -226q0 -140 -41 -245.5t-110.5 -176t-161 -106.5t-189.5 -36q-78 0 -152.5 23t-136.5 68l-110 -140l-86 74l112 141q-59 72 -95 170.5t-36 227.5z
M268 541q0 -76 15.5 -144.5t48.5 -126.5l463 617q-39 35 -88.5 53t-108.5 18q-78 0 -139.5 -30.5t-103.5 -86t-64.5 -132t-22.5 -168.5zM399 188q39 -32 89.5 -50.5t109.5 -18.5q78 0 138.5 30.5t102.5 87t64.5 134.5t22.5 170q0 73 -15.5 141t-46.5 121z" />
    <glyph glyph-name="ugrave" unicode="&#xf9;" horiz-adv-x="1204" 
d="M145 0zM145 301v780h177v-743q0 -109 47 -160t151 -51q98 0 181 47t169 127v780h179v-1081h-179v162q-34 -35 -77 -68t-94.5 -58.5t-110 -40.5t-123.5 -15q-156 0 -238 83.5t-82 237.5zM283 1522h215l192 -324h-117z" />
    <glyph glyph-name="uacute" unicode="&#xfa;" horiz-adv-x="1204" 
d="M145 0zM145 301v780h177v-743q0 -109 47 -160t151 -51q98 0 181 47t169 127v780h179v-1081h-179v162q-34 -35 -77 -68t-94.5 -58.5t-110 -40.5t-123.5 -15q-156 0 -238 83.5t-82 237.5zM504 1198l192 324h215l-290 -324h-117z" />
    <glyph glyph-name="ucircumflex" unicode="&#xfb;" horiz-adv-x="1204" 
d="M145 0zM145 301v780h177v-743q0 -109 47 -160t151 -51q98 0 181 47t169 127v780h179v-1081h-179v162q-34 -35 -77 -68t-94.5 -58.5t-110 -40.5t-123.5 -15q-156 0 -238 83.5t-82 237.5zM267 1192l264 330h129l264 -330h-106l-224 192l-221 -192h-106z" />
    <glyph glyph-name="udieresis" unicode="&#xfc;" horiz-adv-x="1204" 
d="M145 0zM145 301v780h177v-743q0 -109 47 -160t151 -51q98 0 181 47t169 127v780h179v-1081h-179v162q-34 -35 -77 -68t-94.5 -58.5t-110 -40.5t-123.5 -15q-156 0 -238 83.5t-82 237.5zM322 1194v192h180v-192h-180zM694 1194v192h183v-192h-183z" />
    <glyph glyph-name="yacute" unicode="&#xfd;" horiz-adv-x="1092" 
d="M14 0zM14 -389l41 141q23 -6 63 -12t97 -6q84 0 129 36.5t78 116.5l41 107l-418 1087h186l318 -874h4l317 874h179l-463 -1204q-29 -72 -59.5 -126t-73.5 -91t-99.5 -56.5t-136.5 -19.5q-72 0 -120 8.5t-83 18.5zM375 1198l192 324h215l-290 -324h-117z" />
    <glyph glyph-name="thorn" unicode="&#xfe;" horiz-adv-x="1227" 
d="M156 -410v1926h176v-584q61 67 147 119.5t209 52.5q92 0 173 -35t140.5 -104.5t93 -175t33.5 -246.5q0 -142 -34.5 -247.5t-96 -174t-145.5 -103t-182 -34.5q-101 0 -185 42t-153 113v-549h-176zM332 291q145 -164 313 -164q141 0 224 99.5t83 314.5q0 207 -87 309
t-218 102q-94 0 -171 -46t-144 -120v-495z" />
    <glyph glyph-name="ydieresis" unicode="&#xff;" horiz-adv-x="1092" 
d="M14 0zM14 -389l41 141q23 -6 63 -12t97 -6q84 0 129 36.5t78 116.5l41 107l-418 1087h186l318 -874h4l317 874h179l-463 -1204q-29 -72 -59.5 -126t-73.5 -91t-99.5 -56.5t-136.5 -19.5q-72 0 -120 8.5t-83 18.5zM271 1194v192h180v-192h-180zM643 1194v192h183v-192
h-183z" />
    <glyph glyph-name="Amacron" unicode="&#x100;" horiz-adv-x="1393" 
d="M66 0zM66 0l536 1522h189l536 -1522h-186l-150 434h-602l-149 -434h-174zM444 592h492l-242 711h-4zM418 1606v141h552v-141h-552z" />
    <glyph glyph-name="amacron" unicode="&#x101;" horiz-adv-x="1133" 
d="M90 0zM90 256q0 82 38 151.5t123 127t223 100.5t339 72v49q0 200 -205 200q-123 0 -217 -47t-174 -116l-92 110q94 86 217 143.5t285 57.5q96 0 164.5 -24.5t111.5 -70.5t63.5 -114t20.5 -152v-477q0 -98 7 -161.5t24 -104.5h-180q-11 35 -18 68.5t-7 81.5
q-178 -166 -418 -166q-141 0 -223 70.5t-82 201.5zM264 283q0 -78 48 -119t134 -41q109 0 200 42t167 116v303q-154 -25 -259 -55.5t-170 -68.5t-92.5 -82t-27.5 -95zM289 1194v141h552v-141h-552z" />
    <glyph glyph-name="Abreve" unicode="&#x102;" horiz-adv-x="1393" 
d="M66 0zM66 0l536 1522h189l536 -1522h-186l-150 434h-602l-149 -434h-174zM444 592h492l-242 711h-4zM377 1942h106q14 -119 69.5 -166t141.5 -47t141.5 47t69.5 166h106q-8 -156 -91 -250t-226 -94t-226 94t-91 250z" />
    <glyph glyph-name="abreve" unicode="&#x103;" horiz-adv-x="1133" 
d="M90 0zM90 256q0 82 38 151.5t123 127t223 100.5t339 72v49q0 200 -205 200q-123 0 -217 -47t-174 -116l-92 110q94 86 217 143.5t285 57.5q96 0 164.5 -24.5t111.5 -70.5t63.5 -114t20.5 -152v-477q0 -98 7 -161.5t24 -104.5h-180q-11 35 -18 68.5t-7 81.5
q-178 -166 -418 -166q-141 0 -223 70.5t-82 201.5zM264 283q0 -78 48 -119t134 -41q109 0 200 42t167 116v303q-154 -25 -259 -55.5t-170 -68.5t-92.5 -82t-27.5 -95zM248 1530h106q14 -119 69.5 -166t141.5 -47t141.5 47t69.5 166h106q-8 -156 -91 -250t-226 -94t-226 94
t-91 250z" />
    <glyph glyph-name="Aogonek" unicode="&#x104;" horiz-adv-x="1393" 
d="M66 0zM66 0l536 1522h189l536 -1522h-186l-150 434h-602l-149 -434h-174zM444 592h492l-242 711h-4zM972 -225q0 63 53.5 126.5t129.5 110.5h108q-73 -51 -113 -104t-40 -107q0 -41 23.5 -67.5t80.5 -26.5q53 0 98.5 13.5t92.5 35.5l36 -61q-63 -35 -130.5 -56.5
t-139.5 -21.5q-94 0 -146.5 42t-52.5 116z" />
    <glyph glyph-name="aogonek" unicode="&#x105;" horiz-adv-x="1133" 
d="M90 0zM90 256q0 82 38 151.5t123 127t223 100.5t339 72v49q0 200 -205 200q-123 0 -217 -47t-174 -116l-92 110q94 86 217 143.5t285 57.5q96 0 164.5 -24.5t111.5 -70.5t63.5 -114t20.5 -152v-477q0 -98 7 -161.5t24 -104.5h-180q-11 35 -18 68.5t-7 81.5
q-178 -166 -418 -166q-141 0 -223 70.5t-82 201.5zM264 283q0 -78 48 -119t134 -41q109 0 200 42t167 116v303q-154 -25 -259 -55.5t-170 -68.5t-92.5 -82t-27.5 -95zM669 -225q0 63 53.5 126.5t129.5 110.5h108q-73 -51 -113 -104t-40 -107q0 -41 23.5 -67.5t80.5 -26.5
q53 0 98.5 13.5t92.5 35.5l36 -61q-63 -35 -130.5 -56.5t-139.5 -21.5q-94 0 -146.5 42t-52.5 116z" />
    <glyph glyph-name="Cacute" unicode="&#x106;" horiz-adv-x="1444" 
d="M113 0zM619 1610l192 324h215l-290 -324h-117zM113 764q0 178 47 321.5t132 246t203.5 157.5t260.5 55q121 0 214 -33.5t161.5 -94t113.5 -146.5t72 -191l-172 -47q-49 174 -137 260t-254 86q-107 0 -192 -43t-144.5 -122.5t-91 -192.5t-31.5 -254q0 -303 125 -467
t338 -164q317 0 411 367l170 -39q-28 -113 -77.5 -203t-122 -154.5t-169 -99.5t-214.5 -35q-146 0 -263.5 54.5t-202.5 157t-131 249t-46 332.5z" />
    <glyph glyph-name="cacute" unicode="&#x107;" horiz-adv-x="1098" 
d="M94 0zM473 1198l192 324h215l-290 -324h-117zM94 541q0 147 43 253.5t114 175t160 101.5t179 33q92 0 159.5 -24.5t119 -66.5t86 -97.5t59.5 -114.5l-150 -62q-41 105 -106.5 160t-171.5 55q-60 0 -115 -21.5t-100 -70.5t-72 -128t-27 -193q0 -201 86 -308.5t224 -107.5
q104 0 170.5 49t119.5 168l146 -57q-31 -68 -72 -124.5t-94 -97t-120.5 -63.5t-156.5 -23q-94 0 -181 36t-153.5 106.5t-106.5 176t-40 245.5z" />
    <glyph glyph-name="Ccircumflex" unicode="&#x108;" horiz-adv-x="1444" 
d="M113 0zM420 1604l264 330h129l264 -330h-106l-224 192l-221 -192h-106zM113 764q0 178 47 321.5t132 246t203.5 157.5t260.5 55q121 0 214 -33.5t161.5 -94t113.5 -146.5t72 -191l-172 -47q-49 174 -137 260t-254 86q-107 0 -192 -43t-144.5 -122.5t-91 -192.5
t-31.5 -254q0 -303 125 -467t338 -164q317 0 411 367l170 -39q-28 -113 -77.5 -203t-122 -154.5t-169 -99.5t-214.5 -35q-146 0 -263.5 54.5t-202.5 157t-131 249t-46 332.5z" />
    <glyph glyph-name="ccircumflex" unicode="&#x109;" horiz-adv-x="1098" 
d="M94 0zM226 1192l264 330h129l264 -330h-106l-224 192l-221 -192h-106zM94 541q0 147 43 253.5t114 175t160 101.5t179 33q92 0 159.5 -24.5t119 -66.5t86 -97.5t59.5 -114.5l-150 -62q-41 105 -106.5 160t-171.5 55q-60 0 -115 -21.5t-100 -70.5t-72 -128t-27 -193
q0 -201 86 -308.5t224 -107.5q104 0 170.5 49t119.5 168l146 -57q-31 -68 -72 -124.5t-94 -97t-120.5 -63.5t-156.5 -23q-94 0 -181 36t-153.5 106.5t-106.5 176t-40 245.5z" />
    <glyph glyph-name="Cdotaccent" unicode="&#x10a;" horiz-adv-x="1444" 
d="M113 0zM113 764q0 178 47 321.5t132 246t203.5 157.5t260.5 55q121 0 214 -33.5t161.5 -94t113.5 -146.5t72 -191l-172 -47q-49 174 -137 260t-254 86q-107 0 -192 -43t-144.5 -122.5t-91 -192.5t-31.5 -254q0 -303 125 -467t338 -164q317 0 411 367l170 -39
q-28 -113 -77.5 -203t-122 -154.5t-169 -99.5t-214.5 -35q-146 0 -263.5 54.5t-202.5 157t-131 249t-46 332.5zM646 1618v185h204v-185h-204z" />
    <glyph glyph-name="cdotaccent" unicode="&#x10b;" horiz-adv-x="1098" 
d="M94 0zM94 541q0 147 43 253.5t114 175t160 101.5t179 33q92 0 159.5 -24.5t119 -66.5t86 -97.5t59.5 -114.5l-150 -62q-41 105 -106.5 160t-171.5 55q-60 0 -115 -21.5t-100 -70.5t-72 -128t-27 -193q0 -201 86 -308.5t224 -107.5q104 0 170.5 49t119.5 168l146 -57
q-31 -68 -72 -124.5t-94 -97t-120.5 -63.5t-156.5 -23q-94 0 -181 36t-153.5 106.5t-106.5 176t-40 245.5zM455 1206v185h204v-185h-204z" />
    <glyph glyph-name="Ccaron" unicode="&#x10c;" horiz-adv-x="1444" 
d="M113 0zM391 1942h108l221 -193l222 193h106l-264 -330h-129zM113 764q0 178 47 321.5t132 246t203.5 157.5t260.5 55q121 0 214 -33.5t161.5 -94t113.5 -146.5t72 -191l-172 -47q-49 174 -137 260t-254 86q-107 0 -192 -43t-144.5 -122.5t-91 -192.5t-31.5 -254
q0 -303 125 -467t338 -164q317 0 411 367l170 -39q-28 -113 -77.5 -203t-122 -154.5t-169 -99.5t-214.5 -35q-146 0 -263.5 54.5t-202.5 157t-131 249t-46 332.5z" />
    <glyph glyph-name="ccaron" unicode="&#x10d;" horiz-adv-x="1098" 
d="M94 0zM219 1530h108l221 -193l222 193h106l-264 -330h-129zM94 541q0 147 43 253.5t114 175t160 101.5t179 33q92 0 159.5 -24.5t119 -66.5t86 -97.5t59.5 -114.5l-150 -62q-41 105 -106.5 160t-171.5 55q-60 0 -115 -21.5t-100 -70.5t-72 -128t-27 -193
q0 -201 86 -308.5t224 -107.5q104 0 170.5 49t119.5 168l146 -57q-31 -68 -72 -124.5t-94 -97t-120.5 -63.5t-156.5 -23q-94 0 -181 36t-153.5 106.5t-106.5 176t-40 245.5z" />
    <glyph glyph-name="Dcaron" unicode="&#x10e;" horiz-adv-x="1464" 
d="M186 0zM402 1942h108l221 -193l222 193h106l-264 -330h-129zM186 0v1516h400q364 0 564 -186.5t200 -567.5q0 -193 -51.5 -336t-149.5 -237.5t-240.5 -141.5t-322.5 -47h-400zM367 162h241q275 0 418 141t143 459q0 305 -144 446.5t-421 141.5h-237v-1188z" />
    <glyph glyph-name="dcaron" unicode="&#x10f;" horiz-adv-x="1227" 
d="M96 539q0 141 35 246.5t96.5 176t146.5 106.5t183 36t186 -44t150 -116v572h176v-1250q0 -98 7 -161.5t26 -104.5h-184q-11 27 -18 70t-7 84q-66 -72 -150 -121t-206 -49q-93 0 -173.5 33.5t-140 102t-93.5 173t-34 246.5zM272 537q0 -105 23.5 -180.5t64.5 -127
t97.5 -76t122.5 -24.5q94 0 169.5 46t143.5 120v496q-72 79 -148.5 121t-162.5 42q-142 0 -226 -101t-84 -316zM1180 1380v199h190v-176l-94 -227h-74l51 204h-73z" />
    <glyph glyph-name="Dcroat" unicode="&#x110;" horiz-adv-x="1464" 
d="M23 0zM23 721v147h163v648h400q182 0 324.5 -46.5t239.5 -140.5t148.5 -236.5t51.5 -334.5q0 -191 -51.5 -333t-149.5 -236.5t-240.5 -141.5t-322.5 -47h-400v721h-163zM367 162h241q275 0 418 141t143 459q0 305 -144 446.5t-421 141.5h-237v-482h323v-147h-323v-559z
" />
    <glyph glyph-name="dcroat" unicode="&#x111;" horiz-adv-x="1227" 
d="M98 537q0 141 34 247.5t94.5 177t141.5 106.5t175 36q110 0 199 -49t153 -125v293h-217v127h217v166h174v-166h170v-127h-170v-957q0 -98 7 -161.5t26 -104.5h-182q-11 27 -18 74t-7 90q-66 -74 -149.5 -128t-206.5 -54q-93 0 -173.5 33.5t-140 102t-93.5 173t-34 246.5z
M272 539q0 -105 23.5 -182.5t64.5 -130t97.5 -78t122.5 -25.5q94 0 167.5 44t147.5 120v508q-78 77 -152.5 119t-167.5 42q-63 0 -118.5 -24.5t-96.5 -76.5t-64.5 -131t-23.5 -185z" />
    <glyph glyph-name="Emacron" unicode="&#x112;" horiz-adv-x="1247" 
d="M186 0zM186 0v1516h930v-166h-749v-473h557v-162h-557v-551h792v-164h-973zM388 1606v141h552v-141h-552z" />
    <glyph glyph-name="emacron" unicode="&#x113;" horiz-adv-x="1130" 
d="M94 0zM94 541q0 147 44 253.5t115 175t158 101.5t173 33q96 0 178 -34t142.5 -104.5t95 -178t34.5 -255.5v-36h-764q2 -93 29 -162.5t70 -116.5t101 -71.5t126 -24.5q117 0 190.5 45t135.5 131l102 -90q-76 -109 -181.5 -169.5t-258.5 -60.5q-97 0 -185 35t-155.5 105.5
t-108.5 176t-41 247.5zM274 633h592q-10 145 -79.5 234t-204.5 89q-56 0 -107 -19t-92 -59t-70.5 -100.5t-38.5 -144.5zM287 1194v141h552v-141h-552z" />
    <glyph glyph-name="Ebreve" unicode="&#x114;" horiz-adv-x="1247" 
d="M186 0zM186 0v1516h930v-166h-749v-473h557v-162h-557v-551h792v-164h-973zM310 1938h106q14 -119 69.5 -166t141.5 -47t141.5 47t69.5 166h106q-8 -156 -91 -250t-226 -94t-226 94t-91 250z" />
    <glyph glyph-name="ebreve" unicode="&#x115;" horiz-adv-x="1130" 
d="M94 0zM94 541q0 147 44 253.5t115 175t158 101.5t173 33q96 0 178 -34t142.5 -104.5t95 -178t34.5 -255.5v-36h-764q2 -93 29 -162.5t70 -116.5t101 -71.5t126 -24.5q117 0 190.5 45t135.5 131l102 -90q-76 -109 -181.5 -169.5t-258.5 -60.5q-97 0 -185 35t-155.5 105.5
t-108.5 176t-41 247.5zM274 633h592q-10 145 -79.5 234t-204.5 89q-56 0 -107 -19t-92 -59t-70.5 -100.5t-38.5 -144.5zM250 1530h106q14 -119 69.5 -166t141.5 -47t141.5 47t69.5 166h106q-8 -156 -91 -250t-226 -94t-226 94t-91 250z" />
    <glyph glyph-name="Edotaccent" unicode="&#x116;" horiz-adv-x="1247" 
d="M186 0zM186 0v1516h930v-166h-749v-473h557v-162h-557v-551h792v-164h-973zM562 1618v185h204v-185h-204z" />
    <glyph glyph-name="edotaccent" unicode="&#x117;" horiz-adv-x="1130" 
d="M94 0zM94 541q0 147 44 253.5t115 175t158 101.5t173 33q96 0 178 -34t142.5 -104.5t95 -178t34.5 -255.5v-36h-764q2 -93 29 -162.5t70 -116.5t101 -71.5t126 -24.5q117 0 190.5 45t135.5 131l102 -90q-76 -109 -181.5 -169.5t-258.5 -60.5q-97 0 -185 35t-155.5 105.5
t-108.5 176t-41 247.5zM274 633h592q-10 145 -79.5 234t-204.5 89q-56 0 -107 -19t-92 -59t-70.5 -100.5t-38.5 -144.5zM461 1206v185h204v-185h-204z" />
    <glyph glyph-name="Eogonek" unicode="&#x118;" horiz-adv-x="1247" 
d="M186 0zM720 -225q0 63 53.5 126.5t129.5 110.5h108q-73 -51 -113 -104t-40 -107q0 -41 23.5 -67.5t80.5 -26.5q53 0 98.5 13.5t92.5 35.5l36 -61q-63 -35 -130.5 -56.5t-139.5 -21.5q-94 0 -146.5 42t-52.5 116zM186 0v1516h930v-166h-749v-473h557v-162h-557v-551h792
v-164h-973z" />
    <glyph glyph-name="eogonek" unicode="&#x119;" horiz-adv-x="1130" 
d="M94 0zM436 -225q0 63 53.5 126.5t129.5 110.5h108q-73 -51 -113 -104t-40 -107q0 -41 23.5 -67.5t80.5 -26.5q53 0 98.5 13.5t92.5 35.5l36 -61q-63 -35 -130.5 -56.5t-139.5 -21.5q-94 0 -146.5 42t-52.5 116zM94 541q0 147 44 253.5t115 175t158 101.5t173 33
q96 0 178 -34t142.5 -104.5t95 -178t34.5 -255.5v-36h-764q2 -93 29 -162.5t70 -116.5t101 -71.5t126 -24.5q117 0 190.5 45t135.5 131l102 -90q-76 -109 -181.5 -169.5t-258.5 -60.5q-97 0 -185 35t-155.5 105.5t-108.5 176t-41 247.5zM274 633h592q-10 145 -79.5 234
t-204.5 89q-56 0 -107 -19t-92 -59t-70.5 -100.5t-38.5 -144.5z" />
    <glyph glyph-name="Ecaron" unicode="&#x11a;" horiz-adv-x="1247" 
d="M186 0zM334 1942h108l221 -193l222 193h106l-264 -330h-129zM186 0v1516h930v-166h-749v-473h557v-162h-557v-551h792v-164h-973z" />
    <glyph glyph-name="ecaron" unicode="&#x11b;" horiz-adv-x="1130" 
d="M94 0zM234 1530h108l221 -193l222 193h106l-264 -330h-129zM94 541q0 147 44 253.5t115 175t158 101.5t173 33q96 0 178 -34t142.5 -104.5t95 -178t34.5 -255.5v-36h-764q2 -93 29 -162.5t70 -116.5t101 -71.5t126 -24.5q117 0 190.5 45t135.5 131l102 -90
q-76 -109 -181.5 -169.5t-258.5 -60.5q-97 0 -185 35t-155.5 105.5t-108.5 176t-41 247.5zM274 633h592q-10 145 -79.5 234t-204.5 89q-56 0 -107 -19t-92 -59t-70.5 -100.5t-38.5 -144.5z" />
    <glyph glyph-name="Gcircumflex" unicode="&#x11c;" horiz-adv-x="1495" 
d="M113 0zM426 1604l264 330h129l264 -330h-106l-224 192l-221 -192h-106zM113 764q0 180 47 324.5t133 246t204.5 155.5t260.5 54q217 0 359.5 -114.5t201.5 -354.5l-168 -43q-53 182 -145.5 264t-249.5 82q-90 0 -173 -34.5t-146.5 -109.5t-102.5 -189.5t-39 -274.5
t35 -278.5t97 -198.5t148.5 -120t186.5 -40q178 0 286.5 114.5t112.5 325.5h-348v152h522v-725h-157v227h-4q-23 -47 -60 -93t-89 -82t-121.5 -58.5t-158.5 -22.5q-153 0 -271 59.5t-198.5 165t-121.5 251t-41 317.5z" />
    <glyph glyph-name="gcircumflex" unicode="&#x11d;" horiz-adv-x="1178" 
d="M35 0zM219 1192l264 330h129l264 -330h-106l-224 192l-221 -192h-106zM35 -147q0 84 52 144t144 95q-92 43 -92 137q0 54 38 97t97 77q-77 52 -121 130.5t-44 181.5q0 86 32.5 156.5t91 123t139.5 81t177 28.5q100 0 181 -31t138 -82q50 37 120.5 64.5t135.5 36.5v-156
q-45 0 -96 -8t-98 -27q55 -78 55 -186q0 -88 -32.5 -159t-91 -121t-138.5 -77.5t-174 -27.5q-47 0 -89 7t-83 19q-35 -16 -55.5 -35.5t-20.5 -48.5q0 -34 32 -50.5t118 -24.5l221 -19q207 -14 310 -81.5t103 -198.5q0 -78 -38.5 -136.5t-108.5 -97.5t-167 -59.5t-214 -20.5
q-274 0 -398 73t-124 196zM199 -121q0 -82 89 -122t292 -40q161 0 252.5 45t91.5 119q0 72 -64.5 108t-234.5 48l-205 14l-62 6q-77 -28 -118 -75.5t-41 -102.5zM276 711q0 -117 75 -184.5t200 -67.5t197.5 67.5t72.5 184.5q0 118 -70.5 187t-201.5 69q-127 0 -200 -70
t-73 -186z" />
    <glyph glyph-name="Gbreve" unicode="&#x11e;" horiz-adv-x="1495" 
d="M113 0zM113 764q0 180 47 324.5t133 246t204.5 155.5t260.5 54q217 0 359.5 -114.5t201.5 -354.5l-168 -43q-53 182 -145.5 264t-249.5 82q-90 0 -173 -34.5t-146.5 -109.5t-102.5 -189.5t-39 -274.5t35 -278.5t97 -198.5t148.5 -120t186.5 -40q178 0 286.5 114.5
t112.5 325.5h-348v152h522v-725h-157v227h-4q-23 -47 -60 -93t-89 -82t-121.5 -58.5t-158.5 -22.5q-153 0 -271 59.5t-198.5 165t-121.5 251t-41 317.5zM428 1942h106q14 -119 69.5 -166t141.5 -47t141.5 47t69.5 166h106q-8 -156 -91 -250t-226 -94t-226 94t-91 250z" />
    <glyph glyph-name="gbreve" unicode="&#x11f;" horiz-adv-x="1178" 
d="M35 0zM35 -147q0 84 52 144t144 95q-92 43 -92 137q0 54 38 97t97 77q-77 52 -121 130.5t-44 181.5q0 86 32.5 156.5t91 123t139.5 81t177 28.5q100 0 181 -31t138 -82q50 37 120.5 64.5t135.5 36.5v-156q-45 0 -96 -8t-98 -27q55 -78 55 -186q0 -88 -32.5 -159t-91 -121
t-138.5 -77.5t-174 -27.5q-47 0 -89 7t-83 19q-35 -16 -55.5 -35.5t-20.5 -48.5q0 -34 32 -50.5t118 -24.5l221 -19q207 -14 310 -81.5t103 -198.5q0 -78 -38.5 -136.5t-108.5 -97.5t-167 -59.5t-214 -20.5q-274 0 -398 73t-124 196zM199 -121q0 -82 89 -122t292 -40
q161 0 252.5 45t91.5 119q0 72 -64.5 108t-234.5 48l-205 14l-62 6q-77 -28 -118 -75.5t-41 -102.5zM276 711q0 -117 75 -184.5t200 -67.5t197.5 67.5t72.5 184.5q0 118 -70.5 187t-201.5 69q-127 0 -200 -70t-73 -186zM248 1530h106q14 -119 69.5 -166t141.5 -47t141.5 47
t69.5 166h106q-8 -156 -91 -250t-226 -94t-226 94t-91 250z" />
    <glyph glyph-name="Gdotaccent" unicode="&#x120;" horiz-adv-x="1495" 
d="M113 0zM113 764q0 180 47 324.5t133 246t204.5 155.5t260.5 54q217 0 359.5 -114.5t201.5 -354.5l-168 -43q-53 182 -145.5 264t-249.5 82q-90 0 -173 -34.5t-146.5 -109.5t-102.5 -189.5t-39 -274.5t35 -278.5t97 -198.5t148.5 -120t186.5 -40q178 0 286.5 114.5
t112.5 325.5h-348v152h522v-725h-157v227h-4q-23 -47 -60 -93t-89 -82t-121.5 -58.5t-158.5 -22.5q-153 0 -271 59.5t-198.5 165t-121.5 251t-41 317.5zM641 1618v185h204v-185h-204z" />
    <glyph glyph-name="gdotaccent" unicode="&#x121;" horiz-adv-x="1178" 
d="M35 0zM35 -147q0 84 52 144t144 95q-92 43 -92 137q0 54 38 97t97 77q-77 52 -121 130.5t-44 181.5q0 86 32.5 156.5t91 123t139.5 81t177 28.5q100 0 181 -31t138 -82q50 37 120.5 64.5t135.5 36.5v-156q-45 0 -96 -8t-98 -27q55 -78 55 -186q0 -88 -32.5 -159t-91 -121
t-138.5 -77.5t-174 -27.5q-47 0 -89 7t-83 19q-35 -16 -55.5 -35.5t-20.5 -48.5q0 -34 32 -50.5t118 -24.5l221 -19q207 -14 310 -81.5t103 -198.5q0 -78 -38.5 -136.5t-108.5 -97.5t-167 -59.5t-214 -20.5q-274 0 -398 73t-124 196zM199 -121q0 -82 89 -122t292 -40
q161 0 252.5 45t91.5 119q0 72 -64.5 108t-234.5 48l-205 14l-62 6q-77 -28 -118 -75.5t-41 -102.5zM276 711q0 -117 75 -184.5t200 -67.5t197.5 67.5t72.5 184.5q0 118 -70.5 187t-201.5 69q-127 0 -200 -70t-73 -186zM445 1206v185h204v-185h-204z" />
    <glyph glyph-name="Gcommaaccent" unicode="&#x122;" horiz-adv-x="1495" 
d="M113 0zM651 -98h195v-181l-96 -229h-76l53 209h-76v201zM113 764q0 180 47 324.5t133 246t204.5 155.5t260.5 54q217 0 359.5 -114.5t201.5 -354.5l-168 -43q-53 182 -145.5 264t-249.5 82q-90 0 -173 -34.5t-146.5 -109.5t-102.5 -189.5t-39 -274.5t35 -278.5t97 -198.5
t148.5 -120t186.5 -40q178 0 286.5 114.5t112.5 325.5h-348v152h522v-725h-157v227h-4q-23 -47 -60 -93t-89 -82t-121.5 -58.5t-158.5 -22.5q-153 0 -271 59.5t-198.5 165t-121.5 251t-41 317.5z" />
    <glyph glyph-name="gcommaaccent" unicode="&#x123;" horiz-adv-x="1178" 
d="M35 0zM467 1194v180l96 230h76l-53 -207h76v-203h-195zM35 -147q0 84 52 144t144 95q-92 43 -92 137q0 54 38 97t97 77q-77 52 -121 130.5t-44 181.5q0 86 32.5 156.5t91 123t139.5 81t177 28.5q100 0 181 -31t138 -82q50 37 120.5 64.5t135.5 36.5v-156q-45 0 -96 -8
t-98 -27q55 -78 55 -186q0 -88 -32.5 -159t-91 -121t-138.5 -77.5t-174 -27.5q-47 0 -89 7t-83 19q-35 -16 -55.5 -35.5t-20.5 -48.5q0 -34 32 -50.5t118 -24.5l221 -19q207 -14 310 -81.5t103 -198.5q0 -78 -38.5 -136.5t-108.5 -97.5t-167 -59.5t-214 -20.5
q-274 0 -398 73t-124 196zM199 -121q0 -82 89 -122t292 -40q161 0 252.5 45t91.5 119q0 72 -64.5 108t-234.5 48l-205 14l-62 6q-77 -28 -118 -75.5t-41 -102.5zM276 711q0 -117 75 -184.5t200 -67.5t197.5 67.5t72.5 184.5q0 118 -70.5 187t-201.5 69q-127 0 -200 -70
t-73 -186z" />
    <glyph glyph-name="Hcircumflex" unicode="&#x124;" horiz-adv-x="1513" 
d="M186 0zM426 1604l264 330h129l264 -330h-106l-224 192l-221 -192h-106zM186 0v1516h181v-635h780v635h180v-1516h-180v715h-780v-715h-181z" />
    <glyph glyph-name="hcircumflex" unicode="&#x125;" horiz-adv-x="1204" 
d="M0 0zM-85 1604l264 330h129l264 -330h-106l-224 192l-221 -192h-106zM156 0v1516h178v-596q35 34 78 67t94 59.5t109.5 42t123.5 15.5q156 0 238 -85t82 -239v-780h-176v741q0 109 -47.5 160t-151.5 51q-98 0 -181 -47t-169 -127v-778h-178z" />
    <glyph glyph-name="Hbar" unicode="&#x126;" horiz-adv-x="1513" 
d="M25 1114v146h163v256h179v-256h780v256h180v-256h164v-146h-164v-1114h-180v715h-780v-715h-179v1114h-163zM367 881h780v233h-780v-233z" />
    <glyph glyph-name="hbar" unicode="&#x127;" horiz-adv-x="1204" 
d="M-12 1223v127h170v166h176v-166h215v-127h-215v-303q35 34 78 67t94 59.5t109.5 42t123.5 15.5q156 0 238 -85t82 -239v-780h-176v743q0 107 -47.5 158t-151.5 51q-98 0 -181 -47t-169 -125v-780h-176v1223h-170z" />
    <glyph glyph-name="Itilde" unicode="&#x128;" horiz-adv-x="594" 
d="M0 0zM207 0v1516h180v-1516h-180zM-40 1604q0 129 48 186.5t141 57.5q45 0 86 -18.5t77.5 -40t70.5 -39t67 -17.5q43 0 63.5 25.5t20.5 85.5h104q0 -127 -48 -185.5t-138 -58.5q-45 0 -86 17.5t-78 39t-71 40t-64 18.5q-45 0 -64.5 -26t-19.5 -85h-109z" />
    <glyph glyph-name="itilde" unicode="&#x129;" horiz-adv-x="512" 
d="M0 0zM168 0v1081h176v-1081h-176zM-81 1192q0 129 48 186.5t141 57.5q45 0 86 -18.5t77.5 -40t70.5 -39t67 -17.5q43 0 63.5 25.5t20.5 85.5h104q0 -127 -48 -185.5t-138 -58.5q-45 0 -86 17.5t-78 39t-71 40t-64 18.5q-45 0 -64.5 -26t-19.5 -85h-109z" />
    <glyph glyph-name="Imacron" unicode="&#x12a;" horiz-adv-x="594" 
d="M22 0zM207 0v1516h180v-1516h-180zM22 1606v141h552v-141h-552z" />
    <glyph glyph-name="imacron" unicode="&#x12b;" horiz-adv-x="512" 
d="M0 0zM168 0v1081h176v-1081h-176zM-19 1194v141h552v-141h-552z" />
    <glyph glyph-name="Ibreve" unicode="&#x12c;" horiz-adv-x="594" 
d="M0 0zM207 0v1516h180v-1516h-180zM-19 1938h106q14 -119 69.5 -166t141.5 -47t141.5 47t69.5 166h106q-8 -156 -91 -250t-226 -94t-226 94t-91 250z" />
    <glyph glyph-name="ibreve" unicode="&#x12d;" horiz-adv-x="512" 
d="M0 0zM168 0v1081h176v-1081h-176zM-60 1530h106q14 -119 69.5 -166t141.5 -47t141.5 47t69.5 166h106q-8 -156 -91 -250t-226 -94t-226 94t-91 250z" />
    <glyph glyph-name="Iogonek" unicode="&#x12e;" horiz-adv-x="594" 
d="M39 0zM207 0v1516h180v-1516h-180zM39 -225q0 63 53.5 126.5t129.5 110.5h108q-73 -51 -113 -104t-40 -107q0 -41 23.5 -67.5t80.5 -26.5q53 0 98.5 13.5t92.5 35.5l36 -61q-63 -35 -130.5 -56.5t-139.5 -21.5q-94 0 -146.5 42t-52.5 116z" />
    <glyph glyph-name="iogonek" unicode="&#x12f;" horiz-adv-x="512" 
d="M1 0zM164 1313v172h184v-172h-184zM168 0v1081h176v-1081h-176zM1 -225q0 63 53.5 126.5t129.5 110.5h108q-73 -51 -113 -104t-40 -107q0 -41 23.5 -67.5t80.5 -26.5q53 0 98.5 13.5t92.5 35.5l36 -61q-63 -35 -130.5 -56.5t-139.5 -21.5q-94 0 -146.5 42t-52.5 116z" />
    <glyph glyph-name="Idotaccent" unicode="&#x130;" horiz-adv-x="594" 
d="M196 0zM207 0v1516h180v-1516h-180zM196 1618v185h204v-185h-204z" />
    <glyph glyph-name="dotlessi" unicode="&#x131;" horiz-adv-x="512" 
d="M168 0v1081h176v-1081h-176z" />
    <glyph glyph-name="IJ" unicode="&#x132;" horiz-adv-x="1546" 
d="M207 0zM207 0v1516h180v-1516h-180zM561 172l121 102q47 -63 107.5 -103t150.5 -40q57 0 104.5 15.5t81 49t52 90t18.5 138.5v1094h180v-1106q0 -215 -113.5 -327t-316.5 -112q-139 0 -229 54.5t-156 144.5z" />
    <glyph glyph-name="ij" unicode="&#x133;" horiz-adv-x="1024" 
d="M164 0zM164 1313v172h184v-172h-184zM168 0v1081h176v-1081h-176zM500 -268q14 -4 32.5 -6.5t36.5 -2.5q54 0 82.5 30t28.5 95v1235h176v-1247q0 -55 -12.5 -100t-41 -78t-76.5 -50.5t-120 -17.5q-22 0 -59 3t-47 6v133zM676 1315v172h184v-172h-184z" />
    <glyph glyph-name="Jcircumflex" unicode="&#x134;" horiz-adv-x="1034" 
d="M49 0zM443 1604l264 330h129l264 -330h-106l-224 192l-221 -192h-106zM49 170l121 102q47 -63 107.5 -103t150.5 -40q57 0 104.5 15.5t81 49t52 90t18.5 138.5v1094h180v-1106q0 -215 -113.5 -327t-316.5 -112q-139 0 -229 54.5t-156 144.5z" />
    <glyph glyph-name="jcircumflex" unicode="&#x135;" horiz-adv-x="512" 
d="M-71 1192l264 330h129l264 -330h-106l-224 192l-221 -192h-106zM-12 -272q14 -4 33.5 -6.5t37.5 -2.5q52 0 81.5 30t29.5 95v1237h174v-1249q0 -55 -12.5 -100t-41 -77t-76.5 -49.5t-120 -17.5q-22 0 -58 2t-48 4v134z" />
    <glyph glyph-name="Kcommaaccent" unicode="&#x136;" horiz-adv-x="1389" 
d="M186 0zM596 -98h195v-181l-96 -229h-76l53 209h-76v201zM186 0v1516h181v-783l686 783h217l-520 -578l591 -938h-206l-504 801l-264 -289v-512h-181z" />
    <glyph glyph-name="kcommaaccent" unicode="&#x137;" horiz-adv-x="1106" 
d="M156 0zM454 -98h195v-181l-96 -229h-76l53 209h-76v201zM156 0v1516h176v-975l483 540h201l-354 -387l393 -694h-189l-319 563l-215 -231v-332h-176z" />
    <glyph glyph-name="kgreenlandic" unicode="&#x138;" horiz-adv-x="1106" 
d="M158 0v1081h174v-540l483 540h201l-354 -385l393 -696h-189l-319 565l-215 -233v-332h-174z" />
    <glyph glyph-name="Lacute" unicode="&#x139;" horiz-adv-x="1165" 
d="M186 0zM216 1610l192 324h215l-290 -324h-117zM186 0v1516h181v-1352h729v-164h-910z" />
    <glyph glyph-name="lacute" unicode="&#x13a;" horiz-adv-x="512" 
d="M168 0zM196 1610l192 324h215l-290 -324h-117zM168 0v1516h176v-1516h-176z" />
    <glyph glyph-name="Lcommaaccent" unicode="&#x13b;" horiz-adv-x="1165" 
d="M186 0zM485 -98h195v-181l-96 -229h-76l53 209h-76v201zM186 0v1516h181v-1352h729v-164h-910z" />
    <glyph glyph-name="lcommaaccent" unicode="&#x13c;" horiz-adv-x="512" 
d="M163 0zM163 -98h195v-181l-96 -229h-76l53 209h-76v201zM168 0v1516h176v-1516h-176z" />
    <glyph glyph-name="Lcaron" unicode="&#x13d;" horiz-adv-x="1165" 
d="M186 0zM620 1514h195v-181l-96 -229h-76l53 209h-76v201zM186 0v1516h181v-1352h729v-164h-910z" />
    <glyph glyph-name="lcaron" unicode="&#x13e;" horiz-adv-x="512" 
d="M168 0v1516h176v-1516h-176zM453 1380v199h190v-176l-94 -227h-74l51 204h-73z" />
    <glyph glyph-name="Ldot" unicode="&#x13f;" horiz-adv-x="1192" 
d="M186 0v1516h181v-1352h729v-164h-910zM774 727v184h193v-184h-193z" />
    <glyph glyph-name="ldot" unicode="&#x140;" horiz-adv-x="721" 
d="M168 0v1516h176v-1516h-176zM520 571v185h193v-185h-193z" />
    <glyph glyph-name="Lslash" unicode="&#x141;" horiz-adv-x="1165" 
d="M14 655v146l174 47v668h181v-621l317 86v-147l-317 -84v-586h727v-164h-908v700z" />
    <glyph glyph-name="lslash" unicode="&#x142;" horiz-adv-x="623" 
d="M43 848v137l182 49v482h174v-437l185 49v-137l-185 -49v-942h-174v897z" />
    <glyph glyph-name="Nacute" unicode="&#x143;" horiz-adv-x="1534" 
d="M186 0zM617 1610l192 324h215l-290 -324h-117zM186 0v1516h191l797 -1199h4v1199h170v-1516h-162l-826 1231h-4v-1231h-170z" />
    <glyph glyph-name="nacute" unicode="&#x144;" horiz-adv-x="1204" 
d="M156 0zM469 1198l192 324h215l-290 -324h-117zM156 0v1081h178v-161q35 34 78 67t94 59.5t109.5 42t123.5 15.5q156 0 238 -85t82 -239v-780h-176v741q0 109 -47.5 160t-151.5 51q-98 0 -181 -47t-169 -127v-778h-178z" />
    <glyph glyph-name="Ncommaaccent" unicode="&#x145;" horiz-adv-x="1534" 
d="M186 0zM669 -98h195v-181l-96 -229h-76l53 209h-76v201zM186 0v1516h191l797 -1199h4v1199h170v-1516h-162l-826 1231h-4v-1231h-170z" />
    <glyph glyph-name="ncommaaccent" unicode="&#x146;" horiz-adv-x="1204" 
d="M156 0zM506 -98h195v-181l-96 -229h-76l53 209h-76v201zM156 0v1081h178v-161q35 34 78 67t94 59.5t109.5 42t123.5 15.5q156 0 238 -85t82 -239v-780h-176v741q0 109 -47.5 160t-151.5 51q-98 0 -181 -47t-169 -127v-778h-178z" />
    <glyph glyph-name="Ncaron" unicode="&#x147;" horiz-adv-x="1534" 
d="M186 0zM437 1942h108l221 -193l222 193h106l-264 -330h-129zM186 0v1516h191l797 -1199h4v1199h170v-1516h-162l-826 1231h-4v-1231h-170z" />
    <glyph glyph-name="ncaron" unicode="&#x148;" horiz-adv-x="1204" 
d="M156 0zM273 1530h108l221 -193l222 193h106l-264 -330h-129zM156 0v1081h178v-161q35 34 78 67t94 59.5t109.5 42t123.5 15.5q156 0 238 -85t82 -239v-780h-176v741q0 109 -47.5 160t-151.5 51q-98 0 -181 -47t-169 -127v-778h-178z" />
    <glyph glyph-name="napostrophe" unicode="&#x149;" horiz-adv-x="1649" 
d="M174 0zM174 1300v216h205v-199l-105 -232h-81l55 215h-74zM600 0v1081h178v-161q35 34 78 67t94 59.5t109.5 42t123.5 15.5q156 0 238 -85t82 -239v-780h-176v741q0 109 -47.5 160t-151.5 51q-98 0 -181 -47t-169 -127v-778h-178z" />
    <glyph glyph-name="Eng" unicode="&#x14a;" horiz-adv-x="1534" 
d="M188 0v1516h189l799 -1199h4v1199h168v-1502q0 -209 -107.5 -317.5t-310.5 -108.5q-76 0 -134.5 15.5t-105.5 43t-83 64.5t-64 80l112 105q50 -72 112 -115t155 -43q53 0 98 14.5t79 46t54.5 83.5t22.5 126v8l-816 1217h-4v-1233h-168z" />
    <glyph glyph-name="eng" unicode="&#x14b;" horiz-adv-x="1204" 
d="M158 0v1081h176v-176q37 39 81 75t94 63.5t106.5 44t119.5 16.5q160 0 242 -82t82 -236v-954q0 -55 -12.5 -100t-41 -77t-76.5 -49.5t-120 -17.5q-10 0 -26.5 1t-32 2t-27.5 2t-18 1v134q12 -4 31.5 -6.5t37.5 -2.5q51 0 81 29t30 92v903q0 107 -48.5 160t-152.5 53
q-98 0 -181 -47t-169 -127v-782h-176z" />
    <glyph glyph-name="Omacron" unicode="&#x14c;" horiz-adv-x="1534" 
d="M113 0zM488 1606v141h552v-141h-552zM113 758q0 182 50 328.5t137 248t207 155.5t261 54t260 -54t206 -155.5t136 -248t49 -328.5q0 -183 -49 -329t-136 -247.5t-206 -156t-260 -54.5t-261 54.5t-207 156t-137 247.5t-50 329zM295 758q0 -148 35 -264.5t97 -196.5
t149.5 -122t191.5 -42q102 0 189 42t149.5 122t97.5 196.5t35 264.5q0 147 -35 263t-97.5 195.5t-149.5 121.5t-189 42q-104 0 -191.5 -42t-149.5 -121.5t-97 -195.5t-35 -263z" />
    <glyph glyph-name="omacron" unicode="&#x14d;" 
d="M94 0zM320 1194v141h552v-141h-552zM94 541q0 139 41 244.5t110.5 176t161 106.5t191.5 36q98 0 189.5 -36t161 -106.5t110.5 -176t41 -244.5q0 -140 -41 -245.5t-110.5 -176t-161 -106.5t-189.5 -36t-189.5 36t-161 106.5t-111.5 176t-42 245.5zM272 541
q0 -86 20.5 -162t60.5 -131t101.5 -88t143.5 -33q76 0 136.5 29.5t102.5 84t63.5 131.5t21.5 169q0 84 -20.5 158.5t-60.5 131t-101.5 89t-141.5 32.5q-78 0 -138.5 -29.5t-102.5 -84t-63.5 -130t-21.5 -167.5z" />
    <glyph glyph-name="Obreve" unicode="&#x14e;" horiz-adv-x="1534" 
d="M113 0zM113 758q0 182 50 328.5t137 248t207 155.5t261 54t260 -54t206 -155.5t136 -248t49 -328.5q0 -183 -49 -329t-136 -247.5t-206 -156t-260 -54.5t-261 54.5t-207 156t-137 247.5t-50 329zM295 758q0 -148 35 -264.5t97 -196.5t149.5 -122t191.5 -42q102 0 189 42
t149.5 122t97.5 196.5t35 264.5q0 147 -35 263t-97.5 195.5t-149.5 121.5t-189 42q-104 0 -191.5 -42t-149.5 -121.5t-97 -195.5t-35 -263zM447 1942h106q14 -119 69.5 -166t141.5 -47t141.5 47t69.5 166h106q-8 -156 -91 -250t-226 -94t-226 94t-91 250z" />
    <glyph glyph-name="obreve" unicode="&#x14f;" 
d="M94 0zM94 541q0 139 41 244.5t110.5 176t161 106.5t191.5 36q98 0 189.5 -36t161 -106.5t110.5 -176t41 -244.5q0 -140 -41 -245.5t-110.5 -176t-161 -106.5t-189.5 -36t-189.5 36t-161 106.5t-111.5 176t-42 245.5zM272 541q0 -86 20.5 -162t60.5 -131t101.5 -88
t143.5 -33q76 0 136.5 29.5t102.5 84t63.5 131.5t21.5 169q0 84 -20.5 158.5t-60.5 131t-101.5 89t-141.5 32.5q-78 0 -138.5 -29.5t-102.5 -84t-63.5 -130t-21.5 -167.5zM279 1530h106q14 -119 69.5 -166t141.5 -47t141.5 47t69.5 166h106q-8 -156 -91 -250t-226 -94
t-226 94t-91 250z" />
    <glyph glyph-name="Ohungarumlaut" unicode="&#x150;" horiz-adv-x="1534" 
d="M113 0zM478 1610l198 324h217l-297 -324h-118zM818 1610l204 324h218l-302 -324h-120zM113 758q0 182 50 328.5t137 248t207 155.5t261 54t260 -54t206 -155.5t136 -248t49 -328.5q0 -183 -49 -329t-136 -247.5t-206 -156t-260 -54.5t-261 54.5t-207 156t-137 247.5
t-50 329zM295 758q0 -148 35 -264.5t97 -196.5t149.5 -122t191.5 -42q102 0 189 42t149.5 122t97.5 196.5t35 264.5q0 147 -35 263t-97.5 195.5t-149.5 121.5t-189 42q-104 0 -191.5 -42t-149.5 -121.5t-97 -195.5t-35 -263z" />
    <glyph glyph-name="ohungarumlaut" unicode="&#x151;" 
d="M94 0zM324 1198l198 324h217l-297 -324h-118zM664 1198l204 324h218l-302 -324h-120zM94 541q0 139 41 244.5t110.5 176t161 106.5t191.5 36q98 0 189.5 -36t161 -106.5t110.5 -176t41 -244.5q0 -140 -41 -245.5t-110.5 -176t-161 -106.5t-189.5 -36t-189.5 36
t-161 106.5t-111.5 176t-42 245.5zM272 541q0 -86 20.5 -162t60.5 -131t101.5 -88t143.5 -33q76 0 136.5 29.5t102.5 84t63.5 131.5t21.5 169q0 84 -20.5 158.5t-60.5 131t-101.5 89t-141.5 32.5q-78 0 -138.5 -29.5t-102.5 -84t-63.5 -130t-21.5 -167.5z" />
    <glyph glyph-name="OE" unicode="&#x152;" horiz-adv-x="2296" 
d="M113 758q0 182 51 328.5t139 248t208 155.5t257 54q166 0 288 -79t193 -210v261h916v-166h-750v-473h557v-162h-557v-551h791v-164h-957v264q-71 -131 -193 -212t-288 -81q-137 0 -257 54.5t-208 156t-139 247.5t-51 329zM293 758q0 -148 34.5 -264.5t98 -196.5t151 -122
t191.5 -42q102 0 188 42t148.5 122t97.5 196.5t35 264.5q0 147 -35 263t-97.5 195.5t-148.5 121.5t-188 42q-104 0 -191.5 -42t-151 -121.5t-98 -195.5t-34.5 -263z" />
    <glyph glyph-name="oe" unicode="&#x153;" horiz-adv-x="1939" 
d="M94 541q0 139 41 244.5t109.5 176t159 106.5t190.5 36q141 0 247.5 -73t159.5 -193q25 57 66 106t92 85t111.5 55.5t124.5 19.5q92 0 174 -34t143.5 -104.5t97 -178t35.5 -255.5v-30h-760q2 -94 28 -165t69 -119t101 -72.5t126 -24.5q115 0 187.5 46t134.5 130l104 -90
q-76 -109 -181.5 -169.5t-258.5 -60.5q-66 0 -126.5 18.5t-112.5 53.5t-93 82t-66 107q-55 -117 -158.5 -189t-244.5 -72q-98 0 -189.5 36t-160 106.5t-109.5 176t-41 245.5zM272 541q0 -86 19.5 -162t59.5 -132.5t100.5 -89t142.5 -32.5q78 0 137.5 29.5t100 85t62 132.5
t21.5 169q0 84 -19 158.5t-59 131t-100.5 89t-142.5 32.5q-78 0 -137.5 -29.5t-100.5 -84t-62.5 -130t-21.5 -167.5zM1087 633h590q-10 145 -79.5 234t-204.5 89q-56 0 -106 -19t-91 -59t-69.5 -100.5t-39.5 -144.5z" />
    <glyph glyph-name="Racute" unicode="&#x154;" horiz-adv-x="1386" 
d="M186 0zM574 1610l192 324h215l-290 -324h-117zM186 0v1516h521q260 0 399 -106.5t139 -317.5q0 -185 -95 -283t-257 -133l373 -676h-197l-362 653h-342v-653h-179zM365 813h331q178 0 274.5 58.5t96.5 213.5q0 150 -95 208.5t-278 58.5h-329v-539z" />
    <glyph glyph-name="racute" unicode="&#x155;" horiz-adv-x="819" 
d="M156 0zM294 1198l192 324h215l-290 -324h-117zM156 0v1081h176v-200h4q59 94 159.5 158.5t258.5 64.5h22l-12 -164q-4 2 -26 2h-25q-129 0 -225.5 -63.5t-155.5 -180.5v-698h-176z" />
    <glyph glyph-name="Rcommaaccent" unicode="&#x156;" horiz-adv-x="1386" 
d="M186 0zM596 -98h195v-181l-96 -229h-76l53 209h-76v201zM186 0v1516h521q260 0 399 -106.5t139 -317.5q0 -185 -95 -283t-257 -133l373 -676h-197l-362 653h-342v-653h-179zM365 813h331q178 0 274.5 58.5t96.5 213.5q0 150 -95 208.5t-278 58.5h-329v-539z" />
    <glyph glyph-name="rcommaaccent" unicode="&#x157;" horiz-adv-x="819" 
d="M150 0zM150 -98h195v-181l-96 -229h-76l53 209h-76v201zM156 0v1081h176v-200h4q59 94 159.5 158.5t258.5 64.5h22l-12 -164q-4 2 -26 2h-25q-129 0 -225.5 -63.5t-155.5 -180.5v-698h-176z" />
    <glyph glyph-name="Rcaron" unicode="&#x158;" horiz-adv-x="1386" 
d="M186 0zM363 1942h108l221 -193l222 193h106l-264 -330h-129zM186 0v1516h521q260 0 399 -106.5t139 -317.5q0 -185 -95 -283t-257 -133l373 -676h-197l-362 653h-342v-653h-179zM365 813h331q178 0 274.5 58.5t96.5 213.5q0 150 -95 208.5t-278 58.5h-329v-539z" />
    <glyph glyph-name="rcaron" unicode="&#x159;" horiz-adv-x="819" 
d="M81 0zM81 1530h108l221 -193l222 193h106l-264 -330h-129zM156 0v1081h176v-200h4q59 94 159.5 158.5t258.5 64.5h22l-12 -164q-4 2 -26 2h-25q-129 0 -225.5 -63.5t-155.5 -180.5v-698h-176z" />
    <glyph glyph-name="Sacute" unicode="&#x15a;" horiz-adv-x="1346" 
d="M111 0zM553 1610l192 324h215l-290 -324h-117zM111 367l151 67q57 -153 167 -228t263 -75q160 0 257.5 64.5t97.5 185.5q0 55 -17.5 99t-60.5 81t-117 70t-186 67q-119 37 -212.5 74t-158 86t-99 117.5t-34.5 167.5q0 86 35.5 159.5t100 128t154 84t197.5 29.5
q109 0 195 -25.5t151.5 -71.5t112.5 -108.5t76 -134.5l-144 -80q-61 138 -159.5 197t-233.5 59q-145 0 -226 -62.5t-81 -160.5q0 -61 20.5 -103t67.5 -76t124 -64.5t187 -65.5q115 -35 205 -75t152.5 -92t95.5 -122t33 -166q0 -94 -39 -172t-110.5 -133t-171 -86t-220.5 -31
q-217 0 -365.5 107.5t-207.5 288.5z" />
    <glyph glyph-name="sacute" unicode="&#x15b;" horiz-adv-x="1049" 
d="M78 0zM406 1198l192 324h215l-290 -324h-117zM78 164l106 106q62 -65 145 -107t193 -42q127 0 193.5 43t66.5 127q0 82 -69.5 121t-208.5 71q-86 21 -158 45.5t-122 60.5t-78.5 89t-28.5 131q0 61 25.5 114.5t74.5 93.5t120 63.5t159 23.5q143 0 240.5 -42t172.5 -114
l-92 -117q-61 58 -141 94t-172 36q-119 0 -169 -44.5t-50 -101.5q0 -76 63.5 -111.5t192.5 -64.5q92 -23 167.5 -47.5t130 -62t84 -93t29.5 -139.5q0 -78 -32.5 -137.5t-91 -99.5t-137.5 -60t-171 -20q-147 0 -262 52t-180 132z" />
    <glyph glyph-name="Scircumflex" unicode="&#x15c;" horiz-adv-x="1346" 
d="M111 0zM336 1604l264 330h129l264 -330h-106l-224 192l-221 -192h-106zM111 367l151 67q57 -153 167 -228t263 -75q160 0 257.5 64.5t97.5 185.5q0 55 -17.5 99t-60.5 81t-117 70t-186 67q-119 37 -212.5 74t-158 86t-99 117.5t-34.5 167.5q0 86 35.5 159.5t100 128
t154 84t197.5 29.5q109 0 195 -25.5t151.5 -71.5t112.5 -108.5t76 -134.5l-144 -80q-61 138 -159.5 197t-233.5 59q-145 0 -226 -62.5t-81 -160.5q0 -61 20.5 -103t67.5 -76t124 -64.5t187 -65.5q115 -35 205 -75t152.5 -92t95.5 -122t33 -166q0 -94 -39 -172t-110.5 -133
t-171 -86t-220.5 -31q-217 0 -365.5 107.5t-207.5 288.5z" />
    <glyph glyph-name="scircumflex" unicode="&#x15d;" horiz-adv-x="1049" 
d="M78 0zM167 1192l264 330h129l264 -330h-106l-224 192l-221 -192h-106zM78 164l106 106q62 -65 145 -107t193 -42q127 0 193.5 43t66.5 127q0 82 -69.5 121t-208.5 71q-86 21 -158 45.5t-122 60.5t-78.5 89t-28.5 131q0 61 25.5 114.5t74.5 93.5t120 63.5t159 23.5
q143 0 240.5 -42t172.5 -114l-92 -117q-61 58 -141 94t-172 36q-119 0 -169 -44.5t-50 -101.5q0 -76 63.5 -111.5t192.5 -64.5q92 -23 167.5 -47.5t130 -62t84 -93t29.5 -139.5q0 -78 -32.5 -137.5t-91 -99.5t-137.5 -60t-171 -20q-147 0 -262 52t-180 132z" />
    <glyph glyph-name="Scedilla" unicode="&#x15e;" horiz-adv-x="1346" 
d="M111 0zM111 367l151 67q57 -153 167 -228t263 -75q160 0 257.5 64.5t97.5 185.5q0 55 -17.5 99t-60.5 81t-117 70t-186 67q-119 37 -212.5 74t-158 86t-99 117.5t-34.5 167.5q0 86 35.5 159.5t100 128t154 84t197.5 29.5q109 0 195 -25.5t151.5 -71.5t112.5 -108.5
t76 -134.5l-144 -80q-61 138 -159.5 197t-233.5 59q-145 0 -226 -62.5t-81 -160.5q0 -61 20.5 -103t67.5 -76t124 -64.5t187 -65.5q115 -35 205 -75t152.5 -92t95.5 -122t33 -166q0 -94 -39 -172t-110.5 -133t-171 -86t-220.5 -31q-217 0 -365.5 107.5t-207.5 288.5z
M414 -328l41 68q47 -31 99.5 -46.5t105.5 -15.5q73 0 107 25t34 68q0 69 -82 69q-33 0 -56.5 -12t-45.5 -29l-64 31l54 170h96l-31 -106q23 14 50.5 22t64.5 8q57 0 101 -35.5t44 -103.5q0 -96 -74.5 -141t-181.5 -45q-74 0 -141.5 19.5t-120.5 53.5z" />
    <glyph glyph-name="scedilla" unicode="&#x15f;" horiz-adv-x="1049" 
d="M78 0zM78 164l106 106q62 -65 145 -107t193 -42q127 0 193.5 43t66.5 127q0 82 -69.5 121t-208.5 71q-86 21 -158 45.5t-122 60.5t-78.5 89t-28.5 131q0 61 25.5 114.5t74.5 93.5t120 63.5t159 23.5q143 0 240.5 -42t172.5 -114l-92 -117q-61 58 -141 94t-172 36
q-119 0 -169 -44.5t-50 -101.5q0 -76 63.5 -111.5t192.5 -64.5q92 -23 167.5 -47.5t130 -62t84 -93t29.5 -139.5q0 -78 -32.5 -137.5t-91 -99.5t-137.5 -60t-171 -20q-147 0 -262 52t-180 132zM266 -328l41 68q47 -31 99.5 -46.5t105.5 -15.5q73 0 107 25t34 68q0 69 -82 69
q-33 0 -56.5 -12t-45.5 -29l-64 31l54 170h96l-31 -106q23 14 50.5 22t64.5 8q57 0 101 -35.5t44 -103.5q0 -96 -74.5 -141t-181.5 -45q-74 0 -141.5 19.5t-120.5 53.5z" />
    <glyph glyph-name="Scaron" unicode="&#x160;" horiz-adv-x="1346" 
d="M111 0zM111 367l151 67q57 -153 167 -228t263 -75q160 0 257.5 64.5t97.5 185.5q0 55 -17.5 99t-60.5 81t-117 70t-186 67q-119 37 -212.5 74t-158 86t-99 117.5t-34.5 167.5q0 86 35.5 159.5t100 128t154 84t197.5 29.5q109 0 195 -25.5t151.5 -71.5t112.5 -108.5
t76 -134.5l-144 -80q-61 138 -159.5 197t-233.5 59q-145 0 -226 -62.5t-81 -160.5q0 -61 20.5 -103t67.5 -76t124 -64.5t187 -65.5q115 -35 205 -75t152.5 -92t95.5 -122t33 -166q0 -94 -39 -172t-110.5 -133t-171 -86t-220.5 -31q-217 0 -365.5 107.5t-207.5 288.5z
M342 1958h108l221 -193l222 193h106l-264 -330h-129z" />
    <glyph glyph-name="scaron" unicode="&#x161;" horiz-adv-x="1049" 
d="M78 0zM78 164l106 106q62 -65 145 -107t193 -42q127 0 193.5 43t66.5 127q0 82 -69.5 121t-208.5 71q-86 21 -158 45.5t-122 60.5t-78.5 89t-28.5 131q0 61 25.5 114.5t74.5 93.5t120 63.5t159 23.5q143 0 240.5 -42t172.5 -114l-92 -117q-61 58 -141 94t-172 36
q-119 0 -169 -44.5t-50 -101.5q0 -76 63.5 -111.5t192.5 -64.5q92 -23 167.5 -47.5t130 -62t84 -93t29.5 -139.5q0 -78 -32.5 -137.5t-91 -99.5t-137.5 -60t-171 -20q-147 0 -262 52t-180 132zM194 1530h108l221 -193l222 193h106l-264 -330h-129z" />
    <glyph glyph-name="uni021A" unicode="&#x162;" horiz-adv-x="1276" 
d="M66 0zM540 -98h195v-181l-96 -229h-76l53 209h-76v201zM66 1350v166h1144v-166h-483v-1350h-180v1350h-481z" />
    <glyph glyph-name="uni021A" unicode="&#x21a;" horiz-adv-x="1276" 
d="M66 0zM540 -98h195v-181l-96 -229h-76l53 209h-76v201zM66 1350v166h1144v-166h-483v-1350h-180v1350h-481z" />
    <glyph glyph-name="uni021B" unicode="&#x163;" horiz-adv-x="770" 
d="M45 0zM252 -98h195v-181l-96 -229h-76l53 209h-76v201zM45 936v145h188v385h177v-385h280v-145h-280v-635q0 -86 34.5 -129t133.5 -43q28 0 58 4t52 10v-145q-22 -4 -67.5 -8t-85.5 -4q-170 0 -236 67.5t-66 208.5v674h-188z" />
    <glyph glyph-name="uni021B" unicode="&#x21b;" horiz-adv-x="770" 
d="M45 0zM252 -98h195v-181l-96 -229h-76l53 209h-76v201zM45 936v145h188v385h177v-385h280v-145h-280v-635q0 -86 34.5 -129t133.5 -43q28 0 58 4t52 10v-145q-22 -4 -67.5 -8t-85.5 -4q-170 0 -236 67.5t-66 208.5v674h-188z" />
    <glyph glyph-name="Tcaron" unicode="&#x164;" horiz-adv-x="1276" 
d="M66 0zM307 1942h108l221 -193l222 193h106l-264 -330h-129zM66 1350v166h1144v-166h-483v-1350h-180v1350h-481z" />
    <glyph glyph-name="tcaron" unicode="&#x165;" horiz-adv-x="770" 
d="M45 936v145h188v385h177v-385h280v-145h-280v-635q0 -86 34.5 -129t133.5 -43q28 0 58 4t52 10v-145q-22 -4 -67.5 -8t-85.5 -4q-170 0 -236 67.5t-66 208.5v674h-188zM541 1452v199h190v-176l-94 -226h-74l51 203h-73z" />
    <glyph glyph-name="Tbar" unicode="&#x166;" horiz-adv-x="1276" 
d="M66 674v145h483v531h-483v166h1144v-166h-483v-531h481v-145h-481v-674h-178v674h-483z" />
    <glyph glyph-name="tbar" unicode="&#x167;" horiz-adv-x="770" 
d="M45 500v129h188v309h-188v143h188v385h175v-385h280v-143h-280v-309h280v-129h-280v-199q0 -86 33.5 -129t131.5 -43q31 0 61 4t52 10v-145q-24 -4 -68.5 -8t-85.5 -4q-170 0 -234.5 67.5t-64.5 208.5v238h-188z" />
    <glyph glyph-name="Utilde" unicode="&#x168;" horiz-adv-x="1468" 
d="M172 0zM172 524v992h180v-967q0 -92 22.5 -168t70 -130t120 -85t172.5 -31q199 0 290 112.5t91 297.5v971h178v-988q0 -118 -34.5 -219.5t-105.5 -176.5t-175 -117t-246 -42q-145 0 -251.5 42t-176 116t-102.5 175.5t-33 217.5zM393 1604q0 129 48 186.5t141 57.5
q45 0 86 -18.5t77.5 -40t70.5 -39t67 -17.5q43 0 63.5 25.5t20.5 85.5h104q0 -127 -48 -185.5t-138 -58.5q-45 0 -86 17.5t-78 39t-71 40t-64 18.5q-45 0 -64.5 -26t-19.5 -85h-109z" />
    <glyph glyph-name="utilde" unicode="&#x169;" horiz-adv-x="1204" 
d="M145 0zM145 301v780h177v-743q0 -109 47 -160t151 -51q98 0 181 47t169 127v780h179v-1081h-179v162q-34 -35 -77 -68t-94.5 -58.5t-110 -40.5t-123.5 -15q-156 0 -238 83.5t-82 237.5zM264 1192q0 129 48 186.5t141 57.5q45 0 86 -18.5t77.5 -40t70.5 -39t67 -17.5
q43 0 63.5 25.5t20.5 85.5h104q0 -127 -48 -185.5t-138 -58.5q-45 0 -86 17.5t-78 39t-71 40t-64 18.5q-45 0 -64.5 -26t-19.5 -85h-109z" />
    <glyph glyph-name="Umacron" unicode="&#x16a;" horiz-adv-x="1468" 
d="M172 0zM172 524v992h180v-967q0 -92 22.5 -168t70 -130t120 -85t172.5 -31q199 0 290 112.5t91 297.5v971h178v-988q0 -118 -34.5 -219.5t-105.5 -176.5t-175 -117t-246 -42q-145 0 -251.5 42t-176 116t-102.5 175.5t-33 217.5zM457 1606v141h552v-141h-552z" />
    <glyph glyph-name="umacron" unicode="&#x16b;" horiz-adv-x="1204" 
d="M145 0zM145 301v780h177v-743q0 -109 47 -160t151 -51q98 0 181 47t169 127v780h179v-1081h-179v162q-34 -35 -77 -68t-94.5 -58.5t-110 -40.5t-123.5 -15q-156 0 -238 83.5t-82 237.5zM324 1194v141h552v-141h-552z" />
    <glyph glyph-name="Ubreve" unicode="&#x16c;" horiz-adv-x="1468" 
d="M172 0zM172 524v992h180v-967q0 -92 22.5 -168t70 -130t120 -85t172.5 -31q199 0 290 112.5t91 297.5v971h178v-988q0 -118 -34.5 -219.5t-105.5 -176.5t-175 -117t-246 -42q-145 0 -251.5 42t-176 116t-102.5 175.5t-33 217.5zM416 1942h106q14 -119 69.5 -166
t141.5 -47t141.5 47t69.5 166h106q-8 -156 -91 -250t-226 -94t-226 94t-91 250z" />
    <glyph glyph-name="ubreve" unicode="&#x16d;" horiz-adv-x="1204" 
d="M145 0zM145 301v780h177v-743q0 -109 47 -160t151 -51q98 0 181 47t169 127v780h179v-1081h-179v162q-34 -35 -77 -68t-94.5 -58.5t-110 -40.5t-123.5 -15q-156 0 -238 83.5t-82 237.5zM283 1530h106q14 -119 69.5 -166t141.5 -47t141.5 47t69.5 166h106
q-8 -156 -91 -250t-226 -94t-226 94t-91 250z" />
    <glyph glyph-name="Uring" unicode="&#x16e;" horiz-adv-x="1468" 
d="M172 0zM538 1788q0 82 54.5 136.5t140.5 54.5t140.5 -54.5t54.5 -136.5q0 -84 -54.5 -139t-140.5 -55t-140.5 55t-54.5 139zM626 1788q0 -49 30 -80.5t77 -31.5t76.5 31.5t29.5 80.5q0 47 -29.5 79t-76.5 32t-77 -32t-30 -79zM172 524v992h180v-967q0 -92 22.5 -168
t70 -130t120 -85t172.5 -31q199 0 290 112.5t91 297.5v971h178v-988q0 -118 -34.5 -219.5t-105.5 -176.5t-175 -117t-246 -42q-145 0 -251.5 42t-176 116t-102.5 175.5t-33 217.5z" />
    <glyph glyph-name="uring" unicode="&#x16f;" horiz-adv-x="1204" 
d="M145 0zM405 1376q0 82 54.5 136.5t140.5 54.5t140.5 -54.5t54.5 -136.5q0 -84 -54.5 -139t-140.5 -55t-140.5 55t-54.5 139zM493 1376q0 -49 30 -80.5t77 -31.5t76.5 31.5t29.5 80.5q0 47 -29.5 79t-76.5 32t-77 -32t-30 -79zM145 301v780h177v-743q0 -109 47 -160
t151 -51q98 0 181 47t169 127v780h179v-1081h-179v162q-34 -35 -77 -68t-94.5 -58.5t-110 -40.5t-123.5 -15q-156 0 -238 83.5t-82 237.5z" />
    <glyph glyph-name="Uhungarumlaut" unicode="&#x170;" horiz-adv-x="1468" 
d="M172 0zM172 524v992h180v-967q0 -92 22.5 -168t70 -130t120 -85t172.5 -31q199 0 290 112.5t91 297.5v971h178v-988q0 -118 -34.5 -219.5t-105.5 -176.5t-175 -117t-246 -42q-145 0 -251.5 42t-176 116t-102.5 175.5t-33 217.5zM449 1610l198 324h217l-297 -324h-118z
M789 1610l204 324h218l-302 -324h-120z" />
    <glyph glyph-name="uhungarumlaut" unicode="&#x171;" horiz-adv-x="1204" 
d="M145 0zM145 301v780h177v-743q0 -109 47 -160t151 -51q98 0 181 47t169 127v780h179v-1081h-179v162q-34 -35 -77 -68t-94.5 -58.5t-110 -40.5t-123.5 -15q-156 0 -238 83.5t-82 237.5zM324 1198l198 324h217l-297 -324h-118zM664 1198l204 324h218l-302 -324h-120z" />
    <glyph glyph-name="Uogonek" unicode="&#x172;" horiz-adv-x="1468" 
d="M172 0zM555 -225q0 63 53.5 126.5t129.5 110.5h108q-73 -51 -113 -104t-40 -107q0 -41 23.5 -67.5t80.5 -26.5q53 0 98.5 13.5t92.5 35.5l36 -61q-63 -35 -130.5 -56.5t-139.5 -21.5q-94 0 -146.5 42t-52.5 116zM172 524v992h180v-967q0 -92 22.5 -168t70 -130t120 -85
t172.5 -31q199 0 290 112.5t91 297.5v971h178v-988q0 -118 -34.5 -219.5t-105.5 -176.5t-175 -117t-246 -42q-145 0 -251.5 42t-176 116t-102.5 175.5t-33 217.5z" />
    <glyph glyph-name="uogonek" unicode="&#x173;" horiz-adv-x="1204" 
d="M145 0zM700 -225q0 63 53.5 126.5t129.5 110.5h108q-73 -51 -113 -104t-40 -107q0 -41 23.5 -67.5t80.5 -26.5q53 0 98.5 13.5t92.5 35.5l36 -61q-63 -35 -130.5 -56.5t-139.5 -21.5q-94 0 -146.5 42t-52.5 116zM145 301v780h177v-743q0 -109 47 -160t151 -51
q98 0 181 47t169 127v780h179v-1081h-179v162q-34 -35 -77 -68t-94.5 -58.5t-110 -40.5t-123.5 -15q-156 0 -238 83.5t-82 237.5z" />
    <glyph glyph-name="Wcircumflex" unicode="&#x174;" horiz-adv-x="1907" 
d="M74 0zM623 1604l264 330h129l264 -330h-106l-224 192l-221 -192h-106zM74 1516h182l223 -879q27 -100 49.5 -194.5t38.5 -176.5h4q17 80 38.5 175.5t47.5 193.5l211 881h183l217 -887q24 -103 45.5 -189t38.5 -174h4q18 92 38.5 174t45.5 183l221 893h172l-401 -1516
h-166l-305 1268h-5l-313 -1268h-166z" />
    <glyph glyph-name="wcircumflex" unicode="&#x175;" horiz-adv-x="1542" 
d="M45 0zM441 1192l264 330h129l264 -330h-106l-224 192l-221 -192h-106zM45 1081h182l142 -508q14 -49 25.5 -92t22.5 -85t22.5 -87t23.5 -96h4q14 57 25.5 102t21.5 86t21.5 83t25.5 91l137 506h154l141 -516q15 -49 26 -90t21.5 -82t20.5 -84t22 -96h4q15 53 26 96
t21.5 83t21.5 81t26 88l147 520h166l-330 -1081h-164l-229 846h-4l-231 -846h-162z" />
    <glyph glyph-name="Ycircumflex" unicode="&#x176;" horiz-adv-x="1292" 
d="M45 0zM45 1516h193l411 -699l410 699h188l-512 -852v-664h-180v664zM316 1604l264 330h129l264 -330h-106l-224 192l-221 -192h-106z" />
    <glyph glyph-name="ycircumflex" unicode="&#x177;" horiz-adv-x="1092" 
d="M14 0zM14 -389l41 141q23 -6 63 -12t97 -6q84 0 129 36.5t78 116.5l41 107l-418 1087h186l318 -874h4l317 874h179l-463 -1204q-29 -72 -59.5 -126t-73.5 -91t-99.5 -56.5t-136.5 -19.5q-72 0 -120 8.5t-83 18.5zM221 1192l264 330h129l264 -330h-106l-224 192l-221 -192
h-106z" />
    <glyph glyph-name="Ydieresis" unicode="&#x178;" horiz-adv-x="1292" 
d="M45 0zM45 1516h193l411 -699l410 699h188l-512 -852v-664h-180v664zM367 1608v192h180v-192h-180zM739 1608v192h183v-192h-183z" />
    <glyph glyph-name="Zacute" unicode="&#x179;" horiz-adv-x="1290" 
d="M82 0zM510 1610l192 324h215l-290 -324h-117zM82 0v127l887 1237h-830v152h1051v-132l-881 -1234h881v-150h-1108z" />
    <glyph glyph-name="zacute" unicode="&#x17a;" horiz-adv-x="1044" 
d="M80 0zM404 1198l192 324h215l-290 -324h-117zM80 0v106l633 832h-584v143h805v-110l-635 -830h666v-141h-885z" />
    <glyph glyph-name="Zdotaccent" unicode="&#x17b;" horiz-adv-x="1290" 
d="M82 0zM82 0v127l887 1237h-830v152h1051v-132l-881 -1234h881v-150h-1108zM541 1618v185h204v-185h-204z" />
    <glyph glyph-name="zdotaccent" unicode="&#x17c;" horiz-adv-x="1044" 
d="M80 0zM80 0v106l633 832h-584v143h805v-110l-635 -830h666v-141h-885zM420 1206v185h204v-185h-204z" />
    <glyph glyph-name="Zcaron" unicode="&#x17d;" horiz-adv-x="1290" 
d="M82 0zM82 0v127l887 1237h-830v152h1051v-132l-881 -1234h881v-150h-1108zM320 1958h108l221 -193l222 193h106l-264 -330h-129z" />
    <glyph glyph-name="zcaron" unicode="&#x17e;" horiz-adv-x="1044" 
d="M80 0zM80 0v106l633 832h-584v143h805v-110l-635 -830h666v-141h-885zM196 1530h108l221 -193l222 193h106l-264 -330h-129z" />
    <glyph glyph-name="longs" unicode="&#x17f;" horiz-adv-x="705" 
d="M240 0v1227q0 137 76.5 215t248.5 78q23 0 55.5 -3.5t45.5 -3.5v-143q-13 4 -35.5 5t-40.5 1q-74 0 -124 -31.5t-50 -119.5v-1225h-176z" />
    <glyph glyph-name="florin" unicode="&#x192;" horiz-adv-x="715" 
d="M-193 -406l19 134q10 -2 32.5 -3t41.5 -1q80 0 133 36.5t63 124.5l131 953h-188l18 137h189l33 252q18 141 103 217t261 76q25 0 56.5 -3.5t45.5 -3.5l-20 -137q-10 2 -32.5 3t-41.5 1q-73 0 -129.5 -31.5t-66.5 -119.5l-33 -254h237l-18 -137h-238l-133 -969
q-18 -135 -102 -208t-260 -73q-25 0 -56.5 2t-44.5 4z" />
    <glyph glyph-name="Ohorn" unicode="&#x1a0;" horiz-adv-x="1533" 
d="M115 758q0 182 50.5 327.5t138.5 247.5t207 156.5t257 54.5q136 0 255 -54.5t207 -156.5t138.5 -247.5t50.5 -327.5t-50.5 -328t-138.5 -248t-207 -156.5t-255 -54.5q-138 0 -257 54.5t-207 156.5t-138.5 248t-50.5 328zM293 758q0 -148 35 -266t98 -200t150.5 -126
t191.5 -44q103 0 190 44t149.5 126t97.5 200t35 266t-35 265.5t-97.5 199t-149.5 125t-190 43.5q-104 0 -191.5 -43.5t-150.5 -125t-98 -199t-35 -265.5zM1122 1334v99q31 0 50.5 5t30.5 15t15.5 25.5t4.5 35.5h-63v186h172v-173q0 -94 -55.5 -143.5t-154.5 -49.5z" />
    <glyph glyph-name="ohorn" unicode="&#x1a1;" 
d="M96 540q0 140 41 245.5t110 176t160 106t191 35.5q99 0 189.5 -35.5t160 -106t110.5 -176t41 -245.5q0 -138 -41 -243.5t-110.5 -176.5t-160 -107t-189.5 -36t-190 36t-160.5 107t-110.5 176.5t-41 243.5zM271 541q0 -86 20 -163.5t61 -136.5t102 -94t144 -35
q77 0 137.5 32t102 89.5t63.5 136t22 171.5q0 85 -20.5 162t-61 135.5t-101.5 93t-142 34.5q-78 0 -139 -32t-102.5 -89t-63.5 -135t-22 -169zM884 914v99q29 0 48 5t29.5 15t14.5 25t4 36h-63v186h172v-174q0 -94 -54 -143t-151 -49z" />
    <glyph glyph-name="Uhorn" unicode="&#x1af;" horiz-adv-x="1469" 
d="M173 524v992h179v-973q0 -91 22.5 -168t69.5 -132.5t119.5 -87t173.5 -31.5q99 0 171.5 30.5t119 85.5t69 131.5t22.5 168.5v976h178v-987q0 -118 -34.5 -219.5t-104.5 -176.5t-176 -118t-248 -43t-247.5 42.5t-175 116.5t-104 175t-34.5 218zM1242 1418v98q29 0 47.5 5
t29 15.5t14.5 25.5t4 36h-62v186h171v-174q0 -94 -54 -143.5t-150 -48.5z" />
    <glyph glyph-name="uhorn" unicode="&#x1b0;" horiz-adv-x="1210" 
d="M147 295v786h175v-746q0 -107 47 -160t153 -53q97 0 181.5 47t169.5 127v785h175v-1081h-175v176q-38 -39 -82 -74.5t-94 -63.5t-107 -44.5t-120 -16.5q-159 0 -241 81.5t-82 236.5zM993 982v99q29 0 47.5 5t29 15.5t14.5 25.5t4 36h-63v186h172v-174q0 -94 -54 -143.5
t-150 -49.5z" />
    <glyph glyph-name="Aringacute" unicode="&#x1fa;" horiz-adv-x="1384" 
d="M66 0zM539 1884l192 324h215l-290 -324h-117zM66 0l520 1477q-39 24 -61.5 66t-22.5 95q0 82 54 136.5t140 54.5t140.5 -54.5t54.5 -136.5q0 -53 -22.5 -95t-61.5 -66l520 -1477h-186l-150 434h-602l-149 -434h-174zM444 592h492l-242 711h-4zM590 1638q0 -49 29.5 -80.5
t76.5 -31.5t77 31.5t30 80.5q0 48 -30 79.5t-77 31.5t-76.5 -31.5t-29.5 -79.5z" />
    <glyph glyph-name="aringacute" unicode="&#x1fb;" horiz-adv-x="1124" 
d="M90 0zM395 1653l192 324h215l-290 -324h-117zM90 256q0 82 38 151.5t123 127t223 100.5t339 72v49q0 200 -205 200q-123 0 -217 -47t-174 -116l-92 110q94 86 217 143.5t285 57.5q96 0 164.5 -24.5t111.5 -70.5t63.5 -114t20.5 -152v-477q0 -98 7 -161.5t24 -104.5h-180
q-11 35 -18 68.5t-7 81.5q-178 -166 -418 -166q-141 0 -223 70.5t-82 201.5zM264 283q0 -78 48 -119t134 -41q109 0 200 42t167 116v303q-154 -25 -259 -55.5t-170 -68.5t-92.5 -82t-27.5 -95zM395 1376q0 82 54.5 136.5t140.5 54.5t140.5 -54.5t54.5 -136.5
q0 -84 -54.5 -139t-140.5 -55t-140.5 55t-54.5 139zM483 1376q0 -49 30 -80.5t77 -31.5t76.5 31.5t29.5 80.5q0 47 -29.5 79t-76.5 32t-77 -32t-30 -79z" />
    <glyph glyph-name="AEacute" unicode="&#x1fc;" horiz-adv-x="2087" 
d="M51 0zM889 1606l192 324h215l-290 -324h-117zM51 0l862 1516h1022v-166h-747v-473h555v-162h-555v-551h790v-164h-968v467h-512l-265 -467h-182zM588 627h422v741h-2z" />
    <glyph glyph-name="aeacute" unicode="&#x1fd;" horiz-adv-x="1845" 
d="M88 0zM756 1198l192 324h215l-290 -324h-117zM88 250q0 82 38 153.5t123 129t223 101.5t339 73v49q0 200 -205 200q-123 0 -217 -47t-174 -116l-90 110q94 86 216 143.5t284 57.5q143 0 212.5 -58.5t94.5 -148.5q51 88 144 147.5t208 59.5q92 0 174 -34t143.5 -104.5
t97.5 -178t36 -255.5v-30h-762q2 -94 27.5 -165t69.5 -119t102.5 -72.5t125.5 -24.5q115 0 189 46t135 130l102 -90q-75 -109 -180.5 -169.5t-259.5 -60.5q-125 0 -230.5 55.5t-170.5 174.5q-107 -111 -221.5 -170.5t-268.5 -59.5q-141 0 -223 72t-82 201zM262 276
q0 -77 48 -117t134 -40q213 0 396 190q-31 88 -31 205v43q0 21 2 31q-154 -25 -259.5 -57.5t-170 -72.5t-92 -85t-27.5 -97zM977 633h590q-11 145 -80.5 234t-204.5 89q-55 0 -105.5 -19t-92.5 -59t-70.5 -100.5t-36.5 -144.5z" />
    <glyph glyph-name="Oslashacute" unicode="&#x1fe;" horiz-adv-x="1542" 
d="M113 0zM113 758q0 182 50 328.5t137 248t207 155.5t261 54q121 0 225.5 -40t186.5 -115l135 167l98 -73l-147 -189q71 -100 112 -235t41 -301q0 -183 -49 -329t-136 -247.5t-206 -156t-260 -54.5q-121 0 -225.5 40t-190.5 116l-133 -168l-100 74l149 188
q-73 101 -114 236t-41 301zM291 758q0 -123 23.5 -223.5t68.5 -178.5l694 897q-121 131 -309 131q-104 0 -192.5 -42t-151 -122.5t-98 -197.5t-35.5 -264zM453 262q127 -133 315 -133q104 0 190 43t149.5 124t98.5 197.5t35 264.5q0 123 -23.5 222t-68.5 177zM602 1606
l192 324h215l-290 -324h-117z" />
    <glyph glyph-name="oslashacute" unicode="&#x1ff;" horiz-adv-x="1112" 
d="M94 0zM94 541q0 139 41 244.5t110.5 176t161 106.5t191.5 36q164 0 291 -90l106 135l88 -74l-110 -139q59 -72 93 -169t34 -226q0 -140 -41 -245.5t-110.5 -176t-161 -106.5t-189.5 -36q-78 0 -152.5 23t-136.5 68l-110 -140l-86 74l112 141q-59 72 -95 170.5t-36 227.5z
M268 541q0 -76 15.5 -144.5t48.5 -126.5l463 617q-39 35 -88.5 53t-108.5 18q-78 0 -139.5 -30.5t-103.5 -86t-64.5 -132t-22.5 -168.5zM399 188q39 -32 89.5 -50.5t109.5 -18.5q78 0 138.5 30.5t102.5 87t64.5 134.5t22.5 170q0 73 -15.5 141t-46.5 121zM432 1198l192 324
h215l-290 -324h-117z" />
    <glyph glyph-name="Scommaaccent" unicode="&#x218;" horiz-adv-x="1346" 
d="M111 0zM575 -98h195v-181l-96 -229h-76l53 209h-76v201zM111 367l151 67q57 -153 167 -228t263 -75q160 0 257.5 64.5t97.5 185.5q0 55 -17.5 99t-60.5 81t-117 70t-186 67q-119 37 -212.5 74t-158 86t-99 117.5t-34.5 167.5q0 86 35.5 159.5t100 128t154 84t197.5 29.5
q109 0 195 -25.5t151.5 -71.5t112.5 -108.5t76 -134.5l-144 -80q-61 138 -159.5 197t-233.5 59q-145 0 -226 -62.5t-81 -160.5q0 -61 20.5 -103t67.5 -76t124 -64.5t187 -65.5q115 -35 205 -75t152.5 -92t95.5 -122t33 -166q0 -94 -39 -172t-110.5 -133t-171 -86t-220.5 -31
q-217 0 -365.5 107.5t-207.5 288.5z" />
    <glyph glyph-name="scommaaccent" unicode="&#x219;" horiz-adv-x="1049" 
d="M78 0zM426 -98h195v-181l-96 -229h-76l53 209h-76v201zM78 164l106 106q62 -65 145 -107t193 -42q127 0 193.5 43t66.5 127q0 82 -69.5 121t-208.5 71q-86 21 -158 45.5t-122 60.5t-78.5 89t-28.5 131q0 61 25.5 114.5t74.5 93.5t120 63.5t159 23.5q143 0 240.5 -42
t172.5 -114l-92 -117q-61 58 -141 94t-172 36q-119 0 -169 -44.5t-50 -101.5q0 -76 63.5 -111.5t192.5 -64.5q92 -23 167.5 -47.5t130 -62t84 -93t29.5 -139.5q0 -78 -32.5 -137.5t-91 -99.5t-137.5 -60t-171 -20q-147 0 -262 52t-180 132z" />
    <glyph glyph-name="circumflex" unicode="&#x2c6;" horiz-adv-x="1061" 
d="M201 1192l264 330h129l264 -330h-106l-224 192l-221 -192h-106z" />
    <glyph glyph-name="ring" unicode="&#x2da;" horiz-adv-x="1106" 
d="M358 1376q0 82 54.5 136.5t140.5 54.5t140.5 -54.5t54.5 -136.5q0 -84 -54.5 -139t-140.5 -55t-140.5 55t-54.5 139zM446 1376q0 -49 30 -80.5t77 -31.5t76.5 31.5t29.5 80.5q0 47 -29.5 79t-76.5 32t-77 -32t-30 -79z" />
    <glyph glyph-name="tilde" unicode="&#x2dc;" horiz-adv-x="1040" 
d="M180 1192q0 129 48 186.5t141 57.5q45 0 86 -18.5t77.5 -40t70.5 -39t67 -17.5q43 0 63.5 25.5t20.5 85.5h104q0 -127 -48 -185.5t-138 -58.5q-45 0 -86 17.5t-78 39t-71 40t-64 18.5q-45 0 -64.5 -26t-19.5 -85h-109z" />
    <glyph glyph-name="tonos" unicode="&#x384;" horiz-adv-x="1024" 
d="M358 1194l134 340h192l-209 -340h-117z" />
    <glyph glyph-name="dieresistonos" unicode="&#x385;" horiz-adv-x="1053" 
d="M164 1194v190h160v-190h-160zM397 1194l133 340h193l-211 -340h-115zM731 1194v190h158v-190h-158z" />
    <glyph glyph-name="Alphatonos" unicode="&#x386;" horiz-adv-x="1411" 
d="M23 0zM84 0l536 1522h189l536 -1522h-186l-150 434h-602l-149 -434h-174zM462 592h492l-242 711h-4zM23 1177l134 340h192l-209 -340h-117z" />
    <glyph glyph-name="Epsilontonos" unicode="&#x388;" horiz-adv-x="1499" 
d="M0 0zM-44 1177l134 340h192l-209 -340h-117zM438 0v1516h930v-166h-749v-473h557v-162h-557v-551h792v-164h-973z" />
    <glyph glyph-name="Etatonos" unicode="&#x389;" horiz-adv-x="1765" 
d="M0 0zM-44 1177l134 340h192l-209 -340h-117zM438 0v1516h181v-635h780v635h180v-1516h-180v715h-780v-715h-181z" />
    <glyph glyph-name="Iotatonos" unicode="&#x38a;" horiz-adv-x="846" 
d="M0 0zM459 0v1516h180v-1516h-180zM-44 1177l134 340h192l-209 -340h-117z" />
    <glyph glyph-name="Omicrontonos" unicode="&#x38c;" horiz-adv-x="1718" 
d="M0 0zM-44 1177l134 340h192l-209 -340h-117zM297 758q0 182 50 328.5t137 248t207 155.5t261 54t260 -54t206 -155.5t136 -248t49 -328.5q0 -183 -49 -329t-136 -247.5t-206 -156t-260 -54.5t-261 54.5t-207 156t-137 247.5t-50 329zM479 758q0 -148 35 -264.5t97 -196.5
t149.5 -122t191.5 -42q102 0 189 42t149.5 122t97.5 196.5t35 264.5q0 147 -35 263t-97.5 195.5t-149.5 121.5t-189 42q-104 0 -191.5 -42t-149.5 -121.5t-97 -195.5t-35 -263z" />
    <glyph glyph-name="Upsilontonos" unicode="&#x38e;" horiz-adv-x="1628" 
d="M0 0zM381 1516h193l411 -699l410 699h188l-512 -852v-664h-180v664zM-44 1177l134 340h192l-209 -340h-117z" />
    <glyph glyph-name="Omegatonos" unicode="&#x38f;" horiz-adv-x="1712" 
d="M0 0zM313 809q0 149 42 282.5t123 234.5t198.5 160.5t269.5 59.5q154 0 272.5 -60.5t198.5 -161.5t121 -235.5t41 -279.5q0 -205 -90 -376t-244 -288h317v-145h-481v145q146 123 234 283t88 379q0 123 -31 230.5t-89.5 187.5t-143.5 126t-195 46q-107 0 -191 -43
t-142 -122t-90 -186.5t-32 -236.5q0 -221 88 -381t234 -283v-145h-484v145h318q-154 113 -243 287t-89 377zM-44 1177l134 340h192l-209 -340h-117z" />
    <glyph glyph-name="iotadieresistonos" unicode="&#x390;" horiz-adv-x="512" 
d="M0 0zM-111 1194v190h160v-190h-160zM122 1194l133 340h193l-211 -340h-115zM456 1194v190h158v-190h-158zM168 0v1081h176v-1081h-176z" />
    <glyph glyph-name="Alpha" unicode="&#x391;" horiz-adv-x="1393" 
d="M66 0zM66 0l536 1522h189l536 -1522h-186l-150 434h-602l-149 -434h-174zM444 592h492l-242 711h-4z" />
    <glyph glyph-name="Beta" unicode="&#x392;" horiz-adv-x="1415" 
d="M186 0zM186 0v1516h543q248 0 383 -94.5t135 -284.5q0 -78 -21.5 -137.5t-60.5 -102.5t-90 -70.5t-108 -40.5v-4q69 -12 129.5 -40.5t104.5 -73.5t69.5 -108.5t25.5 -145.5q0 -193 -135 -303.5t-389 -110.5h-586zM365 158h395q186 0 272 68.5t86 199.5
q0 143 -105.5 207.5t-289.5 64.5h-358v-540zM365 854h348q172 0 265 61.5t93 192.5t-84 189.5t-270 58.5h-352v-502z" />
    <glyph glyph-name="Gamma" unicode="&#x393;" horiz-adv-x="1167" 
d="M186 0v1516h912v-150h-736v-1366h-176z" />
    <glyph glyph-name="Delta" unicode="&#x394;" horiz-adv-x="1384" 
d="M61 0l547 1524h168l547 -1524h-1262zM276 145h820l-406 1147h-4z" />
    <glyph glyph-name="Epsilon" unicode="&#x395;" horiz-adv-x="1247" 
d="M186 0zM186 0v1516h930v-166h-749v-473h557v-162h-557v-551h792v-164h-973z" />
    <glyph glyph-name="Zeta" unicode="&#x396;" horiz-adv-x="1290" 
d="M82 0zM82 0v127l887 1237h-830v152h1051v-132l-881 -1234h881v-150h-1108z" />
    <glyph glyph-name="Eta" unicode="&#x397;" horiz-adv-x="1513" 
d="M186 0zM186 0v1516h181v-635h780v635h180v-1516h-180v715h-780v-715h-181z" />
    <glyph glyph-name="Theta" unicode="&#x398;" horiz-adv-x="1534" 
d="M113 758q0 182 50 328.5t137 248t207 155.5t261 54t260 -54t206 -155.5t136 -248t49 -328.5q0 -183 -49 -329t-136 -247.5t-206 -156t-260 -54.5t-261 54.5t-207 156t-137 247.5t-50 329zM295 758q0 -148 35 -264.5t97 -196.5t149.5 -122t191.5 -42q102 0 189 42
t149.5 122t97.5 196.5t35 264.5q0 147 -35 263t-97.5 195.5t-149.5 121.5t-189 42q-104 0 -191.5 -42t-149.5 -121.5t-97 -195.5t-35 -263zM537 696v140h477v-140h-477z" />
    <glyph glyph-name="Iota" unicode="&#x399;" horiz-adv-x="594" 
d="M207 0zM207 0v1516h180v-1516h-180z" />
    <glyph glyph-name="Kappa" unicode="&#x39a;" horiz-adv-x="1389" 
d="M186 0zM186 0v1516h181v-783l686 783h217l-520 -578l591 -938h-206l-504 801l-264 -289v-512h-181z" />
    <glyph glyph-name="Lambda" unicode="&#x39b;" horiz-adv-x="1364" 
d="M66 0zM1298 0.0927734h-183.988l-433.974 1279.92h-4l-435.974 -1279.92h-173.989l531.968 1521.91h167.989z" />
    <glyph glyph-name="Mu" unicode="&#x39c;" horiz-adv-x="1798" 
d="M186 0zM186 0v1516h236l477 -1289h4l469 1289h240v-1516h-178v1227h-4q-17 -60 -41.5 -131.5t-51.5 -147.5l-362 -948h-162l-362 948q-15 37 -26 70t-22.5 65.5t-22.5 68.5t-24 81h-4v-1233h-166z" />
    <glyph glyph-name="Nu" unicode="&#x39d;" horiz-adv-x="1534" 
d="M186 0zM186 0v1516h191l797 -1199h4v1199h170v-1516h-162l-826 1231h-4v-1231h-170z" />
    <glyph glyph-name="Xi" unicode="&#x39e;" horiz-adv-x="1182" 
d="M92 0v145h414v578h-273v141h273v502h-400v150h967v-150h-397v-502h272v-141h-272v-578h414v-145h-998z" />
    <glyph glyph-name="Omicron" unicode="&#x39f;" horiz-adv-x="1534" 
d="M113 0zM113 758q0 182 50 328.5t137 248t207 155.5t261 54t260 -54t206 -155.5t136 -248t49 -328.5q0 -183 -49 -329t-136 -247.5t-206 -156t-260 -54.5t-261 54.5t-207 156t-137 247.5t-50 329zM295 758q0 -148 35 -264.5t97 -196.5t149.5 -122t191.5 -42q102 0 189 42
t149.5 122t97.5 196.5t35 264.5q0 147 -35 263t-97.5 195.5t-149.5 121.5t-189 42q-104 0 -191.5 -42t-149.5 -121.5t-97 -195.5t-35 -263z" />
    <glyph glyph-name="Pi" unicode="&#x3a0;" horiz-adv-x="1491" 
d="M186 0v1516h1119v-1516h-177v1366h-766v-1366h-176z" />
    <glyph glyph-name="Rho" unicode="&#x3a1;" horiz-adv-x="1329" 
d="M186 0zM186 0v1516h514q123 0 223.5 -25t173 -77t111.5 -134t39 -195q0 -120 -43 -205t-117.5 -138.5t-177 -77t-221.5 -23.5h-321v-641h-181zM367 801h331q183 0 277 62.5t94 215.5q0 148 -93 210.5t-280 62.5h-329v-551z" />
    <glyph glyph-name="Sigma" unicode="&#x3a3;" horiz-adv-x="1219" 
d="M109 0v127l475 659l-451 582v148h952v-150h-747l444 -573l-465 -648h793v-145h-1001z" />
    <glyph glyph-name="Tau" unicode="&#x3a4;" horiz-adv-x="1276" 
d="M66 0zM66 1350v166h1144v-166h-483v-1350h-180v1350h-481z" />
    <glyph glyph-name="Upsilon" unicode="&#x3a5;" horiz-adv-x="1292" 
d="M45 0zM45 1516h193l411 -699l410 699h188l-512 -852v-664h-180v664z" />
    <glyph glyph-name="Phi" unicode="&#x3a6;" horiz-adv-x="1679" 
d="M115 774q0 135 47 240.5t132 178.5t202.5 114t257.5 47v162h170v-162q141 -6 258.5 -47t201.5 -115t131.5 -178.5t47.5 -237.5t-47.5 -237.5t-131.5 -177t-201.5 -114.5t-258.5 -50v-197h-170v197q-142 8 -259.5 49t-202.5 113.5t-131 177t-46 237.5zM285 776
q0 -104 34.5 -184t98 -135.5t148.5 -85t188 -35.5v878q-101 -4 -187 -33.5t-148.5 -86t-98 -136t-35.5 -182.5zM924 336q98 4 184 33.5t149.5 85t99.5 136.5t36 185q0 107 -37 187.5t-99.5 135t-148.5 83t-184 32.5v-878z" />
    <glyph glyph-name="Chi" unicode="&#x3a7;" horiz-adv-x="1372" 
d="M66 0zM66 0l520 809l-457 707h207l358 -564l353 564h190l-453 -705l523 -811h-197l-428 668l-430 -668h-186z" />
    <glyph glyph-name="Psi" unicode="&#x3a8;" horiz-adv-x="1516" 
d="M127 924v592h170v-596q0 -99 27.5 -171.5t77 -121.5t119 -75t153.5 -30v994h170v-994q84 4 153.5 27.5t119.5 72t78 121t28 177.5v596h170v-592q0 -154 -48.5 -257.5t-126 -167t-176 -92t-198.5 -32.5v-375h-170v375q-103 4 -200 32.5t-175 92t-125 167t-47 257.5z" />
    <glyph glyph-name="Omega" unicode="&#x3a9;" horiz-adv-x="1532" 
d="M133 809q0 149 42 282.5t123 234.5t198.5 160.5t269.5 59.5q154 0 272.5 -60.5t198.5 -161.5t121 -235.5t41 -279.5q0 -205 -90 -376t-244 -288h317v-145h-481v145q146 123 234 283t88 379q0 123 -31 230.5t-89.5 187.5t-143.5 126t-195 46q-107 0 -191 -43t-142 -122
t-90 -186.5t-32 -236.5q0 -221 88 -381t234 -283v-145h-484v145h318q-154 113 -243 287t-89 377z" />
    <glyph glyph-name="Iotadieresis" unicode="&#x3aa;" horiz-adv-x="594" 
d="M20 0zM207 0v1516h180v-1516h-180zM20 1608v192h180v-192h-180zM392 1608v192h183v-192h-183z" />
    <glyph glyph-name="Upsilondieresis" unicode="&#x3ab;" horiz-adv-x="1292" 
d="M45 0zM45 1516h193l411 -699l410 699h188l-512 -852v-664h-180v664zM367 1608v192h180v-192h-180zM739 1608v192h183v-192h-183z" />
    <glyph glyph-name="alphatonos" unicode="&#x3ac;" horiz-adv-x="1227" 
d="M96 0zM536 1194l134 340h192l-209 -340h-117zM96 539q0 141 35 246.5t96.5 176t146.5 106.5t183 36t183 -43t153 -115v135h176v-1081h-176v154q-66 -72 -150 -121t-206 -49q-93 0 -173.5 33.5t-140 102t-93.5 173t-34 246.5zM272 537q0 -105 23.5 -180.5t64.5 -127
t97.5 -76t122.5 -24.5q94 0 169.5 46t143.5 120v496q-72 79 -148.5 121t-162.5 42q-142 0 -226 -101t-84 -316z" />
    <glyph glyph-name="epsilontonos" unicode="&#x3ad;" horiz-adv-x="1059" 
d="M98 0zM479 1194l134 340h192l-209 -340h-117zM98 285q0 61 20.5 110t54.5 86t79 60.5t96 33.5q-94 19 -147.5 84.5t-53.5 151.5q0 131 103.5 213t290.5 82q123 0 219 -25.5t176 -79.5l-59 -112q-72 47 -156 67.5t-162 20.5q-127 0 -190.5 -54.5t-63.5 -131.5
q0 -89 67.5 -128.5t170.5 -39.5h202v-109h-243q-47 0 -91 -13.5t-77 -39t-52.5 -63.5t-19.5 -89q0 -88 62.5 -144t222.5 -56q182 0 358 110l64 -110q-92 -60 -199.5 -96t-243.5 -36q-116 0 -197 24t-132.5 66t-75 97t-23.5 121z" />
    <glyph glyph-name="etatonos" unicode="&#x3ae;" horiz-adv-x="1204" 
d="M154 0zM565 1194l134 340h192l-209 -340h-117zM154 0v1083h172v-182q24 27 64 62.5t93.5 67.5t118 53.5t139.5 21.5q160 0 243 -83t83 -251v-1182h-174v1137q0 117 -51 175.5t-164 58.5q-100 0 -188.5 -51.5t-163.5 -118.5v-791h-172z" />
    <glyph glyph-name="iotatonos" unicode="&#x3af;" horiz-adv-x="512" 
d="M168 0zM193 1194l134 340h192l-209 -340h-117zM168 0v1081h176v-1081h-176z" />
    <glyph glyph-name="upsilondieresistonos" unicode="&#x3b0;" horiz-adv-x="1214" 
d="M145 0zM227 1194v190h160v-190h-160zM460 1194l133 340h193l-211 -340h-115zM794 1194v190h158v-190h-158zM145 457v626h172v-624q0 -170 66 -255t217 -85q148 0 216.5 81t68.5 259v624h174v-626q0 -113 -24.5 -202t-79 -150.5t-141.5 -94.5t-212 -33q-131 0 -218 35
t-140.5 98.5t-76 151.5t-22.5 195z" />
    <glyph glyph-name="alpha" unicode="&#x3b1;" horiz-adv-x="1227" 
d="M96 539q0 141 35 246.5t96.5 176t146.5 106.5t183 36t183 -43t153 -115v135h176v-1081h-176v154q-66 -72 -150 -121t-206 -49q-93 0 -173.5 33.5t-140 102t-93.5 173t-34 246.5zM272 537q0 -105 23.5 -180.5t64.5 -127t97.5 -76t122.5 -24.5q94 0 169.5 46t143.5 120v496
q-72 79 -148.5 121t-162.5 42q-142 0 -226 -101t-84 -316z" />
    <glyph glyph-name="beta" unicode="&#x3b2;" horiz-adv-x="1282" 
d="M154 -410v1450q0 121 33.5 210t94 147.5t145.5 87t189 28.5q95 0 176.5 -23.5t140 -69.5t92.5 -115.5t34 -159.5q0 -111 -70.5 -196t-195.5 -111q86 -11 160.5 -43.5t130 -86t88 -126t32.5 -164.5q0 -215 -110.5 -326.5t-288.5 -111.5q-68 0 -121 12t-95 30.5t-73 41
t-51 42.5l80 95q39 -35 98 -63.5t145 -28.5q119 0 186.5 80.5t67.5 222.5q0 92 -36.5 157.5t-99 106.5t-146.5 61.5t-176 22.5v121q88 0 148.5 21.5t97 56t53 80.5t16.5 94q0 118 -78 183.5t-200 65.5q-140 0 -218.5 -82.5t-78.5 -257.5v-1452h-170z" />
    <glyph glyph-name="gamma" unicode="&#x3b3;" horiz-adv-x="1055" 
d="M41 1081h188l303 -876h5l299 876h176l-396 -1085v-406h-178v406z" />
    <glyph glyph-name="delta" unicode="&#x3b4;" horiz-adv-x="1200" 
d="M96 541q0 108 29 199t85 159t139 109t192 47q18 0 44.5 -3t47.5 -12q-37 33 -92.5 81t-113.5 98.5t-112.5 97.5t-91.5 82v117h789v-130h-555l393 -342q119 -102 186.5 -220.5t67.5 -282.5q0 -140 -44 -245.5t-115 -176t-161 -106.5t-184 -36q-96 0 -186 36t-161 106.5
t-114 176t-43 245.5zM268 539q0 -95 24.5 -173.5t67.5 -137t104.5 -91.5t135.5 -33q72 0 133.5 32t105.5 90.5t68.5 137t24.5 175.5q0 77 -15.5 137.5t-41 106.5t-58.5 81t-65 62q-11 4 -28 8t-37.5 7t-39 5t-31.5 2q-172 0 -260 -108.5t-88 -300.5z" />
    <glyph glyph-name="epsilon" unicode="&#x3b5;" horiz-adv-x="1059" 
d="M98 285q0 61 20.5 110t54.5 86t79 60.5t96 33.5q-94 19 -147.5 84.5t-53.5 151.5q0 131 103.5 213t290.5 82q123 0 219 -25.5t176 -79.5l-59 -112q-72 47 -156 67.5t-162 20.5q-127 0 -190.5 -54.5t-63.5 -131.5q0 -89 67.5 -128.5t170.5 -39.5h202v-109h-243
q-47 0 -91 -13.5t-77 -39t-52.5 -63.5t-19.5 -89q0 -88 62.5 -144t222.5 -56q182 0 358 110l64 -110q-92 -60 -199.5 -96t-243.5 -36q-116 0 -197 24t-132.5 66t-75 97t-23.5 121z" />
    <glyph glyph-name="zeta" unicode="&#x3b6;" horiz-adv-x="932" 
d="M102 463q0 141 48.5 265t131.5 235.5t194.5 216t238.5 206.5h-584v130h803v-101q-148 -123 -270.5 -235.5t-209.5 -225t-135.5 -229.5t-48.5 -248q0 -78 17.5 -141.5t58.5 -110.5t108.5 -76.5t166.5 -39.5q69 -9 123.5 -25t92 -46t58 -75t20.5 -108q0 -121 -78.5 -191
t-218.5 -70q-77 0 -149 20.5t-125 57.5l41 84q47 -35 107.5 -51t115.5 -16q76 0 128 35.5t52 113.5q0 66 -41.5 98.5t-154.5 45.5q-135 14 -228.5 56t-151.5 105.5t-84 145.5t-26 174z" />
    <glyph glyph-name="eta" unicode="&#x3b7;" horiz-adv-x="1204" 
d="M154 0v1083h172v-182q24 27 64 62.5t93.5 67.5t118 53.5t139.5 21.5q160 0 243 -83t83 -251v-1182h-174v1137q0 117 -51 175.5t-164 58.5q-100 0 -188.5 -51.5t-163.5 -118.5v-791h-172z" />
    <glyph glyph-name="theta" unicode="&#x3b8;" horiz-adv-x="1192" 
d="M117 752q0 387 122.5 580.5t356.5 193.5q240 0 358.5 -199t118.5 -573q0 -183 -28.5 -327t-88 -244.5t-149.5 -153t-213 -52.5q-240 0 -358.5 196t-118.5 579zM283 707q4 -299 73.5 -453t239.5 -154t240.5 157t70.5 450h-624zM283 825h624q-2 129 -19.5 235.5t-55 182.5
t-96 118t-142.5 42t-142.5 -41t-95.5 -117t-54 -182.5t-19 -237.5z" />
    <glyph glyph-name="iota" unicode="&#x3b9;" horiz-adv-x="500" 
d="M168 0zM168 0v1081h176v-1081h-176z" />
    <glyph glyph-name="kappa" unicode="&#x3ba;" horiz-adv-x="1106" 
d="M157 0zM157 0v1081h174v-540l483 540h201l-354 -385l393 -696h-189l-319 565l-215 -233v-332h-174z" />
    <glyph glyph-name="lambda" unicode="&#x3bb;" horiz-adv-x="1075" 
d="M-33 1507q47 13 105.5 23t134.5 10q139 0 217 -65.5t125 -188.5l485 -1286h-176l-319 883h-2l-324 -883h-170l416 1092l-60 155q-28 78 -77.5 114t-131.5 36q-53 0 -100 -8.5t-86 -18.5z" />
    <glyph glyph-name="mu" unicode="&#x3bc;" horiz-adv-x="1204" 
d="M145 -410v1491h177v-743q0 -109 47 -160t151 -51q98 0 181 47t169 127v780h179v-1081h-179v162q-34 -35 -77 -68t-94.5 -58.5t-110 -40.5t-123.5 -15q-80 0 -143 22v-412h-177z" />
    <glyph glyph-name="nu" unicode="&#x3bd;" horiz-adv-x="1055" 
d="M41 0zM41 1081h188l303 -876h5l299 876h176l-396 -1085h-178z" />
    <glyph glyph-name="xi" unicode="&#x3be;" horiz-adv-x="926" 
d="M100 418q0 92 33 164.5t88 126t130 86t159 43.5q-129 24 -196.5 107t-67.5 190q0 86 36.5 148.5t120.5 102.5h-272v130h827v-132h-323q-98 -24 -163.5 -83.5t-65.5 -167.5q0 -48 15 -93t52 -80.5t97.5 -57t150.5 -21.5v-121q-92 -2 -176 -22.5t-146.5 -60.5t-99.5 -101.5
t-37 -147.5q0 -61 18.5 -115.5t61.5 -97.5t110.5 -70.5t165.5 -35.5q70 -7 124.5 -24t92 -47t57 -75t19.5 -108q0 -121 -78.5 -191t-218.5 -70q-77 0 -149 20.5t-125 57.5l41 84q47 -35 107.5 -51t115.5 -16q76 0 128 35.5t52 113.5q0 66 -42 100.5t-154 45.5
q-144 14 -238 55t-149.5 99.5t-78 131t-22.5 148.5z" />
    <glyph glyph-name="omicron" unicode="&#x3bf;" 
d="M94 0zM94 541q0 139 41 244.5t110.5 176t161 106.5t191.5 36q98 0 189.5 -36t161 -106.5t110.5 -176t41 -244.5q0 -140 -41 -245.5t-110.5 -176t-161 -106.5t-189.5 -36t-189.5 36t-161 106.5t-111.5 176t-42 245.5zM272 541q0 -86 20.5 -162t60.5 -131t101.5 -88
t143.5 -33q76 0 136.5 29.5t102.5 84t63.5 131.5t21.5 169q0 84 -20.5 158.5t-60.5 131t-101.5 89t-141.5 32.5q-78 0 -138.5 -29.5t-102.5 -84t-63.5 -130t-21.5 -167.5z" />
    <glyph glyph-name="pi" unicode="&#x3c0;" horiz-adv-x="1333" 
d="M18 950v133h1297v-133h-199v-950h-172v950h-555v-950h-172v950h-199z" />
    <glyph glyph-name="rho" unicode="&#x3c1;" horiz-adv-x="1204" 
d="M135 -410v951q0 141 40 247.5t107.5 177t155.5 105.5t185 35q104 0 192 -33t152.5 -101.5t101.5 -176t37 -254.5q0 -142 -32 -247.5t-89 -175t-137 -104t-176 -34.5q-125 0 -212 53t-153 127v-570h-172zM307 279q78 -84 148.5 -125t162.5 -41q142 0 229 106.5t87 321.5
q0 211 -87 314t-229 103q-73 0 -130.5 -31.5t-97.5 -89t-61.5 -137t-21.5 -176.5v-245z" />
    <glyph glyph-name="sigma1" unicode="&#x3c2;" horiz-adv-x="1104" 
d="M96 541q0 153 45 260.5t117 175t160 98.5t174 31q92 0 159.5 -23.5t117 -64.5t84 -99.5t61.5 -125.5l-146 -52q-43 115 -105.5 174.5t-170.5 59.5q-66 0 -125 -27.5t-103.5 -82t-70 -136.5t-25.5 -190q0 -82 16.5 -155t57.5 -130t108.5 -95t172.5 -50q69 -7 123.5 -24
t92.5 -47t57 -75t19 -108q0 -121 -78.5 -191t-218.5 -70q-77 0 -149 20.5t-125 57.5l41 84q47 -35 107.5 -51t115.5 -16q76 0 128 35.5t52 113.5q0 66 -41.5 99.5t-154.5 46.5q-244 28 -370 172.5t-126 384.5z" />
    <glyph glyph-name="sigma" unicode="&#x3c3;" horiz-adv-x="1227" 
d="M96 541q0 139 44 241.5t117 169t165 99t188 32.5h527v-131h-230q86 -57 141.5 -161.5t55.5 -249.5q0 -140 -44 -245.5t-115 -176t-161 -106.5t-184 -36q-96 0 -186 36t-161 106.5t-114 176t-43 245.5zM268 539q0 -95 24.5 -173.5t67.5 -137t104.5 -91.5t135.5 -33
q72 0 133.5 32t105.5 90.5t68.5 137t24.5 175.5q0 133 -53.5 240.5t-169.5 172.5h-101q-73 0 -134.5 -27.5t-108 -80.5t-72 -130t-25.5 -175z" />
    <glyph glyph-name="tau" unicode="&#x3c4;" horiz-adv-x="948" 
d="M47 952v131h854v-131h-346v-952h-172v952h-336z" />
    <glyph glyph-name="upsilon" unicode="&#x3c5;" horiz-adv-x="1214" 
d="M145 457v626h172v-624q0 -170 66 -255t217 -85q148 0 216.5 81t68.5 259v624h174v-626q0 -113 -24.5 -202t-79 -150.5t-141.5 -94.5t-212 -33q-131 0 -218 35t-140.5 98.5t-76 151.5t-22.5 195z" />
    <glyph glyph-name="phi" unicode="&#x3c6;" horiz-adv-x="1468" 
d="M96 541q0 147 48.5 251.5t126 173t179 101.5t207.5 37v412h156v-412q107 -4 207 -37t178 -101.5t126 -173t48 -251.5q0 -144 -46 -248.5t-124 -173t-179 -103t-210 -36.5v-390h-156v390q-108 2 -209.5 36.5t-179.5 102t-125 172t-47 250.5zM268 541q0 -103 30 -181.5
t82 -133t122.5 -85t154.5 -35.5v865q-84 -4 -154.5 -34t-122.5 -83t-82 -132t-30 -181zM813 106q80 5 150.5 33.5t123 81.5t83 133t30.5 187q0 104 -30.5 182t-83 132t-123 83t-150.5 33v-865z" />
    <glyph glyph-name="chi" unicode="&#x3c7;" horiz-adv-x="1061" 
d="M55 0zM55 0l385 559l-358 522h192l265 -395l262 395h186l-360 -520l383 -561h-191l-291 430l-288 -430h-185z" />
    <glyph glyph-name="psi" unicode="&#x3c8;" horiz-adv-x="1518" 
d="M135 481v602h172v-602q0 -78 20.5 -143.5t65.5 -113.5t115 -76.5t166 -30.5v1399h170v-1399q194 8 280 108.5t86 255.5v602h172v-600q0 -108 -28.5 -198t-93 -158t-167 -106.5t-249.5 -43.5v-387h-170v387q-148 5 -250 43.5t-166.5 105.5t-93.5 157t-29 198z" />
    <glyph glyph-name="omega" unicode="&#x3c9;" horiz-adv-x="1554" 
d="M96 487q0 193 70 348.5t192 247.5h193q-137 -96 -210 -247.5t-73 -335.5q0 -183 65.5 -282t178.5 -99q90 0 139 61.5t49 159.5v393h156v-393q0 -98 49 -159.5t139 -61.5q113 0 178.5 97t65.5 284q0 184 -72.5 335.5t-209.5 247.5h192q123 -92 192.5 -247.5t69.5 -348.5
q0 -112 -25.5 -206.5t-74.5 -162t-123 -104.5t-168 -37q-61 0 -110.5 18.5t-86 47.5t-60.5 64.5t-34 72.5q-10 -37 -33.5 -72.5t-59.5 -64.5t-85 -47.5t-113 -18.5q-96 0 -168.5 37t-122 104.5t-75 162t-25.5 206.5z" />
    <glyph glyph-name="iotadieresis" unicode="&#x3ca;" horiz-adv-x="512" 
d="M0 0zM168 0v1081h176v-1081h-176zM-21 1194v192h180v-192h-180zM351 1194v192h183v-192h-183z" />
    <glyph glyph-name="upsilondieresis" unicode="&#x3cb;" horiz-adv-x="1214" 
d="M145 0zM310 1194v192h180v-192h-180zM682 1194v192h183v-192h-183zM145 457v626h172v-624q0 -170 66 -255t217 -85q148 0 216.5 81t68.5 259v624h174v-626q0 -113 -24.5 -202t-79 -150.5t-141.5 -94.5t-212 -33q-131 0 -218 35t-140.5 98.5t-76 151.5t-22.5 195z" />
    <glyph glyph-name="omicrontonos" unicode="&#x3cc;" 
d="M94 0zM538 1194l134 340h192l-209 -340h-117zM94 541q0 139 41 244.5t110.5 176t161 106.5t191.5 36q98 0 189.5 -36t161 -106.5t110.5 -176t41 -244.5q0 -140 -41 -245.5t-110.5 -176t-161 -106.5t-189.5 -36t-189.5 36t-161 106.5t-111.5 176t-42 245.5zM272 541
q0 -86 20.5 -162t60.5 -131t101.5 -88t143.5 -33q76 0 136.5 29.5t102.5 84t63.5 131.5t21.5 169q0 84 -20.5 158.5t-60.5 131t-101.5 89t-141.5 32.5q-78 0 -138.5 -29.5t-102.5 -84t-63.5 -130t-21.5 -167.5z" />
    <glyph glyph-name="upsilontonos" unicode="&#x3cd;" horiz-adv-x="1214" 
d="M155 0zM540 1194l134 340h192l-209 -340h-117zM155 457v626h172v-624q0 -170 66 -255t217 -85q148 0 216.5 81t68.5 259v624h174v-626q0 -113 -24.5 -202t-79 -150.5t-141.5 -94.5t-212 -33q-131 0 -218 35t-140.5 98.5t-76 151.5t-22.5 195z" />
    <glyph glyph-name="omegatonos" unicode="&#x3ce;" horiz-adv-x="1554" 
d="M96 0zM651 1194l134 340h192l-209 -340h-117zM96 487q0 193 70 348.5t192 247.5h193q-137 -96 -210 -247.5t-73 -335.5q0 -183 65.5 -282t178.5 -99q90 0 139 61.5t49 159.5v393h156v-393q0 -98 49 -159.5t139 -61.5q113 0 178.5 97t65.5 284q0 184 -72.5 335.5
t-209.5 247.5h192q123 -92 192.5 -247.5t69.5 -348.5q0 -112 -25.5 -206.5t-74.5 -162t-123 -104.5t-168 -37q-61 0 -110.5 18.5t-86 47.5t-60.5 64.5t-34 72.5q-10 -37 -33.5 -72.5t-59.5 -64.5t-85 -47.5t-113 -18.5q-96 0 -168.5 37t-122 104.5t-75 162t-25.5 206.5z" />
    <glyph glyph-name="afii10023" unicode="&#x401;" horiz-adv-x="1247" 
d="M186 0zM186 0v1516h930v-166h-749v-473h557v-162h-557v-551h792v-164h-973zM381 1608v192h180v-192h-180zM753 1608v192h183v-192h-183z" />
    <glyph glyph-name="afii10051" unicode="&#x402;" horiz-adv-x="1675" 
d="M66 1366v150h1155v-150h-488v-512q82 94 184.5 145.5t212.5 51.5q95 0 177 -36t142 -102.5t95 -162t35 -213.5q0 -119 -33 -217.5t-97.5 -169t-158.5 -110.5t-217 -40v129q86 0 148.5 28.5t103.5 81t61.5 125t20.5 158.5q0 78 -22.5 146.5t-64.5 121t-102.5 83
t-138.5 30.5q-98 0 -181 -41t-165 -119v-743h-178v1366h-489z" />
    <glyph glyph-name="afii10052" unicode="&#x403;" horiz-adv-x="1161" 
d="M186 0zM512 1612l192 324h215l-290 -324h-117zM186 0v1516h912v-150h-736v-1366h-176z" />
    <glyph glyph-name="afii10053" unicode="&#x404;" horiz-adv-x="1438" 
d="M113 766q0 182 50 327.5t136 246t204 153.5t253 53q123 0 214 -34.5t157.5 -94t109.5 -137.5t72 -164l-164 -59q-23 65 -53.5 126.5t-76.5 108.5t-110.5 76t-150.5 29q-99 0 -179.5 -41t-141 -115t-96.5 -176t-42 -225h582v-142h-584q6 -127 42 -233.5t97.5 -184
t145.5 -121.5t186 -44q94 0 161.5 31.5t116 83t78 117t49.5 130.5l164 -51q-22 -74 -64 -155t-109.5 -147.5t-164 -110.5t-231.5 -44q-141 0 -261 55.5t-207 158t-135 251t-48 332.5z" />
    <glyph glyph-name="afii10054" unicode="&#x405;" horiz-adv-x="1346" 
d="M111 0zM111 367l151 67q57 -153 167 -228t263 -75q160 0 257.5 64.5t97.5 185.5q0 55 -17.5 99t-60.5 81t-117 70t-186 67q-119 37 -212.5 74t-158 86t-99 117.5t-34.5 167.5q0 86 35.5 159.5t100 128t154 84t197.5 29.5q109 0 195 -25.5t151.5 -71.5t112.5 -108.5
t76 -134.5l-144 -80q-61 138 -159.5 197t-233.5 59q-145 0 -226 -62.5t-81 -160.5q0 -61 20.5 -103t67.5 -76t124 -64.5t187 -65.5q115 -35 205 -75t152.5 -92t95.5 -122t33 -166q0 -94 -39 -172t-110.5 -133t-171 -86t-220.5 -31q-217 0 -365.5 107.5t-207.5 288.5z" />
    <glyph glyph-name="afii10055" unicode="&#x406;" horiz-adv-x="594" 
d="M207 0zM207 0v1516h180v-1516h-180z" />
    <glyph glyph-name="afii10056" unicode="&#x407;" horiz-adv-x="594" 
d="M20 0zM207 0v1516h180v-1516h-180zM20 1608v192h180v-192h-180zM392 1608v192h183v-192h-183z" />
    <glyph glyph-name="afii10057" unicode="&#x408;" horiz-adv-x="1034" 
d="M49 0zM49 170l121 102q47 -63 107.5 -103t150.5 -40q57 0 104.5 15.5t81 49t52 90t18.5 138.5v1094h180v-1106q0 -215 -113.5 -327t-316.5 -112q-139 0 -229 54.5t-156 144.5z" />
    <glyph glyph-name="afii10058" unicode="&#x409;" horiz-adv-x="2310" 
d="M29 0v143q75 0 124.5 13.5t79 41t41 71.5t11.5 106v1141h1075v-650h315q125 0 228.5 -25.5t177 -78.5t113.5 -135t40 -197t-42 -195.5t-116.5 -133t-177 -77t-223.5 -24.5h-491v1366h-721v-989q0 -96 -22.5 -167t-75 -118t-135.5 -69.5t-201 -22.5zM1360 139h321
q197 0 289 80t92 209q0 127 -92 209t-289 82h-321v-580z" />
    <glyph glyph-name="afii10059" unicode="&#x40a;" horiz-adv-x="2277" 
d="M186 0v1516h181v-635h780v635h180v-635h315q125 0 228.5 -28t177.5 -83t114 -140t40 -200t-42 -195.5t-117 -133t-177.5 -77t-223.5 -24.5h-495v715h-780v-715h-181zM1327 139h322q196 0 288.5 80t92.5 209q0 127 -92.5 208t-288.5 81h-322v-578z" />
    <glyph glyph-name="afii10060" unicode="&#x40b;" horiz-adv-x="1608" 
d="M63 1366v150h1156v-150h-488v-500q25 27 65 62t92 66.5t116.5 53t140.5 21.5q160 0 242.5 -83t82.5 -249v-737h-172v690q0 117 -52 175.5t-165 58.5q-100 0 -188 -50.5t-162 -119.5v-754h-178v1366h-490z" />
    <glyph glyph-name="afii10061" unicode="&#x40c;" horiz-adv-x="1389" 
d="M186 0zM586 1612l192 324h215l-290 -324h-117zM186 0v1516h181v-783l686 783h217l-520 -578l591 -938h-206l-504 801l-264 -289v-512h-181z" />
    <glyph glyph-name="afii10062" unicode="&#x40e;" horiz-adv-x="1372" 
d="M68 0zM68 1516h182l405 -818l66 -137l61 137l367 818h180q-31 -66 -77 -165.5t-99 -214t-111.5 -237.5t-111.5 -237.5t-99.5 -214t-76.5 -164.5q-37 -78 -74 -135.5t-82 -95.5t-101.5 -56.5t-131.5 -18.5q-86 0 -142.5 17.5t-101.5 42.5l80 127q28 -17 68 -29t91 -12
q50 0 84.5 11t63.5 35t52.5 61.5t47.5 91.5l5 10q5 10 11.5 22.5t10.5 22.5t4 12zM400 1942h106q14 -119 69.5 -166t141.5 -47t141.5 47t69.5 166h106q-8 -156 -91 -250t-226 -94t-226 94t-91 250z" />
    <glyph glyph-name="afii10145" unicode="&#x40f;" horiz-adv-x="1516" 
d="M186 0v1516h176v-1366h791v1366h176v-1516h-483v-350h-172v350h-488z" />
    <glyph glyph-name="afii10017" unicode="&#x410;" horiz-adv-x="1393" 
d="M66 0zM66 0l536 1522h189l536 -1522h-186l-150 434h-602l-149 -434h-174zM444 592h492l-242 711h-4z" />
    <glyph glyph-name="afii10018" unicode="&#x411;" horiz-adv-x="1311" 
d="M186 0v1516h949v-150h-775v-514h316q125 0 228.5 -25.5t177 -78t113.5 -133t40 -191.5t-42 -191.5t-117 -132t-177 -76t-223 -24.5h-490zM360 139h322q197 0 289 78t92 203t-92 205t-289 80h-322v-566z" />
    <glyph glyph-name="afii10019" unicode="&#x412;" horiz-adv-x="1415" 
d="M186 0zM186 0v1516h543q248 0 383 -94.5t135 -284.5q0 -78 -21.5 -137.5t-60.5 -102.5t-90 -70.5t-108 -40.5v-4q69 -12 129.5 -40.5t104.5 -73.5t69.5 -108.5t25.5 -145.5q0 -193 -135 -303.5t-389 -110.5h-586zM365 158h395q186 0 272 68.5t86 199.5
q0 143 -105.5 207.5t-289.5 64.5h-358v-540zM365 854h348q172 0 265 61.5t93 192.5t-84 189.5t-270 58.5h-352v-502z" />
    <glyph glyph-name="afii10020" unicode="&#x413;" horiz-adv-x="1171" 
d="M188 0v1516h912v-150h-735v-1366h-177z" />
    <glyph glyph-name="afii10021" unicode="&#x414;" horiz-adv-x="1608" 
d="M43 150h51q62 0 100.5 13t61.5 47t34 92t21 151l101 1063h970v-1366h154v-500h-176v350h-1141v-350h-176v500zM393 150h813v1204h-639l-84 -920q-12 -117 -28.5 -186.5t-61.5 -97.5z" />
    <glyph glyph-name="afii10022" unicode="&#x415;" horiz-adv-x="1247" 
d="M186 0zM186 0v1516h930v-166h-749v-473h557v-162h-557v-551h792v-164h-973z" />
    <glyph glyph-name="afii10024" unicode="&#x416;" horiz-adv-x="2214" 
d="M47 0l592 934l-522 582h205l700 -791v791h172v-791l698 791h207l-522 -582l590 -934h-201l-504 801l-268 -293v-508h-172v508l-268 293l-506 -801h-201z" />
    <glyph glyph-name="afii10025" unicode="&#x417;" horiz-adv-x="1229" 
d="M51 246l113 96q29 -45 68.5 -86t92 -72.5t117 -51t142.5 -19.5q159 0 255.5 84t96.5 223q0 153 -103.5 234t-318.5 81h-92v135h90q190 0 291.5 65.5t101.5 197.5q0 122 -74.5 194t-234.5 72q-123 0 -214 -53.5t-157 -131.5l-100 107q37 45 87 86t112.5 71.5t135 48
t152.5 17.5q230 0 348.5 -101.5t118.5 -285.5q0 -139 -90 -232.5t-246 -115.5q187 -23 281 -128.5t94 -270.5q0 -101 -39 -183t-107.5 -139t-165.5 -88t-214 -31q-103 0 -185.5 21.5t-148 59.5t-117 88t-90.5 108z" />
    <glyph glyph-name="afii10026" unicode="&#x418;" horiz-adv-x="1534" 
d="M186 0zM1348.01 0v1516h-190.988l-796.952 -1199h-3.99902v1199h-169.99v-1516h161.99l825.949 1231h4v-1231h169.99z" />
    <glyph glyph-name="afii10027" unicode="&#x419;" horiz-adv-x="1534" 
d="M186 0zM447 1942h106q14 -119 69.5 -166t141.5 -47t141.5 47t69.5 166h106q-8 -156 -91 -250t-226 -94t-226 94t-91 250zM1348.01 0v1516h-190.988l-796.952 -1199h-3.99902v1199h-169.99v-1516h161.99l825.949 1231h4v-1231h169.99z" />
    <glyph glyph-name="afii10028" unicode="&#x41a;" horiz-adv-x="1389" 
d="M186 0zM186 0v1516h181v-783l686 783h217l-520 -578l591 -938h-206l-504 801l-264 -289v-512h-181z" />
    <glyph glyph-name="afii10029" unicode="&#x41b;" horiz-adv-x="1546" 
d="M29 0v143q75 0 124.5 13.5t79 41t41 71.5t11.5 106v1141h1075v-1516h-176v1366h-721v-989q0 -96 -22.5 -167t-75 -118t-135.5 -69.5t-201 -22.5z" />
    <glyph glyph-name="afii10030" unicode="&#x41c;" horiz-adv-x="1798" 
d="M186 0zM186 0v1516h236l477 -1289h4l469 1289h240v-1516h-178v1227h-4q-17 -60 -41.5 -131.5t-51.5 -147.5l-362 -948h-162l-362 948q-15 37 -26 70t-22.5 65.5t-22.5 68.5t-24 81h-4v-1233h-166z" />
    <glyph glyph-name="afii10031" unicode="&#x41d;" horiz-adv-x="1513" 
d="M186 0zM186 0v1516h181v-635h780v635h180v-1516h-180v715h-780v-715h-181z" />
    <glyph glyph-name="afii10032" unicode="&#x41e;" horiz-adv-x="1534" 
d="M113 0zM113 758q0 182 50 328.5t137 248t207 155.5t261 54t260 -54t206 -155.5t136 -248t49 -328.5q0 -183 -49 -329t-136 -247.5t-206 -156t-260 -54.5t-261 54.5t-207 156t-137 247.5t-50 329zM295 758q0 -148 35 -264.5t97 -196.5t149.5 -122t191.5 -42q102 0 189 42
t149.5 122t97.5 196.5t35 264.5q0 147 -35 263t-97.5 195.5t-149.5 121.5t-189 42q-104 0 -191.5 -42t-149.5 -121.5t-97 -195.5t-35 -263z" />
    <glyph glyph-name="afii10033" unicode="&#x41f;" horiz-adv-x="1516" 
d="M186 0v1516h1143v-1516h-176v1366h-791v-1366h-176z" />
    <glyph glyph-name="afii10034" unicode="&#x420;" horiz-adv-x="1329" 
d="M186 0zM186 0v1516h514q123 0 223.5 -25t173 -77t111.5 -134t39 -195q0 -120 -43 -205t-117.5 -138.5t-177 -77t-221.5 -23.5h-321v-641h-181zM367 801h331q183 0 277 62.5t94 215.5q0 148 -93 210.5t-280 62.5h-329v-551z" />
    <glyph glyph-name="afii10035" unicode="&#x421;" horiz-adv-x="1444" 
d="M113 0zM113 764q0 178 47 321.5t132 246t203.5 157.5t260.5 55q121 0 214 -33.5t161.5 -94t113.5 -146.5t72 -191l-172 -47q-49 174 -137 260t-254 86q-107 0 -192 -43t-144.5 -122.5t-91 -192.5t-31.5 -254q0 -303 125 -467t338 -164q317 0 411 367l170 -39
q-28 -113 -77.5 -203t-122 -154.5t-169 -99.5t-214.5 -35q-146 0 -263.5 54.5t-202.5 157t-131 249t-46 332.5z" />
    <glyph glyph-name="afii10036" unicode="&#x422;" horiz-adv-x="1276" 
d="M66 0zM66 1350v166h1144v-166h-483v-1350h-180v1350h-481z" />
    <glyph glyph-name="afii10037" unicode="&#x423;" horiz-adv-x="1372" 
d="M68 1516h182l405 -818l66 -137l61 137l367 818h180q-31 -66 -77 -165.5t-99 -214t-111.5 -237.5t-111.5 -237.5t-99.5 -214t-76.5 -164.5q-37 -78 -74 -135.5t-82 -95.5t-101.5 -56.5t-131.5 -18.5q-86 0 -142.5 17.5t-101.5 42.5l80 127q28 -17 68 -29t91 -12
q50 0 84.5 11t63.5 35t52.5 61.5t47.5 91.5l5 10q5 10 11.5 22.5t10.5 22.5t4 12z" />
    <glyph glyph-name="afii10038" unicode="&#x424;" horiz-adv-x="1556" 
d="M111 756q0 135 46 236.5t125.5 172t186 108.5t227.5 44v199h162v-199q119 -6 226.5 -44t187.5 -108.5t127 -172t47 -236.5t-47 -236.5t-127 -172.5t-187.5 -107.5t-226.5 -42.5v-197h-162v197q-121 6 -227.5 44t-186 107.5t-125.5 172t-46 235.5zM283 756
q0 -88 28.5 -164t81.5 -133.5t130 -92t173 -40.5v858q-96 -6 -171.5 -40t-130 -90.5t-83 -132t-28.5 -165.5zM858 324q94 6 172 40.5t131 91t83 132.5t30 168q0 88 -28.5 163.5t-83 132t-131.5 91.5t-173 41v-860z" />
    <glyph glyph-name="afii10039" unicode="&#x425;" horiz-adv-x="1372" 
d="M66 0zM66 0l520 809l-457 707h207l358 -564l353 564h190l-453 -705l523 -811h-197l-428 668l-430 -668h-186z" />
    <glyph glyph-name="afii10040" unicode="&#x426;" horiz-adv-x="1554" 
d="M186 0v1516h176v-1366h791v1366h176v-1366h154v-500h-174v350h-1123z" />
    <glyph glyph-name="afii10041" unicode="&#x427;" horiz-adv-x="1401" 
d="M172 1051v467h174v-453q0 -96 15.5 -161.5t50 -105.5t93 -58.5t142.5 -18.5q103 0 211.5 29.5t181.5 83.5v682h174v-1516h-174v698q-36 -26 -85.5 -48.5t-105.5 -38t-117.5 -23.5t-123.5 -8q-110 0 -192 24.5t-136.5 79.5t-81 145.5t-26.5 221.5z" />
    <glyph glyph-name="afii10042" unicode="&#x428;" horiz-adv-x="2099" 
d="M186 0v1516h174v-1366h601v1366h176v-1366h598v1366h178v-1516h-1727z" />
    <glyph glyph-name="afii10043" unicode="&#x429;" horiz-adv-x="2136" 
d="M186 0v1516h174v-1366h601v1366h176v-1366h598v1366h178v-1366h151v-500h-172v350h-1706z" />
    <glyph glyph-name="afii10044" unicode="&#x42a;" horiz-adv-x="1571" 
d="M16 1366v150h555v-650h316q125 0 228.5 -25.5t177 -78.5t113.5 -135t40 -197t-42 -195.5t-117 -133t-177 -77t-223 -24.5h-492v1366h-379zM571 139h322q197 0 288 80t91 209q0 127 -91 209t-288 82h-322v-580z" />
    <glyph glyph-name="afii10045" unicode="&#x42b;" horiz-adv-x="1780" 
d="M186 0zM1413 0v1516h180v-1516h-180zM186 0v1516h174v-650h316q125 0 228.5 -25.5t177 -78.5t113.5 -135t40 -197t-42 -195.5t-117 -133t-177 -77t-223 -24.5h-490zM360 139h322q197 0 289 80t92 209q0 127 -92 209t-289 82h-322v-580z" />
    <glyph glyph-name="afii10046" unicode="&#x42c;" horiz-adv-x="1311" 
d="M186 0v1516h174v-650h316q125 0 228.5 -25.5t177 -78.5t113.5 -135t40 -197t-42 -195.5t-117 -133t-177 -77t-223 -24.5h-490zM360 139h322q197 0 289 80t92 209q0 127 -92 209t-289 82h-322v-580z" />
    <glyph glyph-name="afii10047" unicode="&#x42d;" horiz-adv-x="1438" 
d="M106 426l162 51q21 -65 50.5 -130.5t77.5 -117t116 -83t162 -31.5q102 0 186 44t145.5 121.5t97.5 184t42 233.5h-584v142h582q-6 123 -42 225t-96.5 176t-141.5 115t-179 41q-86 0 -149.5 -29t-109.5 -76t-78 -108.5t-52 -126.5l-166 59q29 86 72 164t109.5 137.5
t157.5 94t216 34.5q135 0 252 -53t203 -153.5t136 -246t50 -327.5q0 -184 -48 -332.5t-135 -251t-206 -158t-260 -55.5q-135 0 -232.5 44t-165 110.5t-108.5 147.5t-64 155z" />
    <glyph glyph-name="afii10048" unicode="&#x42e;" horiz-adv-x="2079" 
d="M186 0v1516h176v-666h293q13 162 69 292t143 219t200 137t240 48q133 0 252.5 -53t210 -154.5t142.5 -248t52 -332.5q0 -187 -52 -333t-142.5 -247.5t-210 -155t-252.5 -53.5q-129 0 -245 50.5t-204 144.5t-143.5 229t-63.5 307h-289v-700h-176zM825 758
q0 -142 35 -260.5t97.5 -203.5t151.5 -132t198 -47q106 0 195 47t152.5 132t98.5 203.5t35 260.5q0 141 -35 259t-98.5 203t-152.5 131t-195 46q-109 0 -198 -46t-151.5 -131t-97.5 -203t-35 -259z" />
    <glyph glyph-name="afii10049" unicode="&#x42f;" horiz-adv-x="1386" 
d="M120 0zM1200.01 0v1516h-520.969q-259.984 0 -398.976 -106.5t-138.991 -317.5q0 -185 94.9941 -283t256.984 -133l-372.978 -676h196.988l361.978 653h341.979v-653h178.989zM1021.02 813h-330.979q-177.989 0 -274.483 58.5t-96.4941 213.5q0 150 94.9941 208.5
t277.982 58.5h328.98v-539z" />
    <glyph glyph-name="afii10065" unicode="&#x430;" horiz-adv-x="1133" 
d="M90 0zM90 256q0 82 38 151.5t123 127t223 100.5t339 72v49q0 200 -205 200q-123 0 -217 -47t-174 -116l-92 110q94 86 217 143.5t285 57.5q96 0 164.5 -24.5t111.5 -70.5t63.5 -114t20.5 -152v-477q0 -98 7 -161.5t24 -104.5h-180q-11 35 -18 68.5t-7 81.5
q-178 -166 -418 -166q-141 0 -223 70.5t-82 201.5zM264 283q0 -78 48 -119t134 -41q109 0 200 42t167 116v303q-154 -25 -259 -55.5t-170 -68.5t-92.5 -82t-27.5 -95z" />
    <glyph glyph-name="afii10066" unicode="&#x431;" horiz-adv-x="1200" 
d="M98 553v39q0 29 1 61.5t2 61t1 39.5q7 123 31.5 253t90 237.5t183 179t308.5 75.5q59 2 122.5 5t143.5 24v-158q-61 -16 -121.5 -20t-134.5 -7q-121 -4 -207 -43.5t-140 -110.5t-81 -168t-29 -214q27 61 68 107.5t90 78t102.5 47t106.5 15.5q92 0 177 -37t149.5 -106.5
t102.5 -170t38 -225.5q0 -123 -40 -222t-107.5 -170t-160 -109t-196.5 -38t-195.5 40t-159 115t-106.5 181.5t-39 239.5zM270 518q0 -94 26 -170t70 -130t104 -84t128 -30q70 0 130 29t105.5 83t71 130t25.5 170t-25.5 172t-71 131t-105.5 83t-130 30t-129 -30t-103 -83
t-70 -130t-26 -171z" />
    <glyph glyph-name="afii10067" unicode="&#x432;" horiz-adv-x="1096" 
d="M154 0v1083h413q82 0 155 -14t128 -46t87 -82t32 -122q0 -114 -65.5 -176.5t-162.5 -79.5v-2q58 -8 106 -26.5t83 -51t55.5 -80t20.5 -110.5q0 -72 -31 -126t-84 -91t-128 -56.5t-161 -19.5h-448zM317 121h267q129 0 191.5 51t62.5 137q0 101 -76 146t-203 45h-242v-379z
M317 606h236q119 0 186.5 45t67.5 137q0 78 -63.5 125.5t-188.5 47.5h-238v-355z" />
    <glyph glyph-name="afii10068" unicode="&#x433;" horiz-adv-x="948" 
d="M154 0v1083h745v-131h-573v-952h-172z" />
    <glyph glyph-name="afii10069" unicode="&#x434;" horiz-adv-x="1266" 
d="M25 131q61 2 102 18.5t65.5 43t37 63.5t16.5 80l63 747h781v-952h112v-541h-164v410h-845v-410h-168v541zM301 123h617v829h-449l-53 -626q-13 -156 -115 -203z" />
    <glyph glyph-name="afii10070" unicode="&#x435;" horiz-adv-x="1130" 
d="M94 0zM94 541q0 147 44 253.5t115 175t158 101.5t173 33q96 0 178 -34t142.5 -104.5t95 -178t34.5 -255.5v-36h-764q2 -93 29 -162.5t70 -116.5t101 -71.5t126 -24.5q117 0 190.5 45t135.5 131l102 -90q-76 -109 -181.5 -169.5t-258.5 -60.5q-97 0 -185 35t-155.5 105.5
t-108.5 176t-41 247.5zM274 633h592q-10 145 -79.5 234t-204.5 89q-56 0 -107 -19t-92 -59t-70.5 -100.5t-38.5 -144.5z" />
    <glyph glyph-name="afii10072" unicode="&#x436;" horiz-adv-x="1751" 
d="M61 0l396 686l-357 397h185l508 -565v565h165v-565l508 565h185l-357 -397l394 -686h-179l-321 561q-49 -53 -94 -102q-39 -41 -77 -83t-59 -65v-311h-165v311q-21 23 -59 65t-77 83q-45 49 -94 102l-321 -561h-181z" />
    <glyph glyph-name="afii10073" unicode="&#x437;" horiz-adv-x="1012" 
d="M66 178l104 86q57 -76 139 -117t189 -41q131 0 205.5 56.5t74.5 146.5q0 92 -83 142.5t-287 50.5h-41v102h45q180 0 260 44t80 149q0 71 -59.5 124.5t-192.5 53.5q-99 0 -164.5 -32t-118.5 -87l-92 86q59 66 153.5 115t229.5 49q100 0 175 -22.5t124 -61.5t73.5 -92
t24.5 -113q0 -110 -60.5 -177t-176.5 -83q147 -29 206.5 -96.5t59.5 -167.5q0 -68 -30 -125t-85 -99t-136 -67t-183 -25q-150 0 -259.5 54.5t-174.5 146.5z" />
    <glyph glyph-name="afii10074" unicode="&#x438;" horiz-adv-x="1255" 
d="M154 0v1083h163v-845q37 51 85.5 118.5t103.5 144.5t113.5 158.5t113.5 158.5t103.5 145.5t85.5 119.5h180v-1083h-166v844q-55 -78 -137 -190.5t-168 -231.5t-167 -230.5t-136 -191.5h-174z" />
    <glyph glyph-name="afii10075" unicode="&#x439;" horiz-adv-x="1255" 
d="M154 0zM154 0v1083h163v-845q37 51 85.5 118.5t103.5 144.5t113.5 158.5t113.5 158.5t103.5 145.5t85.5 119.5h180v-1083h-166v844q-55 -78 -137 -190.5t-168 -231.5t-167 -230.5t-136 -191.5h-174zM308 1530h106q14 -119 69.5 -166t141.5 -47t141.5 47t69.5 166h106
q-8 -156 -91 -250t-226 -94t-226 94t-91 250z" />
    <glyph glyph-name="afii10076" unicode="&#x43a;" horiz-adv-x="1106" 
d="M157 0zM157 0v1081h174v-540l483 540h201l-354 -385l393 -696h-189l-319 565l-215 -233v-332h-174z" />
    <glyph glyph-name="afii10077" unicode="&#x43b;" horiz-adv-x="1247" 
d="M14 2v125q64 0 105 7t64.5 25.5t32.5 53.5t9 90v780h869v-1083h-172v952h-525v-645q0 -102 -24.5 -161.5t-73.5 -92.5t-121 -42t-164 -9z" />
    <glyph glyph-name="afii10078" unicode="&#x43c;" horiz-adv-x="1452" 
d="M154 0v1083h211l360 -901h4l356 901h211v-1083h-151v858h-2q-2 -10 -14.5 -41t-25.5 -65.5t-26.5 -66.5t-15.5 -42l-268 -643h-142l-266 637q-2 10 -15.5 43t-27.5 69.5t-26.5 68.5t-14.5 40h-2v-858h-145z" />
    <glyph glyph-name="afii10079" unicode="&#x43d;" horiz-adv-x="1225" 
d="M154 0v1083h172v-452h571v452h172v-1083h-172v494h-571v-494h-172z" />
    <glyph glyph-name="afii10080" unicode="&#x43e;" 
d="M94 0zM94 541q0 139 41 244.5t110.5 176t161 106.5t191.5 36q98 0 189.5 -36t161 -106.5t110.5 -176t41 -244.5q0 -140 -41 -245.5t-110.5 -176t-161 -106.5t-189.5 -36t-189.5 36t-161 106.5t-111.5 176t-42 245.5zM272 541q0 -86 20.5 -162t60.5 -131t101.5 -88
t143.5 -33q76 0 136.5 29.5t102.5 84t63.5 131.5t21.5 169q0 84 -20.5 158.5t-60.5 131t-101.5 89t-141.5 32.5q-78 0 -138.5 -29.5t-102.5 -84t-63.5 -130t-21.5 -167.5z" />
    <glyph glyph-name="afii10081" unicode="&#x43f;" horiz-adv-x="1221" 
d="M154 0v1083h913v-1083h-174v952h-567v-952h-172z" />
    <glyph glyph-name="afii10082" unicode="&#x440;" horiz-adv-x="1227" 
d="M156 0zM156 -410v1491h176v-149q61 67 147 119.5t209 52.5q92 0 173 -35t140.5 -104.5t93 -175t33.5 -246.5q0 -142 -34.5 -247.5t-96 -174t-145.5 -103t-182 -34.5q-101 0 -185 42t-153 113v-549h-176zM332 291q145 -164 313 -164q141 0 224 99.5t83 314.5
q0 207 -87 309t-218 102q-94 0 -171 -46t-144 -120v-495z" />
    <glyph glyph-name="afii10083" unicode="&#x441;" horiz-adv-x="1098" 
d="M94 0zM94 541q0 147 43 253.5t114 175t160 101.5t179 33q92 0 159.5 -24.5t119 -66.5t86 -97.5t59.5 -114.5l-150 -62q-41 105 -106.5 160t-171.5 55q-60 0 -115 -21.5t-100 -70.5t-72 -128t-27 -193q0 -201 86 -308.5t224 -107.5q104 0 170.5 49t119.5 168l146 -57
q-31 -68 -72 -124.5t-94 -97t-120.5 -63.5t-156.5 -23q-94 0 -181 36t-153.5 106.5t-106.5 176t-40 245.5z" />
    <glyph glyph-name="afii10084" unicode="&#x442;" horiz-adv-x="1032" 
d="M49 952v131h936v-131h-383v-952h-172v952h-381z" />
    <glyph glyph-name="afii10085" unicode="&#x443;" horiz-adv-x="1092" 
d="M14 0zM14 -389l41 141q23 -6 63 -12t97 -6q84 0 129 36.5t78 116.5l41 107l-418 1087h186l318 -874h4l317 874h179l-463 -1204q-29 -72 -59.5 -126t-73.5 -91t-99.5 -56.5t-136.5 -19.5q-72 0 -120 8.5t-83 18.5z" />
    <glyph glyph-name="afii10086" unicode="&#x444;" horiz-adv-x="1927" 
d="M98 537q0 141 32 247.5t88 178t134 107.5t172 36q121 0 205 -54.5t150 -131.5v596h172v-609q24 33 59 68t79 63.5t98 47t118 18.5q94 0 172 -35t134 -105.5t87 -176t31 -246.5q0 -142 -31 -247.5t-87 -175t-134 -104t-172 -34.5q-123 0 -207 53t-147 127v-570h-172v584
q-25 -33 -61 -67.5t-80 -62.5t-98 -46t-118 -18q-94 0 -172 33.5t-134 103t-87 174t-31 246.5zM272 537q0 -209 84 -315.5t226 -106.5q49 0 94 16t84 41t68.5 53.5t50.5 53.5v516q-76 84 -143.5 125t-157.5 41q-138 0 -222 -104.5t-84 -319.5zM1051 279q75 -84 142 -125
t157 -41q139 0 223 106.5t84 321.5q0 211 -85 314t-226 103q-50 0 -95 -16t-84 -40.5t-68.5 -53.5t-47.5 -53v-516z" />
    <glyph glyph-name="afii10087" unicode="&#x445;" horiz-adv-x="1061" 
d="M55 0zM55 0l385 559l-358 522h192l265 -395l262 395h186l-360 -520l383 -561h-191l-291 430l-288 -430h-185z" />
    <glyph glyph-name="afii10088" unicode="&#x446;" horiz-adv-x="1241" 
d="M154 0v1083h172v-952h567v952h174v-952h113v-541h-164v410h-862z" />
    <glyph glyph-name="afii10089" unicode="&#x447;" 
d="M127 645v438h174v-391q0 -117 51 -175t164 -58q100 0 188.5 50t163.5 120v454h172v-1083h-172v516q-24 -27 -64 -61.5t-93.5 -66.5t-118 -53.5t-139.5 -21.5q-160 0 -243 83t-83 249z" />
    <glyph glyph-name="afii10090" unicode="&#x448;" horiz-adv-x="1901" 
d="M154 0v1083h172v-952h536v952h174v-952h537v952h174v-1083h-1593z" />
    <glyph glyph-name="afii10091" unicode="&#x449;" horiz-adv-x="1921" 
d="M154 0v1083h172v-952h536v952h174v-952h537v952h174v-952h113v-541h-164v410h-1542z" />
    <glyph glyph-name="afii10092" unicode="&#x44a;" horiz-adv-x="1241" 
d="M25 952v131h460v-405h230q104 0 189 -15.5t144.5 -54.5t92.5 -103.5t33 -162.5q0 -90 -34 -155.5t-95.5 -106.5t-144.5 -60.5t-181 -19.5h-404v952h-290zM485 125h236q153 0 221 57.5t68 161.5q0 115 -71 163t-218 48h-236v-430z" />
    <glyph glyph-name="afii10093" unicode="&#x44b;" horiz-adv-x="1466" 
d="M154 0zM1143 0v1081h176v-1081h-176zM154 0v1083h172v-405h227q104 0 190 -15.5t145.5 -54.5t92.5 -103.5t33 -162.5q0 -90 -34 -155.5t-95.5 -106.5t-145.5 -60.5t-182 -19.5h-403zM326 125h233q154 0 221.5 57.5t67.5 161.5q0 115 -69.5 163t-217.5 48h-235v-430z" />
    <glyph glyph-name="afii10094" unicode="&#x44c;" horiz-adv-x="1081" 
d="M154 0v1083h172v-405h227q104 0 190 -15.5t145.5 -54.5t92.5 -103.5t33 -162.5q0 -90 -34 -155.5t-95.5 -106.5t-145.5 -60.5t-182 -19.5h-403zM326 125h233q154 0 221.5 57.5t67.5 161.5q0 115 -69.5 163t-217.5 48h-235v-430z" />
    <glyph glyph-name="afii10095" unicode="&#x44d;" horiz-adv-x="1090" 
d="M80 0zM994.006 541q0 153 -44.9971 260.5t-116.993 175q-71.9951 67.5 -159.99 98.5q-87.9941 31 -173.989 31t-151.491 -20.5q-65.4951 -20.5 -114.492 -58.5t-84.9951 -91t-62.9961 -119l141.991 -59q42.9971 106 102.494 162.5q59.4961 56.5 167.489 56.5
q61.9961 0 117.993 -23.5q55.9961 -23.5 99.9941 -69.5q43.9971 -46 71.9951 -116t33.998 -164h-413.975v-108h415.975q-2 -80 -24.499 -152q-22.498 -72 -62.4961 -125q-39.9971 -53 -97.4941 -84q-57.4961 -31 -129.492 -31q-103.993 0 -170.489 55.5t-119.493 170.5
l-137.991 -64q32.998 -65 72.9961 -118.5q39.9971 -53.5 90.9941 -91.5t116.493 -58.5t149.49 -20.5q98.9941 0 186.989 38q87.9941 38 153.49 110t104.493 177.5q38.998 105.5 38.998 238.5z" />
    <glyph glyph-name="afii10096" unicode="&#x44e;" horiz-adv-x="1645" 
d="M156 0v1083h172v-477h221q8 123 53 216t113.5 156.5t154.5 95.5t177 32q94 0 184 -35t160.5 -105.5t114.5 -177t44 -247.5q0 -140 -44 -245.5t-114.5 -176t-160.5 -106.5t-184 -36q-91 0 -175 32t-152.5 94.5t-113.5 154.5t-57 211h-221v-469h-172zM715 539
q0 -95 24.5 -173.5t67.5 -137t104.5 -91.5t135.5 -33q71 0 132.5 32t105.5 90.5t68.5 137t24.5 175.5q0 96 -24.5 176t-68.5 138t-104.5 90t-133.5 32q-74 0 -134.5 -32t-104.5 -89t-68.5 -137t-24.5 -178z" />
    <glyph glyph-name="afii10097" unicode="&#x44f;" horiz-adv-x="1110" 
d="M86 0l258 446q-125 25 -185.5 98.5t-60.5 205.5q0 88 34 151.5t95.5 104.5t145.5 59t182 18h403v-1083h-172v420h-252q-16 0 -30 2l-240 -422h-178zM266 748q0 -111 70 -157t217 -46h233v413h-231q-154 0 -221.5 -55t-67.5 -155z" />
    <glyph glyph-name="afii10071" unicode="&#x451;" horiz-adv-x="1130" 
d="M94 0zM94 541q0 147 44 253.5t115 175t158 101.5t173 33q96 0 178 -34t142.5 -104.5t95 -178t34.5 -255.5v-36h-764q2 -93 29 -162.5t70 -116.5t101 -71.5t126 -24.5q117 0 190.5 45t135.5 131l102 -90q-76 -109 -181.5 -169.5t-258.5 -60.5q-97 0 -185 35t-155.5 105.5
t-108.5 176t-41 247.5zM274 633h592q-10 145 -79.5 234t-204.5 89q-56 0 -107 -19t-92 -59t-70.5 -100.5t-38.5 -144.5zM293 1194v192h180v-192h-180zM665 1194v192h183v-192h-183z" />
    <glyph glyph-name="afii10099" unicode="&#x452;" horiz-adv-x="1204" 
d="M-8 1200v117h162v199h172v-199h223v-117h-223v-299q24 27 64 62.5t92.5 67.5t118 53.5t140.5 21.5q324 0 324 -334v-958q0 -107 -52 -167.5t-182 -60.5q-32 0 -72 3t-52 8v122q14 -4 34.5 -7t38.5 -3q49 0 80 26.5t33 98.5v893q0 117 -51 175.5t-164 58.5
q-103 0 -191 -51.5t-161 -118.5v-791h-172v1200h-162z" />
    <glyph glyph-name="afii10100" unicode="&#x453;" horiz-adv-x="948" 
d="M154 0zM375 1198l192 324h215l-290 -324h-117zM154 0v1083h745v-131h-573v-952h-172z" />
    <glyph glyph-name="afii10101" unicode="&#x454;" horiz-adv-x="1090" 
d="M96 541q0 153 45 260.5t117 175t160 98.5t174 31t151.5 -20.5t114.5 -58.5t85 -91t63 -119l-142 -59q-43 106 -102.5 162.5t-167.5 56.5q-62 0 -118 -23.5t-100 -69.5t-72 -116t-34 -164h414v-108h-416q2 -80 24.5 -152t62.5 -125t97.5 -84t129.5 -31q104 0 170.5 55.5
t119.5 170.5l138 -64q-33 -65 -73 -118.5t-91 -91.5t-116.5 -58.5t-149.5 -20.5q-99 0 -187 38t-153.5 110t-104.5 177.5t-39 238.5z" />
    <glyph glyph-name="afii10102" unicode="&#x455;" horiz-adv-x="1049" 
d="M78 0zM78 164l106 106q62 -65 145 -107t193 -42q127 0 193.5 43t66.5 127q0 82 -69.5 121t-208.5 71q-86 21 -158 45.5t-122 60.5t-78.5 89t-28.5 131q0 61 25.5 114.5t74.5 93.5t120 63.5t159 23.5q143 0 240.5 -42t172.5 -114l-92 -117q-61 58 -141 94t-172 36
q-119 0 -169 -44.5t-50 -101.5q0 -76 63.5 -111.5t192.5 -64.5q92 -23 167.5 -47.5t130 -62t84 -93t29.5 -139.5q0 -78 -32.5 -137.5t-91 -99.5t-137.5 -60t-171 -20q-147 0 -262 52t-180 132z" />
    <glyph glyph-name="afii10103" unicode="&#x456;" horiz-adv-x="512" 
d="M164 0zM164 1313v172h184v-172h-184zM168 0v1081h176v-1081h-176z" />
    <glyph glyph-name="afii10104" unicode="&#x457;" horiz-adv-x="512" 
d="M0 0zM168 0v1081h176v-1081h-176zM-21 1194v192h180v-192h-180zM351 1194v192h183v-192h-183z" />
    <glyph glyph-name="afii10105" unicode="&#x458;" horiz-adv-x="512" 
d="M0 0zM-12 -270q14 -4 32.5 -6.5t36.5 -2.5q54 0 82.5 30t28.5 95v1235h176v-1247q0 -55 -12.5 -100t-41 -78t-76.5 -50.5t-120 -17.5q-22 0 -59 3t-47 6v133zM164 1313v172h184v-172h-184z" />
    <glyph glyph-name="afii10106" unicode="&#x459;" horiz-adv-x="1849" 
d="M14 2v125q64 0 105 7t64.5 25.5t32.5 53.5t9 90v780h869v-405h227q104 0 190 -15.5t145.5 -54.5t92.5 -103.5t33 -162.5q0 -90 -34 -155.5t-95.5 -106.5t-145.5 -60.5t-182 -19.5h-403v952h-525v-645q0 -102 -24.5 -161.5t-73.5 -92.5t-121 -42t-164 -9zM1094 125h233
q154 0 221.5 57.5t67.5 161.5q0 115 -69.5 163t-217.5 48h-235v-430z" />
    <glyph glyph-name="afii10107" unicode="&#x45a;" horiz-adv-x="1827" 
d="M154 0v1083h172v-391h571v391h172v-391h227q105 0 191 -17.5t145.5 -59.5t92 -108.5t32.5 -164.5q0 -90 -33.5 -155.5t-95 -106.5t-145.5 -60.5t-183 -19.5h-403v555h-571v-555h-172zM1069 125h234q153 0 220.5 57.5t67.5 161.5q0 115 -69.5 163t-216.5 48h-236v-430z
" />
    <glyph glyph-name="afii10108" unicode="&#x45b;" horiz-adv-x="1204" 
d="M0 0zM-12 1223v127h170v166h176v-166h215v-127h-215v-303q35 34 78 67t94 59.5t109.5 42t123.5 15.5q156 0 238 -85t82 -239v-780h-176v743q0 107 -47.5 158t-151.5 51q-98 0 -181 -47t-169 -125v-780h-176v1223h-170z" />
    <glyph glyph-name="afii10109" unicode="&#x45c;" horiz-adv-x="1106" 
d="M157 0zM449 1198l192 324h215l-290 -324h-117zM157 0v1081h174v-540l483 540h201l-354 -385l393 -696h-189l-319 565l-215 -233v-332h-174z" />
    <glyph glyph-name="afii10110" unicode="&#x45e;" horiz-adv-x="1092" 
d="M14 0zM14 -389l41 141q23 -6 63 -12t97 -6q84 0 129 36.5t78 116.5l41 107l-418 1087h186l318 -874h4l317 874h179l-463 -1204q-29 -72 -59.5 -126t-73.5 -91t-99.5 -56.5t-136.5 -19.5q-72 0 -120 8.5t-83 18.5zM228 1530h106q14 -119 69.5 -166t141.5 -47t141.5 47
t69.5 166h106q-8 -156 -91 -250t-226 -94t-226 94t-91 250z" />
    <glyph glyph-name="afii10193" unicode="&#x45f;" horiz-adv-x="1221" 
d="M154 0v1083h172v-952h567v952h174v-1083h-367v-410h-174v410h-372z" />
    <glyph glyph-name="afii10050" unicode="&#x490;" horiz-adv-x="1171" 
d="M188 0v1516h740v256h172v-406h-735v-1366h-177z" />
    <glyph glyph-name="afii10098" unicode="&#x491;" horiz-adv-x="948" 
d="M154 0v1083h573v340h172v-471h-573v-952h-172z" />
    <glyph glyph-name="Wgrave" unicode="&#x1e80;" horiz-adv-x="1907" 
d="M74 0zM74 1516h182l223 -879q27 -100 49.5 -194.5t38.5 -176.5h4q17 80 38.5 175.5t47.5 193.5l211 881h183l217 -887q24 -103 45.5 -189t38.5 -174h4q18 92 38.5 174t45.5 183l221 893h172l-401 -1516h-166l-305 1268h-5l-313 -1268h-166zM699 1934h215l192 -324h-117z
" />
    <glyph glyph-name="wgrave" unicode="&#x1e81;" horiz-adv-x="1542" 
d="M45 0zM45 1081h182l142 -508q14 -49 25.5 -92t22.5 -85t22.5 -87t23.5 -96h4q14 57 25.5 102t21.5 86t21.5 83t25.5 91l137 506h154l141 -516q15 -49 26 -90t21.5 -82t20.5 -84t22 -96h4q15 53 26 96t21.5 83t21.5 81t26 88l147 520h166l-330 -1081h-164l-229 846h-4
l-231 -846h-162zM429 1522h215l192 -324h-117z" />
    <glyph glyph-name="Wacute" unicode="&#x1e82;" horiz-adv-x="1907" 
d="M74 0zM805 1610l192 324h215l-290 -324h-117zM74 1516h182l223 -879q27 -100 49.5 -194.5t38.5 -176.5h4q17 80 38.5 175.5t47.5 193.5l211 881h183l217 -887q24 -103 45.5 -189t38.5 -174h4q18 92 38.5 174t45.5 183l221 893h172l-401 -1516h-166l-305 1268h-5
l-313 -1268h-166z" />
    <glyph glyph-name="wacute" unicode="&#x1e83;" horiz-adv-x="1542" 
d="M45 0zM711 1198l192 324h215l-290 -324h-117zM45 1081h182l142 -508q14 -49 25.5 -92t22.5 -85t22.5 -87t23.5 -96h4q14 57 25.5 102t21.5 86t21.5 83t25.5 91l137 506h154l141 -516q15 -49 26 -90t21.5 -82t20.5 -84t22 -96h4q15 53 26 96t21.5 83t21.5 81t26 88
l147 520h166l-330 -1081h-164l-229 846h-4l-231 -846h-162z" />
    <glyph glyph-name="Wdieresis" unicode="&#x1e84;" horiz-adv-x="1907" 
d="M74 0zM674 1606v192h180v-192h-180zM1046 1606v192h183v-192h-183zM74 1516h182l223 -879q27 -100 49.5 -194.5t38.5 -176.5h4q17 80 38.5 175.5t47.5 193.5l211 881h183l217 -887q24 -103 45.5 -189t38.5 -174h4q18 92 38.5 174t45.5 183l221 893h172l-401 -1516h-166
l-305 1268h-5l-313 -1268h-166z" />
    <glyph glyph-name="wdieresis" unicode="&#x1e85;" horiz-adv-x="1542" 
d="M45 0zM490 1194v192h180v-192h-180zM862 1194v192h183v-192h-183zM45 1081h182l142 -508q14 -49 25.5 -92t22.5 -85t22.5 -87t23.5 -96h4q14 57 25.5 102t21.5 86t21.5 83t25.5 91l137 506h154l141 -516q15 -49 26 -90t21.5 -82t20.5 -84t22 -96h4q15 53 26 96t21.5 83
t21.5 81t26 88l147 520h166l-330 -1081h-164l-229 846h-4l-231 -846h-162z" />
    <glyph glyph-name="uni1EA0" unicode="&#x1ea0;" horiz-adv-x="1393" 
d="M66 0zM66 0l536 1522h189l536 -1522h-186l-150 434h-602l-149 -434h-174zM444 592h492l-242 711h-4zM595 -101h203v-183h-203v183z" />
    <glyph glyph-name="uni1EA1" unicode="&#x1ea1;" horiz-adv-x="1131" 
d="M90 0zM90 256q0 82 38 151.5t123 127t223 100.5t339 72v49q0 200 -205 200q-123 0 -217 -47t-174 -116l-92 110q94 86 217 143.5t285 57.5q96 0 164.5 -24.5t111.5 -70.5t63.5 -114t20.5 -152v-477q0 -98 7 -161.5t24 -104.5h-180q-11 35 -18 68.5t-7 81.5
q-178 -166 -418 -166q-141 0 -223 70.5t-82 201.5zM264 283q0 -78 48 -119t134 -41q109 0 200 42t167 116v303q-154 -25 -259 -55.5t-170 -68.5t-92.5 -82t-27.5 -95zM453 -101h203v-183h-203v183z" />
    <glyph glyph-name="uni1EA2" unicode="&#x1ea2;" horiz-adv-x="1393" 
d="M66 0zM66 0l536 1522h189l536 -1522h-186l-150 434h-602l-149 -434h-174zM444 592h492l-242 711h-4zM469 1963q22 27 46.5 51t54 41t64 27t75.5 10q48 0 87 -13t66.5 -36t43 -55t15.5 -70q0 -34 -9.5 -60t-25.5 -47t-38 -37.5t-46 -30.5t-37.5 -28t-20.5 -32.5t-8.5 -43
t-1.5 -59.5h-108q-4 40 -3.5 72.5t9 59t27 48.5t50.5 42q22 13 38 24t26 23t15 26.5t5 34.5q0 38 -25.5 59.5t-73.5 21.5t-81 -26t-61 -66z" />
    <glyph glyph-name="uni1EA3" unicode="&#x1ea3;" horiz-adv-x="1131" 
d="M90 0zM90 256q0 82 38 151.5t123 127t223 100.5t339 72v49q0 200 -205 200q-123 0 -217 -47t-174 -116l-92 110q94 86 217 143.5t285 57.5q96 0 164.5 -24.5t111.5 -70.5t63.5 -114t20.5 -152v-477q0 -98 7 -161.5t24 -104.5h-180q-11 35 -18 68.5t-7 81.5
q-178 -166 -418 -166q-141 0 -223 70.5t-82 201.5zM264 283q0 -78 48 -119t134 -41q109 0 200 42t167 116v303q-154 -25 -259 -55.5t-170 -68.5t-92.5 -82t-27.5 -95zM330 1578q22 27 46.5 51t54 41t64 27t75.5 10q48 0 87 -13t66.5 -36t43 -55t15.5 -70q0 -34 -9.5 -60
t-25.5 -47t-38 -37.5t-46 -30.5t-37.5 -28t-20.5 -32.5t-8.5 -43t-1.5 -59.5h-108q-4 40 -3.5 72.5t9 59t27 48.5t50.5 42q22 13 38 24t26 23t15 26.5t5 34.5q0 38 -25.5 59.5t-73.5 21.5t-81 -26t-61 -66z" />
    <glyph glyph-name="uni1EA4" unicode="&#x1ea4;" horiz-adv-x="1393" 
d="M66 0zM66 0l536 1522h189l536 -1522h-186l-150 434h-602l-149 -434h-174zM444 592h492l-242 711h-4zM196 1776l194 325h213l-292 -325h-115zM367 1605l264 329h128l264 -329h-107l-223 192l-222 -192h-104z" />
    <glyph glyph-name="uni1EA5" unicode="&#x1ea5;" horiz-adv-x="1131" 
d="M78 0zM90 256q0 82 38 151.5t123 127t223 100.5t339 72v49q0 200 -205 200q-123 0 -217 -47t-174 -116l-92 110q94 86 217 143.5t285 57.5q96 0 164.5 -24.5t111.5 -70.5t63.5 -114t20.5 -152v-477q0 -98 7 -161.5t24 -104.5h-180q-11 35 -18 68.5t-7 81.5
q-178 -166 -418 -166q-141 0 -223 70.5t-82 201.5zM264 283q0 -78 48 -119t134 -41q109 0 200 42t167 116v303q-154 -25 -259 -55.5t-170 -68.5t-92.5 -82t-27.5 -95zM78 1364l194 325h213l-292 -325h-115zM249 1193l264 329h128l264 -329h-107l-223 192l-222 -192h-104z
" />
    <glyph glyph-name="uni1EA6" unicode="&#x1ea6;" horiz-adv-x="1393" 
d="M66 0zM66 0l536 1522h189l536 -1522h-186l-150 434h-602l-149 -434h-174zM444 592h492l-242 711h-4zM367 1605l264 329h128l264 -329h-107l-223 192l-222 -192h-104zM788 2101h213l193 -325h-115z" />
    <glyph glyph-name="uni1EA7" unicode="&#x1ea7;" horiz-adv-x="1131" 
d="M90 0zM90 256q0 82 38 151.5t123 127t223 100.5t339 72v49q0 200 -205 200q-123 0 -217 -47t-174 -116l-92 110q94 86 217 143.5t285 57.5q96 0 164.5 -24.5t111.5 -70.5t63.5 -114t20.5 -152v-477q0 -98 7 -161.5t24 -104.5h-180q-11 35 -18 68.5t-7 81.5
q-178 -166 -418 -166q-141 0 -223 70.5t-82 201.5zM264 283q0 -78 48 -119t134 -41q109 0 200 42t167 116v303q-154 -25 -259 -55.5t-170 -68.5t-92.5 -82t-27.5 -95zM249 1193l264 329h128l264 -329h-107l-223 192l-222 -192h-104zM670 1689h213l193 -325h-115z" />
    <glyph glyph-name="uni1EA8" unicode="&#x1ea8;" horiz-adv-x="1393" 
d="M66 0zM66 0l536 1522h189l536 -1522h-186l-150 434h-602l-149 -434h-174zM444 592h492l-242 711h-4zM367 1605l264 329h128l264 -329h-107l-223 192l-222 -192h-104zM482 2369q22 27 46.5 51t54 41t64 27t75.5 10q48 0 87.5 -13t67 -36t43 -55t15.5 -70q0 -34 -9.5 -60
t-25.5 -47t-38 -37.5t-46 -30.5t-37.5 -28t-21 -32.5t-9 -43t-1.5 -59.5h-108q-4 40 -3.5 72.5t9.5 59t27 48.5t50 42q22 13 38 24t26.5 23t15.5 26.5t5 34.5q0 38 -26 59.5t-74 21.5t-81 -26t-61 -66z" />
    <glyph glyph-name="uni1EA9" unicode="&#x1ea9;" horiz-adv-x="1131" 
d="M90 0zM90 256q0 82 38 151.5t123 127t223 100.5t339 72v49q0 200 -205 200q-123 0 -217 -47t-174 -116l-92 110q94 86 217 143.5t285 57.5q96 0 164.5 -24.5t111.5 -70.5t63.5 -114t20.5 -152v-477q0 -98 7 -161.5t24 -104.5h-180q-11 35 -18 68.5t-7 81.5
q-178 -166 -418 -166q-141 0 -223 70.5t-82 201.5zM264 283q0 -78 48 -119t134 -41q109 0 200 42t167 116v303q-154 -25 -259 -55.5t-170 -68.5t-92.5 -82t-27.5 -95zM249 1193l264 329h128l264 -329h-107l-223 192l-222 -192h-104zM364 1957q22 27 46.5 51t54 41t64 27
t75.5 10q48 0 87.5 -13t67 -36t43 -55t15.5 -70q0 -34 -9.5 -60t-25.5 -47t-38 -37.5t-46 -30.5t-37.5 -28t-21 -32.5t-9 -43t-1.5 -59.5h-108q-4 40 -3.5 72.5t9.5 59t27 48.5t50 42q22 13 38 24t26.5 23t15.5 26.5t5 34.5q0 38 -26 59.5t-74 21.5t-81 -26t-61 -66z" />
    <glyph glyph-name="uni1EAA" unicode="&#x1eaa;" horiz-adv-x="1393" 
d="M66 0zM66 0l536 1522h189l536 -1522h-186l-150 434h-602l-149 -434h-174zM444 592h492l-242 711h-4zM358 2011q0 125 48 184.5t137 59.5q45 0 86 -18.5t78.5 -40t71 -39t65.5 -17.5q45 0 64.5 25.5t19.5 85.5h105q0 -132 -50.5 -188t-134.5 -56q-46 0 -86.5 17.5t-78 39
t-71 40t-65.5 18.5q-45 0 -64.5 -26t-19.5 -85h-105zM367 1605l264 329h128l264 -329h-107l-223 192l-222 -192h-104z" />
    <glyph glyph-name="uni1EAB" unicode="&#x1eab;" horiz-adv-x="1131" 
d="M90 0zM90 256q0 82 38 151.5t123 127t223 100.5t339 72v49q0 200 -205 200q-123 0 -217 -47t-174 -116l-92 110q94 86 217 143.5t285 57.5q96 0 164.5 -24.5t111.5 -70.5t63.5 -114t20.5 -152v-477q0 -98 7 -161.5t24 -104.5h-180q-11 35 -18 68.5t-7 81.5
q-178 -166 -418 -166q-141 0 -223 70.5t-82 201.5zM264 283q0 -78 48 -119t134 -41q109 0 200 42t167 116v303q-154 -25 -259 -55.5t-170 -68.5t-92.5 -82t-27.5 -95zM240 1599q0 125 48 184.5t137 59.5q45 0 86 -18.5t78.5 -40t71 -39t65.5 -17.5q45 0 64.5 25.5t19.5 85.5
h105q0 -132 -50.5 -188t-134.5 -56q-46 0 -86.5 17.5t-78 39t-71 40t-65.5 18.5q-45 0 -64.5 -26t-19.5 -85h-105zM249 1193l264 329h128l264 -329h-107l-223 192l-222 -192h-104z" />
    <glyph glyph-name="uni1EAC" unicode="&#x1eac;" horiz-adv-x="1393" 
d="M66 0zM66 0l536 1522h189l536 -1522h-186l-150 434h-602l-149 -434h-174zM444 592h492l-242 711h-4zM366 1604l264 330h129l264 -330h-106l-224 192l-221 -192h-106zM595 -101h203v-183h-203v183z" />
    <glyph glyph-name="uni1EAD" unicode="&#x1ead;" horiz-adv-x="1131" 
d="M90 0zM90 256q0 82 38 151.5t123 127t223 100.5t339 72v49q0 200 -205 200q-123 0 -217 -47t-174 -116l-92 110q94 86 217 143.5t285 57.5q96 0 164.5 -24.5t111.5 -70.5t63.5 -114t20.5 -152v-477q0 -98 7 -161.5t24 -104.5h-180q-11 35 -18 68.5t-7 81.5
q-178 -166 -418 -166q-141 0 -223 70.5t-82 201.5zM264 283q0 -78 48 -119t134 -41q109 0 200 42t167 116v303q-154 -25 -259 -55.5t-170 -68.5t-92.5 -82t-27.5 -95zM248 1192l264 330h129l264 -330h-106l-224 192l-221 -192h-106zM453 -101h203v-183h-203v183z" />
    <glyph glyph-name="uni1EAE" unicode="&#x1eae;" horiz-adv-x="1393" 
d="M66 0zM66 0l536 1522h189l536 -1522h-186l-150 434h-602l-149 -434h-174zM444 592h492l-242 711h-4zM378 1941h105q7 -59 25 -99.5t45.5 -66t63.5 -36.5t78 -11q43 0 79 11t63.5 36.5t45.5 66t25 99.5h105q-4 -72 -25.5 -135t-61 -109t-97.5 -72.5t-134 -26.5
q-79 0 -137 28t-97 75t-59.5 109.5t-23.5 130.5zM611 1959l194 324h213l-292 -324h-115z" />
    <glyph glyph-name="uni1EAF" unicode="&#x1eaf;" horiz-adv-x="1131" 
d="M90 0zM90 256q0 82 38 151.5t123 127t223 100.5t339 72v49q0 200 -205 200q-123 0 -217 -47t-174 -116l-92 110q94 86 217 143.5t285 57.5q96 0 164.5 -24.5t111.5 -70.5t63.5 -114t20.5 -152v-477q0 -98 7 -161.5t24 -104.5h-180q-11 35 -18 68.5t-7 81.5
q-178 -166 -418 -166q-141 0 -223 70.5t-82 201.5zM264 283q0 -78 48 -119t134 -41q109 0 200 42t167 116v303q-154 -25 -259 -55.5t-170 -68.5t-92.5 -82t-27.5 -95zM248 1529h105q7 -59 25 -99.5t45.5 -66t63.5 -36.5t78 -11q43 0 79 11t63.5 36.5t45.5 66t25 99.5h105
q-4 -72 -25.5 -135t-61 -109t-97.5 -72.5t-134 -26.5q-79 0 -137 28t-97 75t-59.5 109.5t-23.5 130.5zM481 1547l194 324h213l-292 -324h-115z" />
    <glyph glyph-name="uni1EB0" unicode="&#x1eb0;" horiz-adv-x="1393" 
d="M66 0zM66 0l536 1522h189l536 -1522h-186l-150 434h-602l-149 -434h-174zM444 592h492l-242 711h-4zM373 2283h213l193 -324h-115zM378 1941h105q7 -59 25 -99.5t45.5 -66t63.5 -36.5t78 -11q43 0 79 11t63.5 36.5t45.5 66t25 99.5h105q-4 -72 -25.5 -135t-61 -109
t-97.5 -72.5t-134 -26.5q-79 0 -137 28t-97 75t-59.5 109.5t-23.5 130.5z" />
    <glyph glyph-name="uni1EB1" unicode="&#x1eb1;" horiz-adv-x="1131" 
d="M90 0zM90 256q0 82 38 151.5t123 127t223 100.5t339 72v49q0 200 -205 200q-123 0 -217 -47t-174 -116l-92 110q94 86 217 143.5t285 57.5q96 0 164.5 -24.5t111.5 -70.5t63.5 -114t20.5 -152v-477q0 -98 7 -161.5t24 -104.5h-180q-11 35 -18 68.5t-7 81.5
q-178 -166 -418 -166q-141 0 -223 70.5t-82 201.5zM264 283q0 -78 48 -119t134 -41q109 0 200 42t167 116v303q-154 -25 -259 -55.5t-170 -68.5t-92.5 -82t-27.5 -95zM243 1871h213l193 -324h-115zM248 1529h105q7 -59 25 -99.5t45.5 -66t63.5 -36.5t78 -11q43 0 79 11
t63.5 36.5t45.5 66t25 99.5h105q-4 -72 -25.5 -135t-61 -109t-97.5 -72.5t-134 -26.5q-79 0 -137 28t-97 75t-59.5 109.5t-23.5 130.5z" />
    <glyph glyph-name="uni1EB2" unicode="&#x1eb2;" horiz-adv-x="1393" 
d="M66 0zM66 0l536 1522h189l536 -1522h-186l-150 434h-602l-149 -434h-174zM444 592h492l-242 711h-4zM378 1941h105q7 -59 25 -99.5t45.5 -66t63.5 -36.5t78 -11q43 0 79 11t63.5 36.5t45.5 66t25 99.5h105q-4 -72 -25.5 -135t-61 -109t-97.5 -72.5t-134 -26.5
q-79 0 -137 28t-97 75t-59.5 109.5t-23.5 130.5zM484 2325q22 27 46.5 51t53.5 41t63.5 27t75.5 10q48 0 87.5 -13t67 -36t43 -55t15.5 -70q0 -34 -9.5 -60t-25.5 -47t-38 -37.5t-46 -30.5t-37.5 -28t-21 -32.5t-9 -43t-1.5 -59.5h-107q-5 40 -4.5 72.5t9.5 59t27.5 48.5
t50.5 42q22 13 37.5 24t26 23t15.5 26.5t5 34.5q0 38 -26 59.5t-74 21.5t-80.5 -26t-60.5 -66z" />
    <glyph glyph-name="uni1EB3" unicode="&#x1eb3;" horiz-adv-x="1131" 
d="M90 0zM90 256q0 82 38 151.5t123 127t223 100.5t339 72v49q0 200 -205 200q-123 0 -217 -47t-174 -116l-92 110q94 86 217 143.5t285 57.5q96 0 164.5 -24.5t111.5 -70.5t63.5 -114t20.5 -152v-477q0 -98 7 -161.5t24 -104.5h-180q-11 35 -18 68.5t-7 81.5
q-178 -166 -418 -166q-141 0 -223 70.5t-82 201.5zM264 283q0 -78 48 -119t134 -41q109 0 200 42t167 116v303q-154 -25 -259 -55.5t-170 -68.5t-92.5 -82t-27.5 -95zM248 1529h105q7 -59 25 -99.5t45.5 -66t63.5 -36.5t78 -11q43 0 79 11t63.5 36.5t45.5 66t25 99.5h105
q-4 -72 -25.5 -135t-61 -109t-97.5 -72.5t-134 -26.5q-79 0 -137 28t-97 75t-59.5 109.5t-23.5 130.5zM354 1913q22 27 46.5 51t53.5 41t63.5 27t75.5 10q48 0 87.5 -13t67 -36t43 -55t15.5 -70q0 -34 -9.5 -60t-25.5 -47t-38 -37.5t-46 -30.5t-37.5 -28t-21 -32.5t-9 -43
t-1.5 -59.5h-107q-5 40 -4.5 72.5t9.5 59t27.5 48.5t50.5 42q22 13 37.5 24t26 23t15.5 26.5t5 34.5q0 38 -26 59.5t-74 21.5t-80.5 -26t-60.5 -66z" />
    <glyph glyph-name="uni1EB4" unicode="&#x1eb4;" horiz-adv-x="1393" 
d="M66 0zM66 0l536 1522h189l536 -1522h-186l-150 434h-602l-149 -434h-174zM444 592h492l-242 711h-4zM358 2026q0 125 48 184.5t137 59.5q45 0 86 -18.5t78.5 -40t71 -39t65.5 -17.5q45 0 64.5 25.5t19.5 84.5h105q0 -131 -50.5 -187t-134.5 -56q-46 0 -86.5 17.5t-78 39
t-71 40t-65.5 18.5q-45 0 -64.5 -26t-19.5 -85h-105zM378 1941h105q7 -59 25 -99.5t45.5 -66t63.5 -36.5t78 -11q43 0 79 11t63.5 36.5t45.5 66t25 99.5h105q-4 -72 -25.5 -135t-61 -109t-97.5 -72.5t-134 -26.5q-79 0 -137 28t-97 75t-59.5 109.5t-23.5 130.5z" />
    <glyph glyph-name="uni1EB5" unicode="&#x1eb5;" horiz-adv-x="1131" 
d="M90 0zM90 256q0 82 38 151.5t123 127t223 100.5t339 72v49q0 200 -205 200q-123 0 -217 -47t-174 -116l-92 110q94 86 217 143.5t285 57.5q96 0 164.5 -24.5t111.5 -70.5t63.5 -114t20.5 -152v-477q0 -98 7 -161.5t24 -104.5h-180q-11 35 -18 68.5t-7 81.5
q-178 -166 -418 -166q-141 0 -223 70.5t-82 201.5zM264 283q0 -78 48 -119t134 -41q109 0 200 42t167 116v303q-154 -25 -259 -55.5t-170 -68.5t-92.5 -82t-27.5 -95zM228 1614q0 125 48 184.5t137 59.5q45 0 86 -18.5t78.5 -40t71 -39t65.5 -17.5q45 0 64.5 25.5t19.5 84.5
h105q0 -131 -50.5 -187t-134.5 -56q-46 0 -86.5 17.5t-78 39t-71 40t-65.5 18.5q-45 0 -64.5 -26t-19.5 -85h-105zM248 1529h105q7 -59 25 -99.5t45.5 -66t63.5 -36.5t78 -11q43 0 79 11t63.5 36.5t45.5 66t25 99.5h105q-4 -72 -25.5 -135t-61 -109t-97.5 -72.5t-134 -26.5
q-79 0 -137 28t-97 75t-59.5 109.5t-23.5 130.5z" />
    <glyph glyph-name="uni1EB6" unicode="&#x1eb6;" horiz-adv-x="1393" 
d="M66 0zM66 0l536 1522h189l536 -1522h-186l-150 434h-602l-149 -434h-174zM444 592h492l-242 711h-4zM378 1942h106q14 -119 69.5 -166t141.5 -47t141.5 47t69.5 166h106q-8 -156 -91 -250t-226 -94t-226 94t-91 250zM595 -101h203v-183h-203v183z" />
    <glyph glyph-name="uni1EB7" unicode="&#x1eb7;" horiz-adv-x="1131" 
d="M90 0zM90 256q0 82 38 151.5t123 127t223 100.5t339 72v49q0 200 -205 200q-123 0 -217 -47t-174 -116l-92 110q94 86 217 143.5t285 57.5q96 0 164.5 -24.5t111.5 -70.5t63.5 -114t20.5 -152v-477q0 -98 7 -161.5t24 -104.5h-180q-11 35 -18 68.5t-7 81.5
q-178 -166 -418 -166q-141 0 -223 70.5t-82 201.5zM264 283q0 -78 48 -119t134 -41q109 0 200 42t167 116v303q-154 -25 -259 -55.5t-170 -68.5t-92.5 -82t-27.5 -95zM244 1530h106q14 -119 69.5 -166t141.5 -47t141.5 47t69.5 166h106q-8 -156 -91 -250t-226 -94t-226 94
t-91 250zM453 -101h203v-183h-203v183z" />
    <glyph glyph-name="uni1EB8" unicode="&#x1eb8;" horiz-adv-x="1248" 
d="M186 0zM186 0v1516h930v-166h-749v-473h557v-162h-557v-551h792v-164h-973zM571 -101h203v-183h-203v183z" />
    <glyph glyph-name="uni1EB9" unicode="&#x1eb9;" horiz-adv-x="1130" 
d="M94 0zM94 541q0 147 44 253.5t115 175t158 101.5t173 33q96 0 178 -34t142.5 -104.5t95 -178t34.5 -255.5v-36h-764q2 -93 29 -162.5t70 -116.5t101 -71.5t126 -24.5q117 0 190.5 45t135.5 131l102 -90q-76 -109 -181.5 -169.5t-258.5 -60.5q-97 0 -185 35t-155.5 105.5
t-108.5 176t-41 247.5zM274 633h592q-10 145 -79.5 234t-204.5 89q-56 0 -107 -19t-92 -59t-70.5 -100.5t-38.5 -144.5zM464 -101h203v-183h-203v183z" />
    <glyph glyph-name="uni1EBA" unicode="&#x1eba;" horiz-adv-x="1248" 
d="M186 0zM186 0v1516h930v-166h-749v-473h557v-162h-557v-551h792v-164h-973zM446 1964q22 27 46.5 51t54 41t64 27t75.5 10q48 0 87 -13t66.5 -36t43 -55t15.5 -70q0 -34 -9.5 -60t-25.5 -47t-38 -37.5t-46 -30.5t-37.5 -28t-20.5 -32.5t-8.5 -43t-1.5 -59.5h-108
q-4 40 -3.5 72.5t9 59t27 48.5t50.5 42q22 13 38 24t26 23t15 26.5t5 34.5q0 38 -25.5 59.5t-73.5 21.5t-81 -26t-61 -66z" />
    <glyph glyph-name="uni1EBB" unicode="&#x1ebb;" horiz-adv-x="1130" 
d="M94 0zM94 541q0 147 44 253.5t115 175t158 101.5t173 33q96 0 178 -34t142.5 -104.5t95 -178t34.5 -255.5v-36h-764q2 -93 29 -162.5t70 -116.5t101 -71.5t126 -24.5q117 0 190.5 45t135.5 131l102 -90q-76 -109 -181.5 -169.5t-258.5 -60.5q-97 0 -185 35t-155.5 105.5
t-108.5 176t-41 247.5zM274 633h592q-10 145 -79.5 234t-204.5 89q-56 0 -107 -19t-92 -59t-70.5 -100.5t-38.5 -144.5zM343 1578q22 27 46.5 51t54 41t64 27t75.5 10q48 0 87 -13t66.5 -36t43 -55t15.5 -70q0 -34 -9.5 -60t-25.5 -47t-38 -37.5t-46 -30.5t-37.5 -28
t-20.5 -32.5t-8.5 -43t-1.5 -59.5h-108q-4 40 -3.5 72.5t9 59t27 48.5t50.5 42q22 13 38 24t26 23t15 26.5t5 34.5q0 38 -25.5 59.5t-73.5 21.5t-81 -26t-61 -66z" />
    <glyph glyph-name="uni1EBC" unicode="&#x1ebc;" horiz-adv-x="1248" 
d="M186 0zM186 0v1516h930v-166h-749v-473h557v-162h-557v-551h792v-164h-973zM332 1604q0 129 48 186.5t141 57.5q45 0 86 -18.5t77.5 -40t70.5 -39t67 -17.5q43 0 63.5 25.5t20.5 85.5h104q0 -127 -48 -185.5t-138 -58.5q-45 0 -86 17.5t-78 39t-71 40t-64 18.5
q-45 0 -64.5 -26t-19.5 -85h-109z" />
    <glyph glyph-name="uni1EBD" unicode="&#x1ebd;" horiz-adv-x="1130" 
d="M94 0zM94 541q0 147 44 253.5t115 175t158 101.5t173 33q96 0 178 -34t142.5 -104.5t95 -178t34.5 -255.5v-36h-764q2 -93 29 -162.5t70 -116.5t101 -71.5t126 -24.5q117 0 190.5 45t135.5 131l102 -90q-76 -109 -181.5 -169.5t-258.5 -60.5q-97 0 -185 35t-155.5 105.5
t-108.5 176t-41 247.5zM274 633h592q-10 145 -79.5 234t-204.5 89q-56 0 -107 -19t-92 -59t-70.5 -100.5t-38.5 -144.5zM225 1192q0 129 48 186.5t141 57.5q45 0 86 -18.5t77.5 -40t70.5 -39t67 -17.5q43 0 63.5 25.5t20.5 85.5h104q0 -127 -48 -185.5t-138 -58.5
q-45 0 -86 17.5t-78 39t-71 40t-64 18.5q-45 0 -64.5 -26t-19.5 -85h-109z" />
    <glyph glyph-name="uni1EBE" unicode="&#x1ebe;" horiz-adv-x="1248" 
d="M150 0zM150 1776l194 325h213l-292 -325h-115zM321 1605l264 329h128l264 -329h-107l-223 192l-222 -192h-104zM186 0v1516h930v-166h-749v-473h557v-162h-557v-551h792v-164h-973z" />
    <glyph glyph-name="uni1EBF" unicode="&#x1ebf;" horiz-adv-x="1130" 
d="M78 0zM78 1364l194 325h213l-292 -325h-115zM249 1193l264 329h128l264 -329h-107l-223 192l-222 -192h-104zM94 541q0 147 44 253.5t115 175t158 101.5t173 33q96 0 178 -34t142.5 -104.5t95 -178t34.5 -255.5v-36h-764q2 -93 29 -162.5t70 -116.5t101 -71.5t126 -24.5
q117 0 190.5 45t135.5 131l102 -90q-76 -109 -181.5 -169.5t-258.5 -60.5q-97 0 -185 35t-155.5 105.5t-108.5 176t-41 247.5zM274 633h592q-10 145 -79.5 234t-204.5 89q-56 0 -107 -19t-92 -59t-70.5 -100.5t-38.5 -144.5z" />
    <glyph glyph-name="uni1EC0" unicode="&#x1ec0;" horiz-adv-x="1248" 
d="M186 0zM321 1605l264 329h128l264 -329h-107l-223 192l-222 -192h-104zM742 2101h213l193 -325h-115zM186 0v1516h930v-166h-749v-473h557v-162h-557v-551h792v-164h-973z" />
    <glyph glyph-name="uni1EC1" unicode="&#x1ec1;" horiz-adv-x="1130" 
d="M94 0zM249 1193l264 329h128l264 -329h-107l-223 192l-222 -192h-104zM670 1689h213l193 -325h-115zM94 541q0 147 44 253.5t115 175t158 101.5t173 33q96 0 178 -34t142.5 -104.5t95 -178t34.5 -255.5v-36h-764q2 -93 29 -162.5t70 -116.5t101 -71.5t126 -24.5
q117 0 190.5 45t135.5 131l102 -90q-76 -109 -181.5 -169.5t-258.5 -60.5q-97 0 -185 35t-155.5 105.5t-108.5 176t-41 247.5zM274 633h592q-10 145 -79.5 234t-204.5 89q-56 0 -107 -19t-92 -59t-70.5 -100.5t-38.5 -144.5z" />
    <glyph glyph-name="uni1EC2" unicode="&#x1ec2;" horiz-adv-x="1248" 
d="M186 0zM186 0v1516h930v-166h-749v-473h557v-162h-557v-551h792v-164h-973zM321 1605l264 329h128l264 -329h-107l-223 192l-222 -192h-104zM436 2369q22 27 46.5 51t54 41t64 27t75.5 10q48 0 87.5 -13t67 -36t43 -55t15.5 -70q0 -34 -9.5 -60t-25.5 -47t-38 -37.5
t-46 -30.5t-37.5 -28t-21 -32.5t-9 -43t-1.5 -59.5h-108q-4 40 -3.5 72.5t9.5 59t27 48.5t50 42q22 13 38 24t26.5 23t15.5 26.5t5 34.5q0 38 -26 59.5t-74 21.5t-81 -26t-61 -66z" />
    <glyph glyph-name="uni1EC3" unicode="&#x1ec3;" horiz-adv-x="1130" 
d="M94 0zM94 541q0 147 44 253.5t115 175t158 101.5t173 33q96 0 178 -34t142.5 -104.5t95 -178t34.5 -255.5v-36h-764q2 -93 29 -162.5t70 -116.5t101 -71.5t126 -24.5q117 0 190.5 45t135.5 131l102 -90q-76 -109 -181.5 -169.5t-258.5 -60.5q-97 0 -185 35t-155.5 105.5
t-108.5 176t-41 247.5zM274 633h592q-10 145 -79.5 234t-204.5 89q-56 0 -107 -19t-92 -59t-70.5 -100.5t-38.5 -144.5zM249 1193l264 329h128l264 -329h-107l-223 192l-222 -192h-104zM364 1957q22 27 46.5 51t54 41t64 27t75.5 10q48 0 87.5 -13t67 -36t43 -55t15.5 -70
q0 -34 -9.5 -60t-25.5 -47t-38 -37.5t-46 -30.5t-37.5 -28t-21 -32.5t-9 -43t-1.5 -59.5h-108q-4 40 -3.5 72.5t9.5 59t27 48.5t50 42q22 13 38 24t26.5 23t15.5 26.5t5 34.5q0 38 -26 59.5t-74 21.5t-81 -26t-61 -66z" />
    <glyph glyph-name="uni1EC4" unicode="&#x1ec4;" horiz-adv-x="1248" 
d="M186 0zM186 0v1516h930v-166h-749v-473h557v-162h-557v-551h792v-164h-973zM312 2011q0 125 48 184.5t137 59.5q45 0 86 -18.5t78.5 -40t71 -39t65.5 -17.5q45 0 64.5 25.5t19.5 85.5h105q0 -132 -50.5 -188t-134.5 -56q-46 0 -86.5 17.5t-78 39t-71 40t-65.5 18.5
q-45 0 -64.5 -26t-19.5 -85h-105zM321 1605l264 329h128l264 -329h-107l-223 192l-222 -192h-104z" />
    <glyph glyph-name="uni1EC5" unicode="&#x1ec5;" horiz-adv-x="1130" 
d="M94 0zM94 541q0 147 44 253.5t115 175t158 101.5t173 33q96 0 178 -34t142.5 -104.5t95 -178t34.5 -255.5v-36h-764q2 -93 29 -162.5t70 -116.5t101 -71.5t126 -24.5q117 0 190.5 45t135.5 131l102 -90q-76 -109 -181.5 -169.5t-258.5 -60.5q-97 0 -185 35t-155.5 105.5
t-108.5 176t-41 247.5zM274 633h592q-10 145 -79.5 234t-204.5 89q-56 0 -107 -19t-92 -59t-70.5 -100.5t-38.5 -144.5zM240 1599q0 125 48 184.5t137 59.5q45 0 86 -18.5t78.5 -40t71 -39t65.5 -17.5q45 0 64.5 25.5t19.5 85.5h105q0 -132 -50.5 -188t-134.5 -56
q-46 0 -86.5 17.5t-78 39t-71 40t-65.5 18.5q-45 0 -64.5 -26t-19.5 -85h-105zM249 1193l264 329h128l264 -329h-107l-223 192l-222 -192h-104z" />
    <glyph glyph-name="uni1EC6" unicode="&#x1ec6;" horiz-adv-x="1248" 
d="M186 0zM320 1604l264 330h129l264 -330h-106l-224 192l-221 -192h-106zM186 0v1516h930v-166h-749v-473h557v-162h-557v-551h792v-164h-973zM571 -101h203v-183h-203v183z" />
    <glyph glyph-name="uni1EC7" unicode="&#x1ec7;" horiz-adv-x="1130" 
d="M94 0zM248 1192l264 330h129l264 -330h-106l-224 192l-221 -192h-106zM94 541q0 147 44 253.5t115 175t158 101.5t173 33q96 0 178 -34t142.5 -104.5t95 -178t34.5 -255.5v-36h-764q2 -93 29 -162.5t70 -116.5t101 -71.5t126 -24.5q117 0 190.5 45t135.5 131l102 -90
q-76 -109 -181.5 -169.5t-258.5 -60.5q-97 0 -185 35t-155.5 105.5t-108.5 176t-41 247.5zM274 633h592q-10 145 -79.5 234t-204.5 89q-56 0 -107 -19t-92 -59t-70.5 -100.5t-38.5 -144.5zM464 -101h203v-183h-203v183z" />
    <glyph glyph-name="uni1EC8" unicode="&#x1ec8;" horiz-adv-x="594" 
d="M80 0zM207 0v1516h180v-1516h-180zM80 2002q22 27 46.5 51t54 41t64 27t75.5 10q48 0 87 -13t66.5 -36t43 -55t15.5 -70q0 -34 -9.5 -60t-25.5 -47t-38 -37.5t-46 -30.5t-37.5 -28t-20.5 -32.5t-8.5 -43t-1.5 -59.5h-108q-4 40 -3.5 72.5t9 59t27 48.5t50.5 42
q22 13 38 24t26 23t15 26.5t5 34.5q0 38 -25.5 59.5t-73.5 21.5t-81 -26t-61 -66z" />
    <glyph glyph-name="uni1EC9" unicode="&#x1ec9;" horiz-adv-x="512" 
d="M39 0zM168 0v1081h176v-1081h-176zM39 1578q22 27 46.5 51t54 41t64 27t75.5 10q48 0 87 -13t66.5 -36t43 -55t15.5 -70q0 -34 -9.5 -60t-25.5 -47t-38 -37.5t-46 -30.5t-37.5 -28t-20.5 -32.5t-8.5 -43t-1.5 -59.5h-108q-4 40 -3.5 72.5t9 59t27 48.5t50.5 42
q22 13 38 24t26 23t15 26.5t5 34.5q0 38 -25.5 59.5t-73.5 21.5t-81 -26t-61 -66z" />
    <glyph glyph-name="uni1ECA" unicode="&#x1eca;" horiz-adv-x="594" 
d="M197 0zM207 0v1516h180v-1516h-180zM197 -101h203v-183h-203v183z" />
    <glyph glyph-name="uni1ECB" unicode="&#x1ecb;" horiz-adv-x="512" 
d="M156 0zM164 1313v172h184v-172h-184zM168 0v1081h176v-1081h-176zM156 -101h203v-183h-203v183z" />
    <glyph glyph-name="uni1ECC" unicode="&#x1ecc;" horiz-adv-x="1533" 
d="M113 0zM113 758q0 182 50 328.5t137 248t207 155.5t261 54t260 -54t206 -155.5t136 -248t49 -328.5q0 -183 -49 -329t-136 -247.5t-206 -156t-260 -54.5t-261 54.5t-207 156t-137 247.5t-50 329zM295 758q0 -148 35 -264.5t97 -196.5t149.5 -122t191.5 -42q102 0 189 42
t149.5 122t97.5 196.5t35 264.5q0 147 -35 263t-97.5 195.5t-149.5 121.5t-189 42q-104 0 -191.5 -42t-149.5 -121.5t-97 -195.5t-35 -263zM665 -101h203v-183h-203v183z" />
    <glyph glyph-name="uni1ECD" unicode="&#x1ecd;" 
d="M94 0zM94 541q0 139 41 244.5t110.5 176t161 106.5t191.5 36q98 0 189.5 -36t161 -106.5t110.5 -176t41 -244.5q0 -140 -41 -245.5t-110.5 -176t-161 -106.5t-189.5 -36t-189.5 36t-161 106.5t-111.5 176t-42 245.5zM272 541q0 -86 20.5 -162t60.5 -131t101.5 -88
t143.5 -33q76 0 136.5 29.5t102.5 84t63.5 131.5t21.5 169q0 84 -20.5 158.5t-60.5 131t-101.5 89t-141.5 32.5q-78 0 -138.5 -29.5t-102.5 -84t-63.5 -130t-21.5 -167.5zM496 -101h203v-183h-203v183z" />
    <glyph glyph-name="uni1ECE" unicode="&#x1ece;" horiz-adv-x="1533" 
d="M113 0zM113 758q0 182 50 328.5t137 248t207 155.5t261 54t260 -54t206 -155.5t136 -248t49 -328.5q0 -183 -49 -329t-136 -247.5t-206 -156t-260 -54.5t-261 54.5t-207 156t-137 247.5t-50 329zM295 758q0 -148 35 -264.5t97 -196.5t149.5 -122t191.5 -42q102 0 189 42
t149.5 122t97.5 196.5t35 264.5q0 147 -35 263t-97.5 195.5t-149.5 121.5t-189 42q-104 0 -191.5 -42t-149.5 -121.5t-97 -195.5t-35 -263zM540 1985q22 27 46.5 51t54 41t64 27t75.5 10q48 0 87 -13t66.5 -36t43 -55t15.5 -70q0 -34 -9.5 -60t-25.5 -47t-38 -37.5
t-46 -30.5t-37.5 -28t-20.5 -32.5t-8.5 -43t-1.5 -59.5h-108q-4 40 -3.5 72.5t9 59t27 48.5t50.5 42q22 13 38 24t26 23t15 26.5t5 34.5q0 38 -25.5 59.5t-73.5 21.5t-81 -26t-61 -66z" />
    <glyph glyph-name="uni1ECF" unicode="&#x1ecf;" 
d="M94 0zM94 541q0 139 41 244.5t110.5 176t161 106.5t191.5 36q98 0 189.5 -36t161 -106.5t110.5 -176t41 -244.5q0 -140 -41 -245.5t-110.5 -176t-161 -106.5t-189.5 -36t-189.5 36t-161 106.5t-111.5 176t-42 245.5zM272 541q0 -86 20.5 -162t60.5 -131t101.5 -88
t143.5 -33q76 0 136.5 29.5t102.5 84t63.5 131.5t21.5 169q0 84 -20.5 158.5t-60.5 131t-101.5 89t-141.5 32.5q-78 0 -138.5 -29.5t-102.5 -84t-63.5 -130t-21.5 -167.5zM371 1578q22 27 46.5 51t54 41t64 27t75.5 10q48 0 87 -13t66.5 -36t43 -55t15.5 -70q0 -34 -9.5 -60
t-25.5 -47t-38 -37.5t-46 -30.5t-37.5 -28t-20.5 -32.5t-8.5 -43t-1.5 -59.5h-108q-4 40 -3.5 72.5t9 59t27 48.5t50.5 42q22 13 38 24t26 23t15 26.5t5 34.5q0 38 -25.5 59.5t-73.5 21.5t-81 -26t-61 -66z" />
    <glyph glyph-name="uni1ED0" unicode="&#x1ed0;" horiz-adv-x="1533" 
d="M113 0zM266 1776l194 325h213l-292 -325h-115zM437 1605l264 329h128l264 -329h-107l-223 192l-222 -192h-104zM113 758q0 182 50 328.5t137 248t207 155.5t261 54t260 -54t206 -155.5t136 -248t49 -328.5q0 -183 -49 -329t-136 -247.5t-206 -156t-260 -54.5t-261 54.5
t-207 156t-137 247.5t-50 329zM295 758q0 -148 35 -264.5t97 -196.5t149.5 -122t191.5 -42q102 0 189 42t149.5 122t97.5 196.5t35 264.5q0 147 -35 263t-97.5 195.5t-149.5 121.5t-189 42q-104 0 -191.5 -42t-149.5 -121.5t-97 -195.5t-35 -263z" />
    <glyph glyph-name="uni1ED1" unicode="&#x1ed1;" 
d="M94 0zM98 1364l194 325h213l-292 -325h-115zM269 1193l264 329h128l264 -329h-107l-223 192l-222 -192h-104zM94 541q0 139 41 244.5t110.5 176t161 106.5t191.5 36q98 0 189.5 -36t161 -106.5t110.5 -176t41 -244.5q0 -140 -41 -245.5t-110.5 -176t-161 -106.5
t-189.5 -36t-189.5 36t-161 106.5t-111.5 176t-42 245.5zM272 541q0 -86 20.5 -162t60.5 -131t101.5 -88t143.5 -33q76 0 136.5 29.5t102.5 84t63.5 131.5t21.5 169q0 84 -20.5 158.5t-60.5 131t-101.5 89t-141.5 32.5q-78 0 -138.5 -29.5t-102.5 -84t-63.5 -130
t-21.5 -167.5z" />
    <glyph glyph-name="uni1ED2" unicode="&#x1ed2;" horiz-adv-x="1533" 
d="M113 0zM437 1605l264 329h128l264 -329h-107l-223 192l-222 -192h-104zM858 2101h213l193 -325h-115zM113 758q0 182 50 328.5t137 248t207 155.5t261 54t260 -54t206 -155.5t136 -248t49 -328.5q0 -183 -49 -329t-136 -247.5t-206 -156t-260 -54.5t-261 54.5t-207 156
t-137 247.5t-50 329zM295 758q0 -148 35 -264.5t97 -196.5t149.5 -122t191.5 -42q102 0 189 42t149.5 122t97.5 196.5t35 264.5q0 147 -35 263t-97.5 195.5t-149.5 121.5t-189 42q-104 0 -191.5 -42t-149.5 -121.5t-97 -195.5t-35 -263z" />
    <glyph glyph-name="uni1ED3" unicode="&#x1ed3;" 
d="M94 0zM269 1193l264 329h128l264 -329h-107l-223 192l-222 -192h-104zM690 1689h213l193 -325h-115zM94 541q0 139 41 244.5t110.5 176t161 106.5t191.5 36q98 0 189.5 -36t161 -106.5t110.5 -176t41 -244.5q0 -140 -41 -245.5t-110.5 -176t-161 -106.5t-189.5 -36
t-189.5 36t-161 106.5t-111.5 176t-42 245.5zM272 541q0 -86 20.5 -162t60.5 -131t101.5 -88t143.5 -33q76 0 136.5 29.5t102.5 84t63.5 131.5t21.5 169q0 84 -20.5 158.5t-60.5 131t-101.5 89t-141.5 32.5q-78 0 -138.5 -29.5t-102.5 -84t-63.5 -130t-21.5 -167.5z" />
    <glyph glyph-name="uni1ED4" unicode="&#x1ed4;" horiz-adv-x="1533" 
d="M113 0zM437 1605l264 329h128l264 -329h-107l-223 192l-222 -192h-104zM552 2369q22 27 46.5 51t54 41t64 27t75.5 10q48 0 87.5 -13t67 -36t43 -55t15.5 -70q0 -34 -9.5 -60t-25.5 -47t-38 -37.5t-46 -30.5t-37.5 -28t-21 -32.5t-9 -43t-1.5 -59.5h-108q-4 40 -3.5 72.5
t9.5 59t27 48.5t50 42q22 13 38 24t26.5 23t15.5 26.5t5 34.5q0 38 -26 59.5t-74 21.5t-81 -26t-61 -66zM113 758q0 182 50 328.5t137 248t207 155.5t261 54t260 -54t206 -155.5t136 -248t49 -328.5q0 -183 -49 -329t-136 -247.5t-206 -156t-260 -54.5t-261 54.5t-207 156
t-137 247.5t-50 329zM295 758q0 -148 35 -264.5t97 -196.5t149.5 -122t191.5 -42q102 0 189 42t149.5 122t97.5 196.5t35 264.5q0 147 -35 263t-97.5 195.5t-149.5 121.5t-189 42q-104 0 -191.5 -42t-149.5 -121.5t-97 -195.5t-35 -263z" />
    <glyph glyph-name="uni1ED5" unicode="&#x1ed5;" 
d="M94 0zM269 1193l264 329h128l264 -329h-107l-223 192l-222 -192h-104zM384 1957q22 27 46.5 51t54 41t64 27t75.5 10q48 0 87.5 -13t67 -36t43 -55t15.5 -70q0 -34 -9.5 -60t-25.5 -47t-38 -37.5t-46 -30.5t-37.5 -28t-21 -32.5t-9 -43t-1.5 -59.5h-108q-4 40 -3.5 72.5
t9.5 59t27 48.5t50 42q22 13 38 24t26.5 23t15.5 26.5t5 34.5q0 38 -26 59.5t-74 21.5t-81 -26t-61 -66zM94 541q0 139 41 244.5t110.5 176t161 106.5t191.5 36q98 0 189.5 -36t161 -106.5t110.5 -176t41 -244.5q0 -140 -41 -245.5t-110.5 -176t-161 -106.5t-189.5 -36
t-189.5 36t-161 106.5t-111.5 176t-42 245.5zM272 541q0 -86 20.5 -162t60.5 -131t101.5 -88t143.5 -33q76 0 136.5 29.5t102.5 84t63.5 131.5t21.5 169q0 84 -20.5 158.5t-60.5 131t-101.5 89t-141.5 32.5q-78 0 -138.5 -29.5t-102.5 -84t-63.5 -130t-21.5 -167.5z" />
    <glyph glyph-name="uni1ED6" unicode="&#x1ed6;" horiz-adv-x="1533" 
d="M113 0zM113 758q0 182 50 328.5t137 248t207 155.5t261 54t260 -54t206 -155.5t136 -248t49 -328.5q0 -183 -49 -329t-136 -247.5t-206 -156t-260 -54.5t-261 54.5t-207 156t-137 247.5t-50 329zM295 758q0 -148 35 -264.5t97 -196.5t149.5 -122t191.5 -42q102 0 189 42
t149.5 122t97.5 196.5t35 264.5q0 147 -35 263t-97.5 195.5t-149.5 121.5t-189 42q-104 0 -191.5 -42t-149.5 -121.5t-97 -195.5t-35 -263zM428 2011q0 125 48 184.5t137 59.5q45 0 86 -18.5t78.5 -40t71 -39t65.5 -17.5q45 0 64.5 25.5t19.5 85.5h105q0 -132 -50.5 -188
t-134.5 -56q-46 0 -86.5 17.5t-78 39t-71 40t-65.5 18.5q-45 0 -64.5 -26t-19.5 -85h-105zM437 1605l264 329h128l264 -329h-107l-223 192l-222 -192h-104z" />
    <glyph glyph-name="uni1ED7" unicode="&#x1ed7;" 
d="M94 0zM94 541q0 139 41 244.5t110.5 176t161 106.5t191.5 36q98 0 189.5 -36t161 -106.5t110.5 -176t41 -244.5q0 -140 -41 -245.5t-110.5 -176t-161 -106.5t-189.5 -36t-189.5 36t-161 106.5t-111.5 176t-42 245.5zM272 541q0 -86 20.5 -162t60.5 -131t101.5 -88
t143.5 -33q76 0 136.5 29.5t102.5 84t63.5 131.5t21.5 169q0 84 -20.5 158.5t-60.5 131t-101.5 89t-141.5 32.5q-78 0 -138.5 -29.5t-102.5 -84t-63.5 -130t-21.5 -167.5zM260 1599q0 125 48 184.5t137 59.5q45 0 86 -18.5t78.5 -40t71 -39t65.5 -17.5q45 0 64.5 25.5
t19.5 85.5h105q0 -132 -50.5 -188t-134.5 -56q-46 0 -86.5 17.5t-78 39t-71 40t-65.5 18.5q-45 0 -64.5 -26t-19.5 -85h-105zM269 1193l264 329h128l264 -329h-107l-223 192l-222 -192h-104z" />
    <glyph glyph-name="uni1ED8" unicode="&#x1ed8;" horiz-adv-x="1533" 
d="M113 0zM436 1604l264 330h129l264 -330h-106l-224 192l-221 -192h-106zM113 758q0 182 50 328.5t137 248t207 155.5t261 54t260 -54t206 -155.5t136 -248t49 -328.5q0 -183 -49 -329t-136 -247.5t-206 -156t-260 -54.5t-261 54.5t-207 156t-137 247.5t-50 329zM295 758
q0 -148 35 -264.5t97 -196.5t149.5 -122t191.5 -42q102 0 189 42t149.5 122t97.5 196.5t35 264.5q0 147 -35 263t-97.5 195.5t-149.5 121.5t-189 42q-104 0 -191.5 -42t-149.5 -121.5t-97 -195.5t-35 -263zM665 -101h203v-183h-203v183z" />
    <glyph glyph-name="uni1ED9" unicode="&#x1ed9;" 
d="M94 0zM268 1192l264 330h129l264 -330h-106l-224 192l-221 -192h-106zM94 541q0 139 41 244.5t110.5 176t161 106.5t191.5 36q98 0 189.5 -36t161 -106.5t110.5 -176t41 -244.5q0 -140 -41 -245.5t-110.5 -176t-161 -106.5t-189.5 -36t-189.5 36t-161 106.5t-111.5 176
t-42 245.5zM272 541q0 -86 20.5 -162t60.5 -131t101.5 -88t143.5 -33q76 0 136.5 29.5t102.5 84t63.5 131.5t21.5 169q0 84 -20.5 158.5t-60.5 131t-101.5 89t-141.5 32.5q-78 0 -138.5 -29.5t-102.5 -84t-63.5 -130t-21.5 -167.5zM496 -101h203v-183h-203v183z" />
    <glyph glyph-name="uni1EDA" unicode="&#x1eda;" horiz-adv-x="1544" 
d="M115 0zM674 1610l192 324h215l-290 -324h-117zM115 758q0 182 50.5 327.5t138.5 247.5t207 156.5t257 54.5q136 0 255 -54.5t207 -156.5t138.5 -247.5t50.5 -327.5t-50.5 -328t-138.5 -248t-207 -156.5t-255 -54.5q-138 0 -257 54.5t-207 156.5t-138.5 248t-50.5 328z
M293 758q0 -148 35 -266t98 -200t150.5 -126t191.5 -44q103 0 190 44t149.5 126t97.5 200t35 266t-35 265.5t-97.5 199t-149.5 125t-190 43.5q-104 0 -191.5 -43.5t-150.5 -125t-98 -199t-35 -265.5zM1122 1334v99q31 0 50.5 5t30.5 15t15.5 25.5t4.5 35.5h-63v186h172v-173
q0 -94 -55.5 -143.5t-154.5 -49.5z" />
    <glyph glyph-name="uni1EDB" unicode="&#x1edb;" 
d="M96 0zM508 1198l192 324h215l-290 -324h-117zM96 540q0 140 41 245.5t110 176t160 106t191 35.5q99 0 189.5 -35.5t160 -106t110.5 -176t41 -245.5q0 -138 -41 -243.5t-110.5 -176.5t-160 -107t-189.5 -36t-190 36t-160.5 107t-110.5 176.5t-41 243.5zM271 541
q0 -86 20 -163.5t61 -136.5t102 -94t144 -35q77 0 137.5 32t102 89.5t63.5 136t22 171.5q0 85 -20.5 162t-61 135.5t-101.5 93t-142 34.5q-78 0 -139 -32t-102.5 -89t-63.5 -135t-22 -169zM884 914v99q29 0 48 5t29.5 15t14.5 25t4 36h-63v186h172v-174q0 -94 -54 -143
t-151 -49z" />
    </font>
</defs>
</svg>
